<?xml version="1.0" encoding="UTF-8" standalone="no"?>
<svg width="35px" height="34px" viewBox="0 0 35 34" version="1.1" xmlns="http://www.w3.org/2000/svg" xmlns:xlink="http://www.w3.org/1999/xlink" xmlns:sketch="http://www.bohemiancoding.com/sketch/ns">
    <!-- Generator: Sketch 3.4.4 (17249) - http://www.bohemiancoding.com/sketch -->
    <title>book</title>
    <desc>Created with Sketch.</desc>
    <defs></defs>
    <g id="Page-1" stroke="none" stroke-width="1" fill="none" fill-rule="evenodd" sketch:type="MSPage">
        <g id="Bicons_v3-[Converted]" sketch:type="MSLayerGroup" transform="translate(-595.000000, -333.000000)" fill="#14171C">
            <g id="book" transform="translate(595.000000, 333.000000)" sketch:type="MSShapeGroup">
                <path d="M17,4.5 L17,30 L18,30 L18,4.5 L17,4.5 L17,4.5 Z" id="Shape"></path>
                <path d="M18,4.5 C18,2.02385763 15.9761424,0 13.5,0 L4.5,0 C2.02385763,0 0,2.02385763 0,4.5 L0,24.5 C0,26.9761424 2.02385763,29 4.5,29 L13.5,29 C15.4238576,29 17,30.5761424 17,32.5 L17,33.5 L18,33.5 L18,32.5 C18,30.0238576 15.9761424,28 13.5,28 L4.5,28 C2.57614237,28 1,26.4238576 1,24.5 L1,4.5 C1,2.57614237 2.57614237,1 4.5,1 L13.5,1 C15.4238576,1 17,2.57614237 17,4.5 L18,4.5 L18,4.5 Z" id="Shape"></path>
                <path d="M18,4.5 C18,2.57614237 19.5761424,1 21.5,1 L30.5,1 C32.4238576,1 34,2.57614237 34,4.5 L34,24.5 C34,26.4238576 32.4238576,28 30.5,28 L21.5,28 C19.0238576,28 17,30.0238576 17,32.5 L17,33.5 L18,33.5 L18,32.5 C18,30.5761424 19.5761424,29 21.5,29 L30.5,29 C32.9761424,29 35,26.9761424 35,24.5 L35,4.5 C35,2.02385763 32.9761424,0 30.5,0 L21.5,0 C19.0238576,0 17,2.02385763 17,4.5 L18,4.5 L18,4.5 Z" id="Shape"></path>
            </g>
        </g>
    </g>
</svg>