<?xml version="1.0" encoding="UTF-8" standalone="no"?>
<svg width="35px" height="34px" viewBox="0 0 35 34" version="1.1" xmlns="http://www.w3.org/2000/svg" xmlns:xlink="http://www.w3.org/1999/xlink" xmlns:sketch="http://www.bohemiancoding.com/sketch/ns">
    <!-- Generator: Sketch 3.4.4 (17249) - http://www.bohemiancoding.com/sketch -->
    <title>bug</title>
    <desc>Created with Sketch.</desc>
    <defs></defs>
    <g id="Page-1" stroke="none" stroke-width="1" fill="none" fill-rule="evenodd" sketch:type="MSPage">
        <g id="Bicons_v3-[Converted]" sketch:type="MSLayerGroup" transform="translate(-595.000000, -530.000000)" fill="#14171C">
            <g id="bug" transform="translate(595.000000, 530.000000)" sketch:type="MSShapeGroup">
                <path d="M17.5,34 C23.8812986,34 29,27.4852892 29,19.5 C29,11.5147108 23.8812986,5 17.5,5 C11.1187014,5 6,11.5147108 6,19.5 C6,27.4852892 11.1187014,34 17.5,34 L17.5,34 Z M17.5,33 C11.7310341,33 7,26.9786838 7,19.5 C7,12.0213162 11.7310341,6 17.5,6 C23.2689659,6 28,12.0213162 28,19.5 C28,26.9786838 23.2689659,33 17.5,33 L17.5,33 Z" id="Shape"></path>
                <path d="M0.5,20 L6.5,20 L6.5,19 L0.5,19 L0.5,20 L0.5,20 Z" id="Shape"></path>
                <path d="M2.2093809,10.1068667 L7.1093809,13.6068667 L7.6906191,12.7931333 L2.7906191,9.29313326 L2.2093809,10.1068667 L2.2093809,10.1068667 Z" id="Shape"></path>
                <path d="M32.2093809,9.29313326 L27.3093809,12.7931333 L27.8906191,13.6068667 L32.7906191,10.1068667 L32.2093809,9.29313326 L32.2093809,9.29313326 Z" id="Shape"></path>
                <path d="M2.7906191,29.7068667 L7.6906191,26.2068667 L7.1093809,25.3931333 L2.2093809,28.8931333 L2.7906191,29.7068667 L2.7906191,29.7068667 Z" id="Shape"></path>
                <path d="M32.7906191,28.8931333 L27.8906191,25.3931333 L27.3093809,26.2068667 L32.2093809,29.7068667 L32.7906191,28.8931333 L32.7906191,28.8931333 Z" id="Shape"></path>
                <path d="M28.5,20 L34.5,20 L34.5,19 L28.5,19 L28.5,20 L28.5,20 Z" id="Shape"></path>
                <path d="M4.5,1 C8.43356258,1 11.948648,3.42708278 13.0256584,6.65811388 L13.9743416,6.34188612 C12.7585685,2.6945667 8.8560926,0 4.5,0 L4.5,1 L4.5,1 Z" id="Shape"></path>
                <path d="M30.5,0 C26.1439074,0 22.2414315,2.6945667 21.0256584,6.34188612 L21.9743416,6.65811388 C23.051352,3.42708278 26.5664374,1 30.5,1 L30.5,0 L30.5,0 Z" id="Shape"></path>
                <path d="M7.18979846,13.8921416 C14.0715976,19.3359528 20.9284024,19.3359528 27.8102015,13.8921416 L27.1897985,13.1078584 C20.6715976,18.2640472 14.3284024,18.2640472 7.81020154,13.1078584 L7.18979846,13.8921416 L7.18979846,13.8921416 Z" id="Shape"></path>
                <path d="M17,17.5 L17,33.5 L18,33.5 L18,17.5 L17,17.5 L17,17.5 Z" id="Shape"></path>
            </g>
        </g>
    </g>
</svg>