<?xml version="1.0" encoding="UTF-8" standalone="no"?>
<svg width="35px" height="25px" viewBox="0 0 35 25" version="1.1" xmlns="http://www.w3.org/2000/svg" xmlns:xlink="http://www.w3.org/1999/xlink" xmlns:sketch="http://www.bohemiancoding.com/sketch/ns">
    <!-- Generator: Sketch 3.4.4 (17249) - http://www.bohemiancoding.com/sketch -->
    <title>camera</title>
    <desc>Created with Sketch.</desc>
    <defs></defs>
    <g id="Page-1" stroke="none" stroke-width="1" fill="none" fill-rule="evenodd" sketch:type="MSPage">
        <g id="Bicons_v3-[Converted]" sketch:type="MSLayerGroup" transform="translate(-331.000000, -402.000000)" fill="#14171C">
            <g id="camera" transform="translate(331.000000, 402.000000)" sketch:type="MSShapeGroup">
                <path d="M20.5,24 L4.5,24 C2.57614237,24 1,22.4238576 1,20.5 L1,4.5 C1,2.57614237 2.57614237,1 4.5,1 L20.5,1 C22.4238576,1 24,2.57614237 24,4.5 L24,20.5 C24,22.4238576 22.4238576,24 20.5,24 L20.5,24 Z M20.5,25 C22.9761424,25 25,22.9761424 25,20.5 L25,4.5 C25,2.02385763 22.9761424,0 20.5,0 L4.5,0 C2.02385763,0 0,2.02385763 0,4.5 L0,20.5 C0,22.9761424 2.02385763,25 4.5,25 L20.5,25 L20.5,25 Z" id="Shape"></path>
                <path d="M24.2126154,15.9091578 L32.6126154,21.8091578 C33.6283599,22.5347089 35,21.821456 35,20.6 L35,4.4 C35,3.17854398 33.6283599,2.46529113 32.6093809,3.19313326 L24.2126154,9.09084223 L24,9.24017922 L24,9.5 L24,15.5 L24,15.7598208 L24.2126154,15.9091578 L24.2126154,15.9091578 Z M24.7873846,15.0908422 L25,15.5 L25,9.5 L24.7873846,9.90915777 L33.1873846,4.00915777 C33.5457142,3.75322739 34,3.98945602 34,4.4 L34,20.6 C34,21.010544 33.5457142,21.2467726 33.1906191,20.9931333 L24.7873846,15.0908422 L24.7873846,15.0908422 Z" id="Shape"></path>
            </g>
        </g>
    </g>
</svg>