<?xml version="1.0" encoding="UTF-8" standalone="no"?>
<svg width="35px" height="33px" viewBox="0 0 35 33" version="1.1" xmlns="http://www.w3.org/2000/svg" xmlns:xlink="http://www.w3.org/1999/xlink" xmlns:sketch="http://www.bohemiancoding.com/sketch/ns">
    <!-- Generator: Sketch 3.4.4 (17249) - http://www.bohemiancoding.com/sketch -->
    <title>case</title>
    <desc>Created with Sketch.</desc>
    <defs></defs>
    <g id="Page-1" stroke="none" stroke-width="1" fill="none" fill-rule="evenodd" sketch:type="MSPage">
        <g id="Bicons_v3-[Converted]" sketch:type="MSLayerGroup" transform="translate(-199.000000, -529.000000)" fill="#14171C">
            <g id="case" transform="translate(199.000000, 529.000000)" sketch:type="MSShapeGroup">
                <path d="M30.5,32 L4.5,32 C2.57614237,32 1,30.4238576 1,28.5 L1,10.5 C1,8.57614237 2.57614237,7 4.5,7 L30.5,7 C32.4238576,7 34,8.57614237 34,10.5 L34,28.5 C34,30.4238576 32.4238576,32 30.5,32 L30.5,32 Z M30.5,33 C32.9761424,33 35,30.9761424 35,28.5 L35,10.5 C35,8.02385763 32.9761424,6 30.5,6 L4.5,6 C2.02385763,6 0,8.02385763 0,10.5 L0,28.5 C0,30.9761424 2.02385763,33 4.5,33 L30.5,33 L30.5,33 Z" id="Shape"></path>
                <path d="M24.5,6 L10.5,6 L11,6.5 L11,3.5 C11,2.07614237 12.0761424,1 13.5,1 L21.5,1 C22.9238576,1 24,2.07614237 24,3.5 L24,6.5 L24.5,6 L24.5,6 Z M24.5,7 L25,7 L25,6.5 L25,3.5 C25,1.52385763 23.4761424,0 21.5,0 L13.5,0 C11.5238576,0 10,1.52385763 10,3.5 L10,6.5 L10,7 L10.5,7 L24.5,7 L24.5,7 Z" id="Shape"></path>
                <path d="M0.5,19 L13.5,19 L13.5,18 L0.5,18 L0.5,19 L0.5,19 Z" id="Shape"></path>
                <path d="M21.5,19 L34,19 L34,18 L21.5,18 L21.5,19 L21.5,19 Z" id="Shape"></path>
                <path d="M20.5,21 L14.5,21 C14.1761424,21 14,20.8238576 14,20.5 L14,16.5 C14,16.1761424 14.1761424,16 14.5,16 L20.5,16 C20.8238576,16 21,16.1761424 21,16.5 L21,20.5 C21,20.8238576 20.8238576,21 20.5,21 L20.5,21 Z M20.5,22 C21.3761424,22 22,21.3761424 22,20.5 L22,16.5 C22,15.6238576 21.3761424,15 20.5,15 L14.5,15 C13.6238576,15 13,15.6238576 13,16.5 L13,20.5 C13,21.3761424 13.6238576,22 14.5,22 L20.5,22 L20.5,22 Z" id="Shape"></path>
            </g>
        </g>
    </g>
</svg>