<?xml version="1.0" encoding="UTF-8" standalone="no"?>
<svg width="35px" height="35px" viewBox="0 0 35 35" version="1.1" xmlns="http://www.w3.org/2000/svg" xmlns:xlink="http://www.w3.org/1999/xlink" xmlns:sketch="http://www.bohemiancoding.com/sketch/ns">
    <!-- Generator: Sketch 3.4.4 (17249) - http://www.bohemiancoding.com/sketch -->
    <title>circle-minus</title>
    <desc>Created with Sketch.</desc>
    <defs></defs>
    <g id="Page-1" stroke="none" stroke-width="1" fill="none" fill-rule="evenodd" sketch:type="MSPage">
        <g id="Bicons_v3-[Converted]" sketch:type="MSLayerGroup" transform="translate(-199.000000, -330.000000)" fill="#14171C">
            <g id="circle-minus" transform="translate(199.000000, 330.000000)" sketch:type="MSShapeGroup">
                <path d="M17.5,35 C27.1649831,35 35,27.1649831 35,17.5 C35,7.83501688 27.1649831,0 17.5,0 C7.83501688,0 0,7.83501688 0,17.5 C0,27.1649831 7.83501688,35 17.5,35 L17.5,35 Z M17.5,34 C8.38730163,34 1,26.6126984 1,17.5 C1,8.38730163 8.38730163,1 17.5,1 C26.6126984,1 34,8.38730163 34,17.5 C34,26.6126984 26.6126984,34 17.5,34 L17.5,34 Z" id="Shape"></path>
                <path d="M8.5,18 L26.5,18 L26.5,17 L8.5,17 L8.5,18 L8.5,18 Z" id="Shape"></path>
            </g>
        </g>
    </g>
</svg>