<?xml version="1.0" encoding="UTF-8" standalone="no"?>
<svg width="40px" height="30px" viewBox="0 0 40 30" version="1.1" xmlns="http://www.w3.org/2000/svg" xmlns:xlink="http://www.w3.org/1999/xlink" xmlns:sketch="http://www.bohemiancoding.com/sketch/ns">
    <!-- Generator: Sketch 3.4.4 (17249) - http://www.bohemiancoding.com/sketch -->
    <title>cloud</title>
    <desc>Created with Sketch.</desc>
    <defs></defs>
    <g id="Page-1" stroke="none" stroke-width="1" fill="none" fill-rule="evenodd" sketch:type="MSPage">
        <g id="Bicons_v3-[Converted]" sketch:type="MSLayerGroup" transform="translate(-395.000000, -464.000000)" fill="#14171C">
            <path d="M403.999713,475.616939 C404.190299,469.994642 408.861201,465.5 414.5,465.5 C419.496006,465.5 423.746981,468.967901 424.811678,473.807431 L424.884049,474.136391 L425.2161,474.192911 C429.729854,474.961209 433.1,478.897766 433.1,483.5 C433.1,488.723858 428.823858,493 423.6,493 L404.6,493 C399.876142,493 396.1,489.223858 396.1,484.5 C396.00662,480.199104 399.260536,476.574129 403.555216,476.096942 L403.985061,476.049181 L403.999713,475.616939 L403.999713,475.616939 Z M403.000287,475.583061 L403.444784,475.103058 C398.640631,475.636853 394.995483,479.697675 395.100118,484.510867 C395.1,489.776142 399.323858,494 404.6,494 L423.6,494 C429.376142,494 434.1,489.276142 434.1,483.5 C434.1,478.407276 430.375414,474.056709 425.3839,473.207089 L425.788322,473.592569 C424.623385,468.297398 419.96851,464.5 414.5,464.5 C408.323112,464.5 403.209172,469.420962 403.000287,475.583061 L403.000287,475.583061 Z" id="cloud" sketch:type="MSShapeGroup"></path>
        </g>
    </g>
</svg>