<?xml version="1.0" encoding="UTF-8" standalone="no"?>
<svg width="33px" height="33px" viewBox="0 0 33 33" version="1.1" xmlns="http://www.w3.org/2000/svg" xmlns:xlink="http://www.w3.org/1999/xlink" xmlns:sketch="http://www.bohemiancoding.com/sketch/ns">
    <!-- Generator: Sketch 3.4.4 (17249) - http://www.bohemiancoding.com/sketch -->
    <title>collapse</title>
    <desc>Created with Sketch.</desc>
    <defs></defs>
    <g id="Page-1" stroke="none" stroke-width="1" fill="none" fill-rule="evenodd" sketch:type="MSPage">
        <g id="Bicons_v3-[Converted]" sketch:type="MSLayerGroup" transform="translate(-398.000000, -199.000000)" fill="#14171C">
            <g id="collapse" transform="translate(398.000000, 199.000000)" sketch:type="MSShapeGroup">
                <path d="M18.5,0 L4.5,0 C2.02385763,0 0,2.02385763 0,4.5 L0,28.5 C0,30.9761424 2.02385763,33 4.5,33 L28.5,33 C30.9761424,33 33,30.9761424 33,28.5 L33,14.5 L32,14.5 L32,28.5 C32,30.4238576 30.4238576,32 28.5,32 L4.5,32 C2.57614237,32 1,30.4238576 1,28.5 L1,4.5 C1,2.57614237 2.57614237,1 4.5,1 L18.5,1 L18.5,0 L18.5,0 Z" id="Shape"></path>
                <path d="M31.1464466,1.14644661 L14.1464466,18.1464466 L14.8535534,18.8535534 L31.8535534,1.85355339 L31.1464466,1.14644661 L31.1464466,1.14644661 Z" id="Shape"></path>
                <path d="M13,7.5 L13,18.5 C13,19.3761424 13.6238576,20 14.5,20 L25.5,20 L25.5,19 L14.5,19 C14.1761424,19 14,18.8238576 14,18.5 L14,7.5 L13,7.5 L13,7.5 Z" id="Shape"></path>
            </g>
        </g>
    </g>
</svg>