<?xml version="1.0" encoding="UTF-8" standalone="no"?>
<svg width="35px" height="35px" viewBox="0 0 35 35" version="1.1" xmlns="http://www.w3.org/2000/svg" xmlns:xlink="http://www.w3.org/1999/xlink" xmlns:sketch="http://www.bohemiancoding.com/sketch/ns">
    <!-- Generator: Sketch 3.4.4 (17249) - http://www.bohemiancoding.com/sketch -->
    <title>dot</title>
    <desc>Created with Sketch.</desc>
    <defs></defs>
    <g id="Page-1" stroke="none" stroke-width="1" fill="none" fill-rule="evenodd" sketch:type="MSPage">
        <g id="Bicons_v3-[Converted]" sketch:type="MSLayerGroup" transform="translate(-463.000000, -198.000000)" fill="#14171C">
            <g id="dot" transform="translate(463.000000, 198.000000)" sketch:type="MSShapeGroup">
                <path d="M18.5,2 L4.5,2 C2.02385763,2 0,4.02385763 0,6.5 L0,30.5 C0,32.9761424 2.02385763,35 4.5,35 L28.5,35 C30.9761424,35 33,32.9761424 33,30.5 L33,16.5 L32,16.5 L32,30.5 C32,32.4238576 30.4238576,34 28.5,34 L4.5,34 C2.57614237,34 1,32.4238576 1,30.5 L1,6.5 C1,4.57614237 2.57614237,3 4.5,3 L18.5,3 L18.5,2 L18.5,2 Z" id="Shape"></path>
                <path d="M28.5,13 C32.0898509,13 35,10.0898509 35,6.5 C35,2.91014913 32.0898509,0 28.5,0 C24.9101491,0 22,2.91014913 22,6.5 C22,10.0898509 24.9101491,13 28.5,13 L28.5,13 Z M28.5,12 C25.4624339,12 23,9.53756612 23,6.5 C23,3.46243388 25.4624339,1 28.5,1 C31.5375661,1 34,3.46243388 34,6.5 C34,9.53756612 31.5375661,12 28.5,12 L28.5,12 Z" id="Shape"></path>
            </g>
        </g>
    </g>
</svg>