<?xml version="1.0" encoding="UTF-8" standalone="no"?>
<svg width="37px" height="38px" viewBox="0 0 37 38" version="1.1" xmlns="http://www.w3.org/2000/svg" xmlns:xlink="http://www.w3.org/1999/xlink" xmlns:sketch="http://www.bohemiancoding.com/sketch/ns">
    <!-- Generator: Sketch 3.4.4 (17249) - http://www.bohemiancoding.com/sketch -->
    <title>edit</title>
    <desc>Created with Sketch.</desc>
    <defs></defs>
    <g id="Page-1" stroke="none" stroke-width="1" fill="none" fill-rule="evenodd" sketch:type="MSPage">
        <g id="Bicons_v3-[Converted]" sketch:type="MSLayerGroup" transform="translate(-200.000000, -62.000000)" fill="#14171C">
            <g id="edit" transform="translate(200.000000, 62.000000)" sketch:type="MSShapeGroup">
                <path d="M32,19.5 L32,33.5 C32,35.4238576 30.4238576,37 28.5,37 L4.5,37 C2.57614237,37 1,35.4238576 1,33.5 L1,9.5 C1,7.57614237 2.57614237,6 4.5,6 L18.5,6 L18.5,5 L4.5,5 C2.02385763,5 0,7.02385763 0,9.5 L0,33.5 C0,35.9761424 2.02385763,38 4.5,38 L28.5,38 C30.9761424,38 33,35.9761424 33,33.5 L33,19.5 L32,19.5 L32,19.5 Z" id="Shape"></path>
                <path d="M22.0807376,19.5144318 L16.3807376,20.9144318 L16.9855682,21.5192624 L18.3855682,15.8192624 L18.2535534,16.0535534 L31.6535534,2.65355339 C32.6556761,1.65143072 34.227194,1.65143072 35.1314229,2.63786231 C36.1485693,3.65567607 36.1485693,5.22719396 35.1621377,6.13142293 L21.8438181,19.6490948 L22.0807376,19.5144318 L22.0807376,19.5144318 Z M22.3192624,20.4855682 L22.4567929,20.4517888 L22.5561819,20.3509052 L35.8561819,6.85090516 C37.2514307,5.57280604 37.2514307,3.34432393 35.8535534,1.94644661 C34.572806,0.548569284 32.3443239,0.548569284 30.9464466,1.94644661 L17.5464466,15.3464466 L17.447731,15.4451622 L17.4144318,15.5807376 L16.0144318,21.2807376 L15.8175102,22.0824898 L16.6192624,21.8855682 L22.3192624,20.4855682 L22.3192624,20.4855682 Z" id="Shape"></path>
                <path d="M29.5506302,4.15768809 L33.8506302,8.35768809 L34.5493698,7.64231191 L30.2493698,3.44231191 L29.5506302,4.15768809 L29.5506302,4.15768809 Z" id="Shape"></path>
            </g>
        </g>
    </g>
</svg>