<?xml version="1.0" encoding="UTF-8" standalone="no"?>
<svg width="33px" height="35px" viewBox="0 0 33 35" version="1.1" xmlns="http://www.w3.org/2000/svg" xmlns:xlink="http://www.w3.org/1999/xlink" xmlns:sketch="http://www.bohemiancoding.com/sketch/ns">
    <!-- Generator: Sketch 3.4.4 (17249) - http://www.bohemiancoding.com/sketch -->
    <title>files</title>
    <desc>Created with Sketch.</desc>
    <defs></defs>
    <g id="Page-1" stroke="none" stroke-width="1" fill="none" fill-rule="evenodd" sketch:type="MSPage">
        <g id="Bicons_v3-[Converted]" sketch:type="MSLayerGroup" transform="translate(-465.000000, -330.000000)" fill="#14171C">
            <g id="files" transform="translate(465.000000, 330.000000)" sketch:type="MSShapeGroup">
                <g id="Group" transform="translate(0.000000, 7.000000)">
                    <path d="M20.5,27 L4.5,27 C2.57614237,27 1,25.4238576 1,23.5 L1,4.5 C1,2.57614237 2.57614237,1 4.5,1 L14.1,1 C14.2500318,1 14.3271824,1.03428915 14.4464466,1.15355339 L23.8464466,10.5535534 C23.9657109,10.6728176 24,10.7499682 24,10.9 L24,23.5 C24,25.4238576 22.4238576,27 20.5,27 L20.5,27 Z M20.5,28 C22.9761424,28 25,25.9761424 25,23.5 L25,10.9 C25,10.4750318 24.8542891,10.1471824 24.5535534,9.84644661 L15.1535534,0.446446609 C14.8528176,0.145710854 14.5249682,0 14.1,0 L4.5,0 C2.02385763,0 0,2.02385763 0,4.5 L0,23.5 C0,25.9761424 2.02385763,28 4.5,28 L20.5,28 L20.5,28 Z" id="Shape"></path>
                    <path d="M14,1 L14,6.5 C14,8.97614237 16.0238576,11 18.5,11 L24,11 L24,10 L18.5,10 C16.5761424,10 15,8.42385763 15,6.5 L15,1 L14,1 L14,1 Z" id="Shape"></path>
                </g>
                <g id="Group" transform="translate(8.000000, 0.000000)">
                    <path d="M1,7.5 L1,4.5 C1,2.57614237 2.57614237,1 4.5,1 L14.1,1 C14.2500318,1 14.3271824,1.03428915 14.4464466,1.15355339 L23.8464466,10.5535534 C23.9657109,10.6728176 24,10.7499682 24,10.9 L24,23.5 C24,25.4238576 22.4238576,27 20.5,27 L16.5,27 L16.5,28 L20.5,28 C22.9761424,28 25,25.9761424 25,23.5 L25,10.9 C25,10.4750318 24.8542891,10.1471824 24.5535534,9.84644661 L15.1535534,0.446446609 C14.8528176,0.145710854 14.5249682,0 14.1,0 L4.5,0 C2.02385763,0 0,2.02385763 0,4.5 L0,7.5 L1,7.5 L1,7.5 Z" id="Shape"></path>
                    <path d="M14,1 L14,6.5 C14,8.97614237 16.0238576,11 18.5,11 L24,11 L24,10 L18.5,10 C16.5761424,10 15,8.42385763 15,6.5 L15,1 L14,1 L14,1 Z" id="Shape"></path>
                </g>
            </g>
        </g>
    </g>
</svg>