<?xml version="1.0" encoding="UTF-8" standalone="no"?>
<svg width="37px" height="37px" viewBox="0 0 37 37" version="1.1" xmlns="http://www.w3.org/2000/svg" xmlns:xlink="http://www.w3.org/1999/xlink" xmlns:sketch="http://www.bohemiancoding.com/sketch/ns">
    <!-- Generator: Sketch 3.4.4 (17249) - http://www.bohemiancoding.com/sketch -->
    <title>gear</title>
    <desc>Created with Sketch.</desc>
    <defs></defs>
    <g id="Page-1" stroke="none" stroke-width="1" fill="none" fill-rule="evenodd" sketch:type="MSPage">
        <g id="Bicons_v3-[Converted]" sketch:type="MSLayerGroup" transform="translate(0.000000, -65.000000)" fill="#14171C">
            <g id="gear" transform="translate(0.000000, 65.000000)" sketch:type="MSShapeGroup">
                <path d="M6.47891314,15.0436739 C6.72091445,14.2370029 6.96531387,13.634151 7.55690577,12.3030692 L7.55690577,12.3030692 L7.68274824,12.0199237 L7.48519716,11.7812161 L5.08519716,8.88121614 C4.62896338,8.27195117 4.65248464,7.35462214 5.15355339,6.85355339 L6.85355339,5.15355339 C7.39040731,4.61669947 8.29262598,4.57043185 8.8707477,5.07628835 L11.7812161,7.48519716 L12.0443016,7.70292303 L12.3428215,7.53707864 C13.318167,6.99522003 14.1406939,6.66176318 14.9980581,6.49029034 L15.3576847,6.41836501 L15.3971035,6.05374092 L15.7971035,2.35374092 C15.871479,1.61014785 16.5520285,1 17.3,1 L19.7,1 C20.4479715,1 21.128521,1.61014785 21.2024814,2.34975186 L21.6028965,6.05374092 L21.638555,6.38358181 L21.9563261,6.47891314 C22.7629971,6.72091445 23.365849,6.96531387 24.6969308,7.55690577 L24.6969308,7.55690577 L24.9800763,7.68274824 L25.2187839,7.48519716 L28.1187839,5.08519716 C28.7280488,4.62896338 29.6453779,4.65248464 30.1464466,5.15355339 L31.8464466,6.85355339 C32.3833005,7.39040731 32.4295682,8.29262598 31.9237117,8.8707477 L29.5148028,11.7812161 L29.297077,12.0443016 L29.4629214,12.3428215 C30.00478,13.318167 30.3382368,14.1406939 30.5097097,14.9980581 L30.581635,15.3576847 L30.9462591,15.3971035 L34.6462591,15.7971035 C35.3898521,15.871479 36,16.5520285 36,17.3 L36,19.7 C36,20.4479715 35.3898521,21.128521 34.6502481,21.2024814 L30.9462591,21.6028965 L30.6164182,21.638555 L30.5210869,21.9563261 C30.2790856,22.7629971 30.0346861,23.365849 29.4430942,24.6969308 L29.4430942,24.6969308 L29.3172518,24.9800763 L29.5148028,25.2187839 L31.9148028,28.1187839 C32.3710366,28.7280488 32.3475154,29.6453779 31.8464466,30.1464466 L30.1464466,31.8464466 C29.6095927,32.3833005 28.707374,32.4295682 28.1292523,31.9237117 L25.2187839,29.5148028 L24.9556984,29.297077 L24.6571785,29.4629214 C23.681833,30.00478 22.8593061,30.3382368 22.0019419,30.5097097 L21.6423153,30.581635 L21.6028965,30.9462591 L21.2028965,34.6462591 C21.128521,35.3898521 20.4479715,36 19.7,36 L17.3,36 C16.5520285,36 15.871479,35.3898521 15.7975186,34.6502481 L15.3971035,30.9462591 L15.361445,30.6164182 L15.0436739,30.5210869 C14.2370029,30.2790856 13.634151,30.0346861 12.3030692,29.4430942 L12.0199237,29.3172518 L11.7812161,29.5148028 L8.88121614,31.9148028 C8.27195117,32.3710366 7.35462214,32.3475154 6.85355339,31.8464466 L5.15355339,30.1464466 C4.61669947,29.6095927 4.57043185,28.707374 5.07628835,28.1292523 L7.48519716,25.2187839 L7.70292303,24.9556984 L7.53707864,24.6571785 C6.99522003,23.681833 6.66176318,22.8593061 6.49029034,22.0019419 L6.41836501,21.6423153 L6.05374092,21.6028965 L2.35374092,21.2028965 C1.61014785,21.128521 1,20.4479715 1,19.7 L1,17.3 C1,16.5520285 1.61014785,15.871479 2.34975186,15.7975186 L6.05374092,15.3971035 L6.38358181,15.361445 L6.47891314,15.0436739 L6.47891314,15.0436739 Z M5.52108686,14.7563261 L5.94625908,14.4028965 L2.24625908,14.8028965 C0.997427907,14.9277634 0,16.0402792 0,17.3 L0,19.7 C0,20.9597208 0.997427907,22.0722366 2.25024814,22.1975186 L5.94625908,22.5971035 L5.50970966,22.1980581 C5.70402629,23.1696412 6.07477997,24.084167 6.66292136,25.1428215 L6.71480284,24.5812161 L4.31480284,27.4812161 C3.46590033,28.4511035 3.54275999,29.9498668 4.44644661,30.8535534 L6.14644661,32.5535534 C7.01379891,33.4209057 8.4883794,33.4587154 9.5,32.7 L12.4187839,30.2851972 L11.8969308,30.3569058 C13.265849,30.9653139 13.8963304,31.2209144 14.7563261,31.4789131 L14.4028965,31.0537409 L14.8028965,34.7537409 C14.9277634,36.0025721 16.0402792,37 17.3,37 L19.7,37 C20.9597208,37 22.0722366,36.0025721 22.1975186,34.7497519 L22.5971035,31.0537409 L22.1980581,31.4902903 C23.1696412,31.2959737 24.084167,30.92522 25.1428215,30.3370786 L24.5812161,30.2851972 L27.4812161,32.6851972 C28.4511035,33.5340997 29.9498668,33.45724 30.8535534,32.5535534 L32.5535534,30.8535534 C33.4209057,29.9862011 33.4587154,28.5116206 32.7,27.5 L30.2851972,24.5812161 L30.3569058,25.1030692 L30.3569058,25.1030692 C30.9653139,23.734151 31.2209144,23.1036696 31.4789131,22.2436739 L31.0537409,22.5971035 L34.7537409,22.1971035 C36.0025721,22.0722366 37,20.9597208 37,19.7 L37,17.3 C37,16.0402792 36.0025721,14.9277634 34.7497519,14.8024814 L31.0537409,14.4028965 L31.4902903,14.8019419 C31.2959737,13.8303588 30.92522,12.915833 30.3370786,11.8571785 L30.2851972,12.4187839 L32.6851972,9.51878386 C33.5340997,8.54889651 33.45724,7.05013323 32.5535534,6.14644661 L30.8535534,4.44644661 C29.9862011,3.57909431 28.5116206,3.54128455 27.5,4.3 L24.5812161,6.71480284 L25.1030692,6.64309423 L25.1030692,6.64309423 C23.734151,6.03468613 23.1036696,5.77908555 22.2436739,5.52108686 L22.5971035,5.94625908 L22.1971035,2.24625908 C22.0722366,0.997427907 20.9597208,2.84217094e-14 19.7,2.84217094e-14 L17.3,2.84217094e-14 C16.0402792,2.84217094e-14 14.9277634,0.997427907 14.8024814,2.25024814 L14.4028965,5.94625908 L14.8019419,5.50970966 C13.8303588,5.70402629 12.915833,6.07477997 11.8571785,6.66292136 L12.4187839,6.71480284 L9.51878386,4.31480284 C8.54889651,3.46590033 7.05013323,3.54275999 6.14644661,4.44644661 L4.44644661,6.14644661 C3.57909431,7.01379891 3.54128455,8.4883794 4.3,9.5 L6.71480284,12.4187839 L6.64309423,11.8969308 L6.64309423,11.8969308 C6.03468613,13.265849 5.77908555,13.8963304 5.52108686,14.7563261 L5.52108686,14.7563261 Z" id="Shape"></path>
                <path d="M18.5,25 C22.0898509,25 25,22.0898509 25,18.5 C25,14.9101491 22.0898509,12 18.5,12 C14.9101491,12 12,14.9101491 12,18.5 C12,22.0898509 14.9101491,25 18.5,25 L18.5,25 Z M18.5,24 C15.4624339,24 13,21.5375661 13,18.5 C13,15.4624339 15.4624339,13 18.5,13 C21.5375661,13 24,15.4624339 24,18.5 C24,21.5375661 21.5375661,24 18.5,24 L18.5,24 Z" id="Shape"></path>
            </g>
        </g>
    </g>
</svg>