<?xml version="1.0" encoding="UTF-8" standalone="no"?>
<svg width="33px" height="33px" viewBox="0 0 33 33" version="1.1" xmlns="http://www.w3.org/2000/svg" xmlns:xlink="http://www.w3.org/1999/xlink" xmlns:sketch="http://www.bohemiancoding.com/sketch/ns">
    <!-- Generator: Sketch 3.4.4 (17249) - http://www.bohemiancoding.com/sketch -->
    <title>glass</title>
    <desc>Created with Sketch.</desc>
    <defs></defs>
    <g id="Page-1" stroke="none" stroke-width="1" fill="none" fill-rule="evenodd" sketch:type="MSPage">
        <g id="Bicons_v3-[Converted]" sketch:type="MSLayerGroup" transform="translate(-530.000000, -199.000000)" fill="#14171C">
            <g id="glass" transform="translate(530.000000, 199.000000)" sketch:type="MSShapeGroup">
                <path d="M14.5,29 C22.5081289,29 29,22.5081289 29,14.5 C29,6.49187113 22.5081289,0 14.5,0 C6.49187113,0 0,6.49187113 0,14.5 C0,22.5081289 6.49187113,29 14.5,29 L14.5,29 Z M14.5,28 C7.04415588,28 1,21.9558441 1,14.5 C1,7.04415588 7.04415588,1 14.5,1 C21.9558441,1 28,7.04415588 28,14.5 C28,21.9558441 21.9558441,28 14.5,28 L14.5,28 Z" id="Shape"></path>
                <path d="M32.8535534,32.1464466 L24.8535534,24.1464466 L24.1464466,24.8535534 L32.1464466,32.8535534 L32.8535534,32.1464466 L32.8535534,32.1464466 Z" id="Shape"></path>
            </g>
        </g>
    </g>
</svg>