<?xml version="1.0" encoding="UTF-8" standalone="no"?>
<svg width="35px" height="35px" viewBox="0 0 35 35" version="1.1" xmlns="http://www.w3.org/2000/svg" xmlns:xlink="http://www.w3.org/1999/xlink" xmlns:sketch="http://www.bohemiancoding.com/sketch/ns">
    <!-- Generator: Sketch 3.4.4 (17249) - http://www.bohemiancoding.com/sketch -->
    <title>globe</title>
    <desc>Created with Sketch.</desc>
    <defs></defs>
    <g id="Page-1" stroke="none" stroke-width="1" fill="none" fill-rule="evenodd" sketch:type="MSPage">
        <g id="Bicons_v3-[Converted]" sketch:type="MSLayerGroup" transform="translate(-463.000000, -463.000000)" fill="#14171C">
            <g id="globe" transform="translate(463.000000, 463.000000)" sketch:type="MSShapeGroup">
                <path d="M17.5,35 C27.1649831,35 35,27.1649831 35,17.5 C35,7.83501688 27.1649831,0 17.5,0 C7.83501688,0 0,7.83501688 0,17.5 C0,27.1649831 7.83501688,35 17.5,35 L17.5,35 Z M17.5,34 C8.38730163,34 1,26.6126984 1,17.5 C1,8.38730163 8.38730163,1 17.5,1 C26.6126984,1 34,8.38730163 34,17.5 C34,26.6126984 26.6126984,34 17.5,34 L17.5,34 Z" id="Shape"></path>
                <path d="M17.5,35 C22.8327347,35 27,27.1284988 27,17.5 C27,7.87150117 22.8327347,0 17.5,0 C12.1672653,0 8,7.87150117 8,17.5 C8,27.1284988 12.1672653,35 17.5,35 L17.5,35 Z M17.5,34 C12.8916092,34 9,26.6491827 9,17.5 C9,8.35081733 12.8916092,1 17.5,1 C22.1083908,1 26,8.35081733 26,17.5 C26,26.6491827 22.1083908,34 17.5,34 L17.5,34 Z" id="Shape"></path>
                <path d="M29.0775905,5.13247396 C27.2889361,7.95666513 22.4643954,10 17.5,10 C12.5356046,10 7.71106395,7.95666513 5.92240954,5.13247396 L5.07759046,5.66752604 C7.07366274,8.81921911 12.2227287,11 17.5,11 C22.7772713,11 27.9263373,8.81921911 29.9224095,5.66752604 L29.0775905,5.13247396 L29.0775905,5.13247396 Z" id="Shape"></path>
                <path d="M5.92240954,29.867526 C7.71106395,27.0433349 12.5356046,25 17.5,25 C22.4643954,25 27.2889361,27.0433349 29.0775905,29.867526 L29.9224095,29.332474 C27.9263373,26.1807809 22.7772713,24 17.5,24 C12.2227287,24 7.07366274,26.1807809 5.07759046,29.332474 L5.92240954,29.867526 L5.92240954,29.867526 Z" id="Shape"></path>
                <path d="M0.5,18 L34.5,18 L34.5,17 L0.5,17 L0.5,18 L0.5,18 Z" id="Shape"></path>
                <path d="M17,0.5 L17,34.5 L18,34.5 L18,0.5 L17,0.5 L17,0.5 Z" id="Shape"></path>
            </g>
        </g>
    </g>
</svg>