<?xml version="1.0" encoding="UTF-8" standalone="no"?>
<svg width="35px" height="35px" viewBox="0 0 35 35" version="1.1" xmlns="http://www.w3.org/2000/svg" xmlns:xlink="http://www.w3.org/1999/xlink" xmlns:sketch="http://www.bohemiancoding.com/sketch/ns">
    <!-- Generator: Sketch 3.4.4 (17249) - http://www.bohemiancoding.com/sketch -->
    <title>lifebuoy</title>
    <desc>Created with Sketch.</desc>
    <defs></defs>
    <g id="Page-1" stroke="none" stroke-width="1" fill="none" fill-rule="evenodd" sketch:type="MSPage">
        <g id="Bicons_v3-[Converted]" sketch:type="MSLayerGroup" transform="translate(-595.000000, -463.000000)" fill="#14171C">
            <g id="lifebuoy" transform="translate(595.000000, 463.000000)" sketch:type="MSShapeGroup">
                <path d="M3.14644661,8.15355339 L10.5464466,15.5535534 L11.2535534,14.8464466 L3.85355339,7.44644661 L3.14644661,8.15355339 L3.14644661,8.15355339 Z" id="Shape"></path>
                <path d="M23.7488599,20.2559503 L31.1488599,27.5559503 L31.8511401,26.8440497 L24.4511401,19.5440497 L23.7488599,20.2559503 L23.7488599,20.2559503 Z" id="Shape"></path>
                <path d="M19.4464466,24.4535534 L26.8464466,31.8535534 L27.5535534,31.1464466 L20.1535534,23.7464466 L19.4464466,24.4535534 L19.4464466,24.4535534 Z" id="Shape"></path>
                <path d="M15.5511401,10.5440497 L8.15114014,3.24404972 L7.44885986,3.95595028 L14.8488599,11.2559503 L15.5511401,10.5440497 L15.5511401,10.5440497 Z" id="Shape"></path>
                <path d="M17.5,35 C27.1649831,35 35,27.1649831 35,17.5 C35,7.83501688 27.1649831,0 17.5,0 C7.83501688,0 0,7.83501688 0,17.5 C0,27.1649831 7.83501688,35 17.5,35 L17.5,35 Z M17.5,34 C8.38730163,34 1,26.6126984 1,17.5 C1,8.38730163 8.38730163,1 17.5,1 C26.6126984,1 34,8.38730163 34,17.5 C34,26.6126984 26.6126984,34 17.5,34 L17.5,34 Z" id="Shape"></path>
                <path d="M17.5,25 C21.6421356,25 25,21.6421356 25,17.5 C25,13.3578644 21.6421356,10 17.5,10 C13.3578644,10 10,13.3578644 10,17.5 C10,21.6421356 13.3578644,25 17.5,25 L17.5,25 Z M17.5,24 C13.9101491,24 11,21.0898509 11,17.5 C11,13.9101491 13.9101491,11 17.5,11 C21.0898509,11 24,13.9101491 24,17.5 C24,21.0898509 21.0898509,24 17.5,24 L17.5,24 Z" id="Shape"></path>
                <path d="M8.15355339,31.8535534 L15.5535534,24.4535534 L14.8464466,23.7464466 L7.44644661,31.1464466 L8.15355339,31.8535534 L8.15355339,31.8535534 Z" id="Shape"></path>
                <path d="M20.1511401,11.2559503 L27.5511401,3.95595028 L26.8488599,3.24404972 L19.4488599,10.5440497 L20.1511401,11.2559503 L20.1511401,11.2559503 Z" id="Shape"></path>
                <path d="M24.4535534,15.5535534 L31.8535534,8.15355339 L31.1464466,7.44644661 L23.7464466,14.8464466 L24.4535534,15.5535534 L24.4535534,15.5535534 Z" id="Shape"></path>
                <path d="M10.5488599,19.5440497 L3.14885986,26.8440497 L3.85114014,27.5559503 L11.2511401,20.2559503 L10.5488599,19.5440497 L10.5488599,19.5440497 Z" id="Shape"></path>
            </g>
        </g>
    </g>
</svg>