<?xml version="1.0" encoding="UTF-8" standalone="no"?>
<svg width="37px" height="39px" viewBox="0 0 37 39" version="1.1" xmlns="http://www.w3.org/2000/svg" xmlns:xlink="http://www.w3.org/1999/xlink" xmlns:sketch="http://www.bohemiancoding.com/sketch/ns">
    <!-- Generator: Sketch 3.4.4 (17249) - http://www.bohemiancoding.com/sketch -->
    <title>map</title>
    <desc>Created with Sketch.</desc>
    <defs></defs>
    <g id="Page-1" stroke="none" stroke-width="1" fill="none" fill-rule="evenodd" sketch:type="MSPage">
        <g id="Bicons_v3-[Converted]" sketch:type="MSLayerGroup" transform="translate(-264.000000, -64.000000)" fill="#14171C">
            <g id="map" transform="translate(264.000000, 64.000000)" sketch:type="MSShapeGroup">
                <path d="M24.6923077,6.03846154 L12.6923077,1.03846154 L12.5,0.958333333 L12.3076923,1.03846154 L0.307692308,6.03846154 L0,6.16666667 L0,6.5 L0,37.5 L0,38.25 L0.692307692,37.9615385 L12.6923077,32.9615385 L12.3076923,32.9615385 L24.3076923,37.9615385 L24.5,38.0416667 L24.6923077,37.9615385 L36.6923077,32.9615385 L37,32.8333333 L37,32.5 L37,1.5 L37,0.75 L36.3076923,1.03846154 L24.3076923,6.03846154 L24.6923077,6.03846154 L24.6923077,6.03846154 Z M24.3076923,6.96153846 L24.5,7.04166667 L24.6923077,6.96153846 L36.6923077,1.96153846 L36,1.5 L36,32.5 L36.3076923,32.0384615 L24.3076923,37.0384615 L24.6923077,37.0384615 L12.6923077,32.0384615 L12.5,31.9583333 L12.3076923,32.0384615 L0.307692308,37.0384615 L1,37.5 L1,6.5 L0.692307692,6.96153846 L12.6923077,1.96153846 L12.3076923,1.96153846 L24.3076923,6.96153846 L24.3076923,6.96153846 Z" id="Shape"></path>
                <path d="M12,2.5 L12,32.5 L13,32.5 L13,2.5 L12,2.5 L12,2.5 Z" id="Shape"></path>
                <path d="M24,6.5 L24,36.5 L25,36.5 L25,6.5 L24,6.5 L24,6.5 Z" id="Shape"></path>
            </g>
        </g>
    </g>
</svg>