<?xml version="1.0" encoding="UTF-8" standalone="no"?>
<svg width="38px" height="35px" viewBox="0 0 38 35" version="1.1" xmlns="http://www.w3.org/2000/svg" xmlns:xlink="http://www.w3.org/1999/xlink" xmlns:sketch="http://www.bohemiancoding.com/sketch/ns">
    <!-- Generator: Sketch 3.4.4 (17249) - http://www.bohemiancoding.com/sketch -->
    <title>news</title>
    <desc>Created with Sketch.</desc>
    <defs></defs>
    <g id="Page-1" stroke="none" stroke-width="1" fill="none" fill-rule="evenodd" sketch:type="MSPage">
        <g id="Bicons_v3-[Converted]" sketch:type="MSLayerGroup" transform="translate(-66.000000, -397.000000)" fill="#14171C">
            <g id="news" transform="translate(66.000000, 397.000000)" sketch:type="MSShapeGroup">
                <path d="M6.5,7 L24.5,7 L24,6.5 L24,14.5 L24.5,14 L6.5,14 L7,14.5 L7,6.5 L6.5,7 L6.5,7 Z M6.5,6 L6,6 L6,6.5 L6,14.5 L6,15 L6.5,15 L24.5,15 L25,15 L25,14.5 L25,6.5 L25,6 L24.5,6 L6.5,6 L6.5,6 Z" id="Shape"></path>
                <path d="M5.5,20 L25.5,20 L25.5,19 L5.5,19 L5.5,20 L5.5,20 Z" id="Shape"></path>
                <path d="M5.5,25 L25.5,25 L25.5,24 L5.5,24 L5.5,25 L5.5,25 Z" id="Shape"></path>
                <path d="M5.5,30 L15.5,30 L15.5,29 L5.5,29 L5.5,30 L5.5,30 Z" id="Shape"></path>
                <path d="M30.5,10 L34.5,10 C35.9238576,10 37,11.0761424 37,12.5 L37,31 C37,32.6238576 35.6238576,34 34,34 C32.3761424,34 31,32.6238576 31,31 L31,3.5 C31,1.52385763 29.4761424,0 27.5,0 L3.5,0 C1.52385763,0 0,1.52385763 0,3.5 L0,31.5 C0,33.4761424 1.52385763,35 3.5,35 L33.5,35 L33.5,34 L3.5,34 C2.07614237,34 1,32.9238576 1,31.5 L1,3.5 C1,2.07614237 2.07614237,1 3.5,1 L27.5,1 C28.9238576,1 30,2.07614237 30,3.5 L30,31 C30,33.1761424 31.8238576,35 34,35 C36.1761424,35 38,33.1761424 38,31 L38,12.5 C38,10.5238576 36.4761424,9 34.5,9 L30.5,9 L30.5,10 L30.5,10 Z" id="Shape"></path>
            </g>
        </g>
    </g>
</svg>