<?xml version="1.0" encoding="UTF-8" standalone="no"?>
<svg width="35px" height="35px" viewBox="0 0 35 35" version="1.1" xmlns="http://www.w3.org/2000/svg" xmlns:xlink="http://www.w3.org/1999/xlink" xmlns:sketch="http://www.bohemiancoding.com/sketch/ns">
    <!-- Generator: Sketch 3.4.4 (17249) - http://www.bohemiancoding.com/sketch -->
    <title>person</title>
    <desc>Created with Sketch.</desc>
    <defs></defs>
    <g id="Page-1" stroke="none" stroke-width="1" fill="none" fill-rule="evenodd" sketch:type="MSPage">
        <g id="Bicons_v3-[Converted]" sketch:type="MSLayerGroup" transform="translate(-133.000000, -397.000000)" fill="#14171C">
            <g id="person" transform="translate(133.000000, 397.000000)" sketch:type="MSShapeGroup">
                <path d="M7.19319696,30.6821995 C7.75546857,27.3085698 9.99997225,24.4115942 13.1122169,22.9527295 L12.6877831,22.0472705 C9.28119486,23.6441088 6.82379069,26.8158746 6.20680304,30.5178005 L7.19319696,30.6821995 L7.19319696,30.6821995 Z" id="Shape"></path>
                <path d="M21.9076923,22.9615385 C22.9862228,23.4109262 24.0367346,24.1438413 24.9464466,25.0535534 C26.513974,26.6210808 27.5342705,28.5402099 27.9073941,30.6856706 L28.8926059,30.5143294 C28.4835756,28.1624054 27.3644043,26.0572976 25.6535534,24.3464466 C24.6555731,23.3484663 23.4979151,22.540798 22.2923077,22.0384615 L21.9076923,22.9615385 L21.9076923,22.9615385 Z" id="Shape"></path>
                <path d="M17.5,35 C27.1649831,35 35,27.1649831 35,17.5 C35,7.83501688 27.1649831,0 17.5,0 C7.83501688,0 0,7.83501688 0,17.5 C0,27.1649831 7.83501688,35 17.5,35 L17.5,35 Z M17.5,34 C8.38730163,34 1,26.6126984 1,17.5 C1,8.38730163 8.38730163,1 17.5,1 C26.6126984,1 34,8.38730163 34,17.5 C34,26.6126984 26.6126984,34 17.5,34 L17.5,34 Z" id="Shape"></path>
                <path d="M17.5,25 C21.6580887,25 25,21.1806728 25,16.5 C25,11.8193272 21.6580887,8 17.5,8 C13.3419113,8 10,11.8193272 10,16.5 C10,21.1806728 13.3419113,25 17.5,25 L17.5,25 Z M17.5,24 C13.9261022,24 11,20.6558832 11,16.5 C11,12.3441168 13.9261022,9 17.5,9 C21.0738978,9 24,12.3441168 24,16.5 C24,20.6558832 21.0738978,24 17.5,24 L17.5,24 Z" id="Shape"></path>
            </g>
        </g>
    </g>
</svg>