<?xml version="1.0" encoding="UTF-8" standalone="no"?>
<svg width="21px" height="35px" viewBox="0 0 21 35" version="1.1" xmlns="http://www.w3.org/2000/svg" xmlns:xlink="http://www.w3.org/1999/xlink" xmlns:sketch="http://www.bohemiancoding.com/sketch/ns">
    <!-- Generator: Sketch 3.4.4 (17249) - http://www.bohemiancoding.com/sketch -->
    <title>phone</title>
    <desc>Created with Sketch.</desc>
    <defs></defs>
    <g id="Page-1" stroke="none" stroke-width="1" fill="none" fill-rule="evenodd" sketch:type="MSPage">
        <g id="Bicons_v3-[Converted]" sketch:type="MSLayerGroup" transform="translate(-470.000000, -66.000000)" fill="#14171C">
            <g id="phone" transform="translate(470.000000, 66.000000)" sketch:type="MSShapeGroup">
                <path d="M16.5,34 L4.5,34 C2.57614237,34 1,32.4238576 1,30.5 L1,4.5 C1,2.57614237 2.57614237,1 4.5,1 L16.5,1 C18.4238576,1 20,2.57614237 20,4.5 L20,30.5 C20,32.4238576 18.4238576,34 16.5,34 L16.5,34 Z M16.5,35 C18.9761424,35 21,32.9761424 21,30.5 L21,4.5 C21,2.02385763 18.9761424,0 16.5,0 L4.5,0 C2.02385763,0 0,2.02385763 0,4.5 L0,30.5 C0,32.9761424 2.02385763,35 4.5,35 L16.5,35 L16.5,35 Z" id="Shape"></path>
                <path d="M10.5,32 C11.3284271,32 12,31.3284271 12,30.5 C12,29.6715729 11.3284271,29 10.5,29 C9.67157288,29 9,29.6715729 9,30.5 C9,31.3284271 9.67157288,32 10.5,32 L10.5,32 Z M10.5,31 C10.2238576,31 10,30.7761424 10,30.5 C10,30.2238576 10.2238576,30 10.5,30 C10.7761424,30 11,30.2238576 11,30.5 C11,30.7761424 10.7761424,31 10.5,31 L10.5,31 Z" id="Shape"></path>
                <path d="M8.5,4 L12.5,4 L12.5,3 L8.5,3 L8.5,4 L8.5,4 Z" id="Shape"></path>
            </g>
        </g>
    </g>
</svg>