<?xml version="1.0" encoding="UTF-8" standalone="no"?>
<svg width="33px" height="27px" viewBox="0 0 33 27" version="1.1" xmlns="http://www.w3.org/2000/svg" xmlns:xlink="http://www.w3.org/1999/xlink" xmlns:sketch="http://www.bohemiancoding.com/sketch/ns">
    <!-- Generator: Sketch 3.4.4 (17249) - http://www.bohemiancoding.com/sketch -->
    <title>settings</title>
    <desc>Created with Sketch.</desc>
    <defs></defs>
    <g id="Page-1" stroke="none" stroke-width="1" fill="none" fill-rule="evenodd" sketch:type="MSPage">
        <g id="Bicons_v3-[Converted]" sketch:type="MSLayerGroup" transform="translate(-464.000000, -136.000000)">
            <g id="settings" transform="translate(464.000000, 136.000000)" sketch:type="MSShapeGroup">
                <path d="M10.5,4 L32.5,4 L32.5,3 L10.5,3 L10.5,4 L10.5,4 Z" id="Shape" fill="#000000"></path>
                <path d="M0.5,4 L4.5,4 L4.5,3 L0.5,3 L0.5,4 L0.5,4 Z" id="Shape" fill="#000000"></path>
                <path d="M28.5,14 L32.5,14 L32.5,13 L28.5,13 L28.5,14 L28.5,14 Z" id="Shape" fill="#000000"></path>
                <path d="M0.5,14 L22.5,14 L22.5,13 L0.5,13 L0.5,14 L0.5,14 Z" id="Shape" fill="#000000"></path>
                <path d="M16.5,24 L32.5,24 L32.5,23 L16.5,23 L16.5,24 L16.5,24 Z" id="Shape" fill="#000000"></path>
                <path d="M0.5,24 L10.5,24 L10.5,23 L0.5,23 L0.5,24 L0.5,24 Z" id="Shape" fill="#000000"></path>
                <path d="M7.5,7 C9.43299662,7 11,5.43299662 11,3.5 C11,1.56700338 9.43299662,0 7.5,0 C5.56700338,0 4,1.56700338 4,3.5 C4,5.43299662 5.56700338,7 7.5,7 L7.5,7 Z M7.5,6 C6.11928813,6 5,4.88071187 5,3.5 C5,2.11928813 6.11928813,1 7.5,1 C8.88071187,1 10,2.11928813 10,3.5 C10,4.88071187 8.88071187,6 7.5,6 L7.5,6 Z" id="Shape" fill="#14171C"></path>
                <path d="M25.5,17 C27.4329966,17 29,15.4329966 29,13.5 C29,11.5670034 27.4329966,10 25.5,10 C23.5670034,10 22,11.5670034 22,13.5 C22,15.4329966 23.5670034,17 25.5,17 L25.5,17 Z M25.5,16 C24.1192881,16 23,14.8807119 23,13.5 C23,12.1192881 24.1192881,11 25.5,11 C26.8807119,11 28,12.1192881 28,13.5 C28,14.8807119 26.8807119,16 25.5,16 L25.5,16 Z" id="Shape" fill="#14171C"></path>
                <path d="M13.5,27 C15.4329966,27 17,25.4329966 17,23.5 C17,21.5670034 15.4329966,20 13.5,20 C11.5670034,20 10,21.5670034 10,23.5 C10,25.4329966 11.5670034,27 13.5,27 L13.5,27 Z M13.5,26 C12.1192881,26 11,24.8807119 11,23.5 C11,22.1192881 12.1192881,21 13.5,21 C14.8807119,21 16,22.1192881 16,23.5 C16,24.8807119 14.8807119,26 13.5,26 L13.5,26 Z" id="Shape" fill="#14171C"></path>
            </g>
        </g>
    </g>
</svg>