<?xml version="1.0" encoding="UTF-8" standalone="no"?>
<svg width="31px" height="36px" viewBox="0 0 31 36" version="1.1" xmlns="http://www.w3.org/2000/svg" xmlns:xlink="http://www.w3.org/1999/xlink" xmlns:sketch="http://www.bohemiancoding.com/sketch/ns">
    <!-- Generator: Sketch 3.4.4 (17249) - http://www.bohemiancoding.com/sketch -->
    <title>stopwatch</title>
    <desc>Created with Sketch.</desc>
    <defs></defs>
    <g id="Page-1" stroke="none" stroke-width="1" fill="none" fill-rule="evenodd" sketch:type="MSPage">
        <g id="Bicons_v3-[Converted]" sketch:type="MSLayerGroup" transform="translate(-136.000000, -263.000000)" fill="#14171C">
            <g id="stopwatch" transform="translate(136.000000, 263.000000)" sketch:type="MSShapeGroup">
                <path d="M14.5,36 C22.5081289,36 29,29.5081289 29,21.5 C29,13.4918711 22.5081289,7 14.5,7 C6.49187113,7 0,13.4918711 0,21.5 C0,29.5081289 6.49187113,36 14.5,36 L14.5,36 Z M14.5,35 C7.04415588,35 1,28.9558441 1,21.5 C1,14.0441559 7.04415588,8 14.5,8 C21.9558441,8 28,14.0441559 28,21.5 C28,28.9558441 21.9558441,35 14.5,35 L14.5,35 Z" id="Shape"></path>
                <path d="M12.5,1 L16.5,1 C16.8238576,1 17,1.17614237 17,1.5 L17,3.5 C17,3.82385763 16.8238576,4 16.5,4 L12.5,4 C12.1761424,4 12,3.82385763 12,3.5 L12,1.5 C12,1.17614237 12.1761424,1 12.5,1 L12.5,1 Z M12.5,0 C11.6238576,0 11,0.623857625 11,1.5 L11,3.5 C11,4.37614237 11.6238576,5 12.5,5 L16.5,5 C17.3761424,5 18,4.37614237 18,3.5 L18,1.5 C18,0.623857625 17.3761424,0 16.5,0 L12.5,0 L12.5,0 Z" id="Shape"></path>
                <path d="M14,4.5 L14,7.5 L15,7.5 L15,4.5 L14,4.5 L14,4.5 Z" id="Shape"></path>
                <path d="M25.4464466,6.25355339 L29.7464466,10.5535534 L30.4535534,9.84644661 L26.1535534,5.54644661 L25.4464466,6.25355339 L25.4464466,6.25355339 Z" id="Shape"></path>
                <path d="M27.5464466,7.74644661 L24.0464466,11.2464466 L24.7535534,11.9535534 L28.2535534,8.45355339 L27.5464466,7.74644661 L27.5464466,7.74644661 Z" id="Shape"></path>
                <path d="M15,21.5 L15,12.5 L14,12.5 L14,21.5 L15,21.5 L15,21.5 Z" id="Shape"></path>
                <circle id="Oval" cx="14.5" cy="21.5" r="2"></circle>
            </g>
        </g>
    </g>
</svg>