<?xml version="1.0" encoding="UTF-8" standalone="no"?>
<svg width="35px" height="36px" viewBox="0 0 35 36" version="1.1" xmlns="http://www.w3.org/2000/svg" xmlns:xlink="http://www.w3.org/1999/xlink" xmlns:sketch="http://www.bohemiancoding.com/sketch/ns">
    <!-- Generator: Sketch 3.4.4 (17249) - http://www.bohemiancoding.com/sketch -->
    <title>table-ok</title>
    <desc>Created with Sketch.</desc>
    <defs></defs>
    <g id="Page-1" stroke="none" stroke-width="1" fill="none" fill-rule="evenodd" sketch:type="MSPage">
        <g id="Bicons_v3-[Converted]" sketch:type="MSLayerGroup" transform="translate(-1.000000, -262.000000)">
            <g id="table-ok" transform="translate(1.000000, 262.000000)" sketch:type="MSShapeGroup">
                <path d="M30.5,35 L4.5,35 C2.57614237,35 1,33.4238576 1,31.5 L1,8.5 C1,6.57614237 2.57614237,5 4.5,5 L30.5,5 C32.4238576,5 34,6.57614237 34,8.5 L34,31.5 C34,33.4238576 32.4238576,35 30.5,35 L30.5,35 Z M30.5,36 C32.9761424,36 35,33.9761424 35,31.5 L35,8.5 C35,6.02385763 32.9761424,4 30.5,4 L4.5,4 C2.02385763,4 0,6.02385763 0,8.5 L0,31.5 C0,33.9761424 2.02385763,36 4.5,36 L30.5,36 L30.5,36 Z" id="Shape" fill="#14171C"></path>
                <path d="M0.5,13 L34.5,13 L34.5,12 L0.5,12 L0.5,13 L0.5,13 Z" id="Shape" fill="#14171C"></path>
                <path d="M8,0.5 L8,7.5 L9,7.5 L9,0.5 L8,0.5 L8,0.5 Z" id="Shape" fill="#000000"></path>
                <path d="M26,0.5 L26,7.5 L27,7.5 L27,0.5 L26,0.5 L26,0.5 Z" id="Shape" fill="#000000"></path>
                <path d="M11.1464466,23.8535534 L16.1464466,28.8535534 L16.5,29.2071068 L16.8535534,28.8535534 L26.8535534,18.8535534 L26.1464466,18.1464466 L16.1464466,28.1464466 L16.8535534,28.1464466 L11.8535534,23.1464466 L11.1464466,23.8535534 L11.1464466,23.8535534 Z" id="Shape" fill="#14171C"></path>
            </g>
        </g>
    </g>
</svg>