<?xml version="1.0" encoding="UTF-8" standalone="no"?>
<svg width="33px" height="29px" viewBox="0 0 33 29" version="1.1" xmlns="http://www.w3.org/2000/svg" xmlns:xlink="http://www.w3.org/1999/xlink" xmlns:sketch="http://www.bohemiancoding.com/sketch/ns">
    <!-- Generator: Sketch 3.4.4 (17249) - http://www.bohemiancoding.com/sketch -->
    <title>tag</title>
    <desc>Created with Sketch.</desc>
    <defs></defs>
    <g id="Page-1" stroke="none" stroke-width="1" fill="none" fill-rule="evenodd" sketch:type="MSPage">
        <g id="Bicons_v3-[Converted]" sketch:type="MSLayerGroup" transform="translate(-332.000000, -532.000000)" fill="#14171C">
            <g id="tag" transform="translate(332.000000, 532.000000)" sketch:type="MSShapeGroup">
                <path d="M14.9949747,28.5707107 L18.9949747,0.570710678 L18.0050253,0.429289322 L14.0050253,28.4292893 L14.9949747,28.5707107 L14.9949747,28.5707107 Z" id="Shape"></path>
                <path d="M8.82894868,4.16485687 L0.428948679,13.4648569 C-0.0410744349,14.0880992 -0.0410744349,14.9660323 0.446446609,15.4535534 L8.82894868,24.7351431 L9.57105132,24.0648569 L1.17105132,14.7648569 C1.04107443,14.6339677 1.04107443,14.3119008 1.2,14.1 L9.57105132,4.83514313 L8.82894868,4.16485687 L8.82894868,4.16485687 Z" id="Shape"></path>
                <path d="M24.1710513,24.8351431 L32.5710513,15.5351431 C33.0410744,14.9119008 33.0410744,14.0339677 32.5535534,13.5464466 L24.1710513,4.26485687 L23.4289487,4.93514313 L31.8289487,14.2351431 C31.9589256,14.3660323 31.9589256,14.6880992 31.8,14.9 L23.4289487,24.1648569 L24.1710513,24.8351431 L24.1710513,24.8351431 Z" id="Shape"></path>
            </g>
        </g>
    </g>
</svg>