<?xml version="1.0" encoding="UTF-8" standalone="no"?>
<svg width="35px" height="35px" viewBox="0 0 35 35" version="1.1" xmlns="http://www.w3.org/2000/svg" xmlns:xlink="http://www.w3.org/1999/xlink" xmlns:sketch="http://www.bohemiancoding.com/sketch/ns">
    <!-- Generator: Sketch 3.4.4 (17249) - http://www.bohemiancoding.com/sketch -->
    <title>text</title>
    <desc>Created with Sketch.</desc>
    <defs></defs>
    <g id="Page-1" stroke="none" stroke-width="1" fill="none" fill-rule="evenodd" sketch:type="MSPage">
        <g id="Bicons_v3-[Converted]" sketch:type="MSLayerGroup" transform="translate(-463.000000, -529.000000)" fill="#14171C">
            <g id="text" transform="translate(463.000000, 529.000000)" sketch:type="MSShapeGroup">
                <path d="M30.5,34 L4.5,34 C2.57614237,34 1,32.4238576 1,30.5 L1,4.5 C1,2.57614237 2.57614237,1 4.5,1 L30.5,1 C32.4238576,1 34,2.57614237 34,4.5 L34,30.5 C34,32.4238576 32.4238576,34 30.5,34 L30.5,34 Z M30.5,35 C32.9761424,35 35,32.9761424 35,30.5 L35,4.5 C35,2.02385763 32.9761424,0 30.5,0 L4.5,0 C2.02385763,0 0,2.02385763 0,4.5 L0,30.5 C0,32.9761424 2.02385763,35 4.5,35 L30.5,35 L30.5,35 Z" id="Shape"></path>
                <path d="M5.5,8 L29.5,8 L29.5,7 L5.5,7 L5.5,8 L5.5,8 Z" id="Shape"></path>
                <path d="M5.5,15 L29.5,15 L29.5,14 L5.5,14 L5.5,15 L5.5,15 Z" id="Shape"></path>
                <path d="M5.5,21 L29.5,21 L29.5,20 L5.5,20 L5.5,21 L5.5,21 Z" id="Shape"></path>
                <path d="M5.5,28 L29.5,28 L29.5,27 L5.5,27 L5.5,28 L5.5,28 Z" id="Shape"></path>
            </g>
        </g>
    </g>
</svg>