<?xml version="1.0" encoding="UTF-8" standalone="no"?>
<svg width="35px" height="35px" viewBox="0 0 35 35" version="1.1" xmlns="http://www.w3.org/2000/svg" xmlns:xlink="http://www.w3.org/1999/xlink" xmlns:sketch="http://www.bohemiancoding.com/sketch/ns">
    <!-- Generator: Sketch 3.4.4 (17249) - http://www.bohemiancoding.com/sketch -->
    <title>triggers</title>
    <desc>Created with Sketch.</desc>
    <defs></defs>
    <g id="Page-1" stroke="none" stroke-width="1" fill="none" fill-rule="evenodd" sketch:type="MSPage">
        <g id="Bicons_v3-[Converted]" sketch:type="MSLayerGroup" transform="translate(-529.000000, -463.000000)" fill="#14171C">
            <g id="triggers" transform="translate(529.000000, 463.000000)" sketch:type="MSShapeGroup">
                <path d="M7.5,14 C3.87614237,14 1,11.1238576 1,7.5 C1,3.87614237 3.87614237,1 7.5,1 L27.5,1 C31.1238576,1 34,3.87614237 34,7.5 C34,11.1238576 31.1238576,14 27.5,14 L7.5,14 L7.5,14 Z M7.5,15 L27.5,15 C31.6761424,15 35,11.6761424 35,7.5 C35,3.32385763 31.6761424,0 27.5,0 L7.5,0 C3.32385763,0 0,3.32385763 0,7.5 C0,11.6761424 3.32385763,15 7.5,15 L7.5,15 Z" id="Shape"></path>
                <path d="M7.5,1 C11.1238576,1 14,3.87614237 14,7.5 C14,11.1238576 11.1238576,14 7.5,14 L7.5,15 C11.6761424,15 15,11.6761424 15,7.5 C15,3.32385763 11.6761424,0 7.5,0 L7.5,1 L7.5,1 Z" id="Shape"></path>
                <path d="M27.5,21 C31.1238576,21 34,23.8761424 34,27.5 C34,31.1238576 31.1238576,34 27.5,34 L7.5,34 C3.87614237,34 1,31.1238576 1,27.5 C1,23.8761424 3.87614237,21 7.5,21 L27.5,21 L27.5,21 Z M27.5,20 L7.5,20 C3.32385763,20 0,23.3238576 0,27.5 C0,31.6761424 3.32385763,35 7.5,35 L27.5,35 C31.6761424,35 35,31.6761424 35,27.5 C35,23.3238576 31.6761424,20 27.5,20 L27.5,20 Z" id="Shape"></path>
                <path d="M27.5,34 C23.8761424,34 21,31.1238576 21,27.5 C21,23.8761424 23.8761424,21 27.5,21 L27.5,20 C23.3238576,20 20,23.3238576 20,27.5 C20,31.6761424 23.3238576,35 27.5,35 L27.5,34 L27.5,34 Z" id="Shape"></path>
            </g>
        </g>
    </g>
</svg>