<?xml version="1.0" encoding="UTF-8" standalone="no"?><svg width="327" height="324" viewBox="0 0 327 324" xmlns="http://www.w3.org/2000/svg" xmlns:xlink="http://www.w3.org/1999/xlink"><view id="alarm" viewBox="0 151 35 36"/><svg width="35" height="36" viewBox="0 0 35 36" y="151"><title>alarm</title><g stroke="#14171C" fill="none" fill-rule="evenodd"><circle cx="17.5" cy="17.5" r="15"/><path d="M17.5 8.5v9l6 4M26.5 30.5l4 5M8.5 30.5l-4 5M26 1.9l.9-.6c1.9-1.3 4.5-1 6.2.6 1.6 1.6 1.9 4.2.6 6.2l-.6.9M9 1.9l-.9-.6C6.2 0 3.6.3 1.9 1.9.3 3.5 0 6.1 1.3 8.1l.6.9"/></g></svg><view id="atom" viewBox="154 106 33 37"/><svg width="33" height="37" viewBox="0 0 33 37" x="154" y="106"><title>atom</title><g transform="translate(-3)" stroke="#14171C" fill="none" fill-rule="evenodd"><ellipse cx="19.4" cy="18.5" rx="6" ry="18"/><ellipse transform="rotate(-60 19.376 18.484)" cx="19.376" cy="18.484" rx="6" ry="18"/><ellipse transform="rotate(60 19.402 18.52)" cx="19.402" cy="18.52" rx="6" ry="18"/></g></svg><view id="balance" viewBox="0 43 39 35"/><svg width="39" height="35" viewBox="0 0 39 35" y="43"><title>balance</title><g stroke="#14171C" fill="none" fill-rule="evenodd"><path d="M19.5.5v33M12.5 34.5h14M2.5 12.5l32.5-9M6.5 28.5h-2c-2.2 0-4-1.8-4-4 0-.6.4-1 1-1h8c.6 0 1 .4 1 1 0 2.2-1.8 4-4 4z"/><path d="M1.5 23.5l4-12 4 12M34.5 21h-2c-2.2 0-4-1.8-4-4 0-.6.4-1 1-1h8c.6 0 1 .4 1 1 0 2.2-1.8 4-4 4zM29.5 16l4-12 4 12"/></g></svg><view id="book" viewBox="222 105 35 34"/><svg width="35" height="34" viewBox="0 0 35 34" x="222" y="105"><title>book</title><g stroke="#14171C" fill="none" fill-rule="evenodd"><path d="M17.5 4.5V30M17.5 4.5c0-2.2-1.8-4-4-4h-9c-2.2 0-4 1.8-4 4v20c0 2.2 1.8 4 4 4h9c2.2 0 4 1.8 4 4v1M17.5 4.5c0-2.2 1.8-4 4-4h9c2.2 0 4 1.8 4 4v20c0 2.2-1.8 4-4 4h-9c-2.2 0-4 1.8-4 4v1"/></g></svg><view id="bug" viewBox="68 222 35 34"/><svg width="35" height="34" viewBox="0 0 35 34" x="68" y="222"><title>bug</title><g stroke="#14171C" fill="none" fill-rule="evenodd"><ellipse cx="17.5" cy="19.5" rx="11" ry="14"/><path d="M.5 19.5h6M2.5 9.7l4.9 3.5M32.5 9.7l-4.9 3.5M2.5 29.3l4.9-3.5M32.5 29.3l-4.9-3.5M28.5 19.5h6M4.5.5c4.3 0 7.9 2.7 9 6M30.5.5c-4.3 0-7.9 2.7-9 6M7.5 13.5c6.7 5.3 13.3 5.3 20 0M17.5 17.5v16"/></g></svg><view id="calendar" viewBox="107 114 36 37"/><svg width="36" height="37" viewBox="0 0 36 37" x="107" y="114"><title>calendar</title><g fill="none" fill-rule="evenodd"><path d="M30.5 36.5h-26c-2.2 0-4-1.8-4-4v-24c0-2.2 1.8-4 4-4h26c2.2 0 4 1.8 4 4v24c0 2.2-1.8 4-4 4zM1.5 12.5h34" stroke="#14171C"/><path d="M8.5.5v7M26.5.5v7" stroke="#000"/><path d="M9.5 22.5h-4c-.6 0-1-.4-1-1v-4c0-.6.4-1 1-1h4c.6 0 1 .4 1 1v4c0 .6-.4 1-1 1zM19.5 22.5h-4c-.6 0-1-.4-1-1v-4c0-.6.4-1 1-1h4c.6 0 1 .4 1 1v4c0 .6-.4 1-1 1zM29.5 22.5h-4c-.6 0-1-.4-1-1v-4c0-.6.4-1 1-1h4c.6 0 1 .4 1 1v4c0 .6-.4 1-1 1zM9.5 32.5h-4c-.6 0-1-.4-1-1v-4c0-.6.4-1 1-1h4c.6 0 1 .4 1 1v4c0 .6-.4 1-1 1zM19.5 32.5h-4c-.6 0-1-.4-1-1v-4c0-.6.4-1 1-1h4c.6 0 1 .4 1 1v4c0 .6-.4 1-1 1zM29.5 32.5h-4c-.6 0-1-.4-1-1v-4c0-.6.4-1 1-1h4c.6 0 1 .4 1 1v4c0 .6-.4 1-1 1z" stroke="#14171C"/></g></svg><view id="camera" viewBox="257 105 35 25"/><svg width="35" height="25" viewBox="0 0 35 25" x="257" y="105"><title>camera</title><g stroke="#14171C" fill="none" fill-rule="evenodd"><path d="M20.5 24.5h-16c-2.2 0-4-1.8-4-4v-16c0-2.2 1.8-4 4-4h16c2.2 0 4 1.8 4 4v16c0 2.2-1.8 4-4 4zM24.5 15.5l8.4 5.9a1 1 0 0 0 1.6-.8V4.4c0-.8-.9-1.3-1.6-.8l-8.4 5.9v6z"/></g></svg><view id="case" viewBox="103 222 35 33"/><svg width="35" height="33" viewBox="0 0 35 33" x="103" y="222"><title>case</title><g stroke="#14171C" fill="none" fill-rule="evenodd"><path d="M30.5 32.5h-26c-2.2 0-4-1.8-4-4v-18c0-2.2 1.8-4 4-4h26c2.2 0 4 1.8 4 4v18c0 2.2-1.8 4-4 4zM24.5 6.5h-14v-3c0-1.7 1.3-3 3-3h8c1.7 0 3 1.3 3 3v3zM.5 18.5h13M21.5 18.5H34"/><path d="M20.5 21.5h-6c-.6 0-1-.4-1-1v-4c0-.6.4-1 1-1h6c.6 0 1 .4 1 1v4c0 .6-.4 1-1 1z"/></g></svg><view id="center-align" viewBox="72 187 33 31"/><svg width="33" height="31" viewBox="0 0 33 31" x="72" y="187"><title>center-align</title><g stroke="#14171C" fill="none" fill-rule="evenodd"><path d="M.5.5h32M5.5 10.5h22M.5 20.5h32M5.5 30.5h22"/></g></svg><view id="circle-minus" viewBox="188 257 35 35"/><svg width="35" height="35" viewBox="0 0 35 35" x="188" y="257"><title>circle-minus</title><g stroke="#14171C" fill="none" fill-rule="evenodd"><circle cx="17.5" cy="17.5" r="17"/><path d="M8.5 17.5h18"/></g></svg><view id="circle-no" viewBox="223 257 35 35"/><svg width="35" height="35" viewBox="0 0 35 35" x="223" y="257"><title>circle-no</title><g stroke="#14171C" fill="none" fill-rule="evenodd"><circle cx="17.5" cy="17.5" r="17"/><path d="M11.1 23.9l12.8-12.8M23.9 23.9L11.1 11.1"/></g></svg><view id="circle-ok" viewBox="292 0 35 35"/><svg width="35" height="35" viewBox="0 0 35 35" x="292"><title>circle-ok</title><g stroke="#14171C" fill="none" fill-rule="evenodd"><circle cx="17.5" cy="17.5" r="17"/><path d="M10.5 17.5l5 5 10-10"/></g></svg><view id="circle-plus" viewBox="292 97 35 35"/><svg width="35" height="35" viewBox="0 0 35 35" x="292" y="97"><title>circle-plus</title><g stroke="#14171C" fill="none" fill-rule="evenodd"><circle cx="17.5" cy="17.5" r="17"/><path d="M17.5 8.5v18M26.5 17.5h-18"/></g></svg><view id="cloud" viewBox="43 0 40 30"/><svg width="40" height="30" viewBox="0 0 40 30" x="43"><title>cloud</title><path d="M9 11.617C9.19 5.995 13.86 1.5 19.5 1.5c4.996 0 9.247 3.468 10.312 8.307l.072.33.332.056c4.514.768 7.884 4.705 7.884 9.307 0 5.224-4.276 9.5-9.5 9.5h-19a8.463 8.463 0 0 1-8.5-8.5c-.093-4.3 3.16-7.926 7.455-8.403l.43-.048.015-.433zm-1-.034l.445-.48C3.64 11.637-.005 15.698.1 20.51A9.46 9.46 0 0 0 9.6 30h19c5.776 0 10.5-4.724 10.5-10.5 0-5.093-3.725-9.443-8.716-10.293l.404.386A11.543 11.543 0 0 0 19.5.5C13.323.5 8.21 5.42 8 11.583z" fill="#14171C" fill-rule="evenodd"/></svg><view id="collapse" viewBox="292 193 33 33"/><svg width="33" height="33" viewBox="0 0 33 33" x="292" y="193"><title>collapse</title><g stroke="#14171C" fill="none" fill-rule="evenodd"><path d="M18.5.5h-14c-2.2 0-4 1.8-4 4v24c0 2.2 1.8 4 4 4h24c2.2 0 4-1.8 4-4v-14M31.5 1.5l-17 17"/><path d="M13.5 7.5v11c0 .6.4 1 1 1h11"/></g></svg><view id="comments" viewBox="0 78 38 36"/><svg width="38" height="36" viewBox="0 0 38 36" y="78"><title>comments</title><g stroke="#14171C" fill="none" fill-rule="evenodd"><path d="M30.7 33.7c1 1.1 2.4 1.8 3.9 1.8 1.1 0 2-.3 2.9-.8-1.6-.9-2.8-2.6-3.1-4.5 1.3-1.9 2-4.2 2-6.7 0-6.6-5.4-12-12-12s-12 5.4-12 12 5.4 12 12 12c2.4 0 4.5-.6 6.3-1.8zM9.5 22.1c-1-.3-1.9-.7-2.8-1.2-.9 1-2.2 1.6-3.6 1.6-1 0-1.9-.3-2.6-.8 1.5-.9 2.6-2.3 2.9-4.1-1.2-1.8-1.9-3.9-1.9-6.1 0-6.1 4.9-11 11-11 5.1 0 9.3 3.4 10.6 8.1"/></g></svg><view id="compass" viewBox="222 0 35 35"/><svg width="35" height="35" viewBox="0 0 35 35" x="222"><title>compass</title><g stroke="#14171C" fill="none" fill-rule="evenodd"><circle cx="17.5" cy="17.5" r="17"/><path d="M14 14L9.7 25.3 21 21l4.3-11.3L14 14z"/></g></svg><view id="crop" viewBox="0 114 37 37"/><svg width="37" height="37" viewBox="0 0 37 37" y="114"><title>crop</title><g stroke="#14171C" fill="none" fill-rule="evenodd"><path d="M36.5 28.5h-26c-1.1 0-2-.9-2-2V.5"/><path d="M.5 8.5h26c1.1 0 2 .9 2 2v26"/></g></svg><view id="desktop" viewBox="75 78 37 34"/><svg width="37" height="34" viewBox="0 0 37 34" x="75" y="78"><title>desktop</title><g stroke="#14171C" fill="none" fill-rule="evenodd"><path d="M32.5 26.5h-28c-2.2 0-4-1.8-4-4v-18c0-2.2 1.8-4 4-4h28c2.2 0 4 1.8 4 4v18c0 2.2-1.8 4-4 4zM22.5 33.5h-8l1-7h6l1 7zM11.5 33.5h14M.5 20.5h36"/></g></svg><view id="dot" viewBox="68 257 35 35"/><svg width="35" height="35" viewBox="0 0 35 35" x="68" y="257"><title>dot</title><g stroke="#14171C" fill="none" fill-rule="evenodd"><path d="M18.5 2.5h-14c-2.2 0-4 1.8-4 4v24c0 2.2 1.8 4 4 4h24c2.2 0 4-1.8 4-4v-14"/><circle cx="28.5" cy="6.5" r="6"/></g></svg><view id="edit" viewBox="117 0 37 38"/><svg width="37" height="38" viewBox="0 0 37 38" x="117"><title>edit</title><g transform="translate(0 1)" stroke="#14171C" fill="none" fill-rule="evenodd"><path d="M32.5 18.5v14c0 2.2-1.8 4-4 4h-24c-2.2 0-4-1.8-4-4v-24c0-2.2 1.8-4 4-4h14"/><path d="M22.2 19l-5.7 1.4 1.4-5.7L31.3 1.3c1.2-1.2 3.1-1.2 4.2 0 1.2 1.2 1.2 3.1 0 4.2L22.2 19zM29.9 2.8L34.2 7"/></g></svg><view id="eject" viewBox="292 132 33 34"/><svg width="33" height="34" viewBox="0 0 33 34" x="292" y="132"><title>eject</title><g stroke="#14171C" fill="none" fill-rule="evenodd"><path d="M26.5 30.5h2c2.2 0 4-1.8 4-4v-22c0-2.2-1.8-4-4-4h-24c-2.2 0-4 1.8-4 4v22c0 2.2 1.8 4 4 4h2"/><path d="M9.5 33.5l7-10 7 10h-14z"/></g></svg><view id="everlope" viewBox="257 188 35 29"/><svg width="35" height="29" viewBox="0 0 35 29" x="257" y="188"><title>everlope</title><g stroke="#14171C" fill="none" fill-rule="evenodd"><path d="M30.5 28.5h-26c-2.2 0-4-1.8-4-4v-20c0-2.2 1.8-4 4-4h26c2.2 0 4 1.8 4 4v20c0 2.2-1.8 4-4 4z"/><path d="M.5 4.5l17 10 17-10"/></g></svg><view id="exit" viewBox="154 0 37 36"/><svg width="37" height="36" viewBox="0 0 37 36" x="154"><title>exit</title><g fill="none" fill-rule="evenodd"><path d="M2 1l15.6 6.2c1.1.5 1.9 1.6 1.9 2.8v21.8c0 2.1-2 3.5-4 2.8l-13-4.4c-1.2-.4-2-1.6-2-2.8V3.5c0-1.7 1.3-3 3-3h20c1.7 0 3 1.3 3 3v23c0 1.7-1.3 3-3 3h-4" stroke="#14171C"/><circle fill="#14171C" cx="15" cy="20" r="1.8"/><path d="M32 11l4.5 4.5L32 20M36 15.5h-9" stroke="#14171C"/></g></svg><view id="expand" viewBox="257 153 35 35"/><svg width="35" height="35" viewBox="0 0 35 35" x="257" y="153"><title>expand</title><g stroke="#14171C" fill="none" fill-rule="evenodd"><path d="M18.5 2.5h-14c-2.2 0-4 1.8-4 4v24c0 2.2 1.8 4 4 4h24c2.2 0 4-1.8 4-4v-14M16.5 18.5l17-17M34.5 12.5v-11c0-.6-.4-1-1-1h-11"/></g></svg><view id="eye" viewBox="257 130 35 23"/><svg width="35" height="23" viewBox="0 0 35 23" x="257" y="130"><title>eye</title><g stroke="#14171C" fill="none" fill-rule="evenodd"><path d="M17.5.5C8.1.5.5 9.8.5 11.5c0 1.7 7.6 11 17 11s17-9.3 17-11c0-1.7-7.6-11-17-11z"/><circle cx="17.5" cy="11.5" r="6"/></g></svg><view id="file" viewBox="191 36 31 36"/><svg width="31" height="36" viewBox="0 0 31 36" x="191" y="36"><title>file</title><g stroke="#14171C" fill="none" fill-rule="evenodd"><path d="M26.5 35.5h-22c-2.2 0-4-1.8-4-4v-27c0-2.2 1.8-4 4-4h12.2c.5 0 1 .2 1.4.5l11.8 10.9c.4.4.6.9.6 1.5v18.1c0 2.2-1.8 4-4 4z"/><path d="M17.5.5v8c0 2.2 1.8 4 4 4H30"/></g></svg><view id="file-r" viewBox="191 72 31 35"/><svg width="31" height="35" viewBox="0 0 31 35" x="191" y="72"><title>file-r</title><g stroke="#14171C" fill="none" fill-rule="evenodd"><path d="M26.5.5h-22c-2.2 0-4 1.8-4 4v26c0 2.2 1.8 4 4 4h13.2c.5 0 1-.2 1.4-.5l10.8-9.9c.4-.4.6-.9.6-1.5V4.5c0-2.2-1.8-4-4-4z"/><path d="M18.5 34.5v-7c0-2.2 1.8-4 4-4H30M5.5 7.5h16M5.5 28.5h8M5.5 21.5h12M5.5 14.5h20"/></g></svg><view id="files" viewBox="222 70 33 35"/><svg width="33" height="35" viewBox="0 0 33 35" x="222" y="70"><title>files</title><g stroke="#14171C" fill="none" fill-rule="evenodd"><g transform="translate(0 7)"><path d="M20.5 27.5h-16c-2.2 0-4-1.8-4-4v-19c0-2.2 1.8-4 4-4h9.6c.3 0 .5.1.7.3l9.4 9.4c.2.2.3.4.3.7v12.6c0 2.2-1.8 4-4 4z"/><path d="M14.5 1v5.5c0 2.2 1.8 4 4 4H24"/></g><g transform="translate(8)"><path d="M.5 7.5v-3c0-2.2 1.8-4 4-4h9.6c.3 0 .5.1.7.3l9.4 9.4c.2.2.3.4.3.7v12.6c0 2.2-1.8 4-4 4h-4"/><path d="M14.5 1v5.5c0 2.2 1.8 4 4 4H24"/></g></g></svg><view id="film" viewBox="105 187 33 31"/><svg width="33" height="31" viewBox="0 0 33 31" x="105" y="187"><title>film</title><g stroke="#14171C" fill="none" fill-rule="evenodd"><path d="M29.5 30.5h-26c-1.7 0-3-1.3-3-3v-24c0-1.7 1.3-3 3-3h26c1.7 0 3 1.3 3 3v24c0 1.7-1.3 3-3 3zM8 15.5h17M7.5 30.5V.5M25.5 31V1"/><path d="M.5 12.5h7v6h-7zM.5 18.5h7v6h-7zM.5 6.5h7v6h-7zM25.5 12.5h7v6h-7zM25.5 18.5h7v6h-7zM25.5 6.5h7v6h-7z"/></g></svg><view id="filter" viewBox="103 257 29 35"/><svg width="29" height="35" viewBox="0 0 29 35" x="103" y="257"><title>filter</title><g transform="translate(1)" stroke="#14171C" fill="none" fill-rule="evenodd"><ellipse cx="13.5" cy="3.5" rx="13" ry="3"/><path d="M.5 3.5S0 9.3 3 14.5s7.5 7 7.5 7v13l6-4v-9s4.5-1.8 7.5-7 2.5-11 2.5-11"/></g></svg><view id="gear" viewBox="70 114 37 37"/><svg width="37" height="37" viewBox="0 0 37 37" x="70" y="114"><title>gear</title><g stroke="#14171C" fill="none" fill-rule="evenodd"><path d="M6 14.9c.3-1 .7-1.9 1.1-2.8L4.7 9.2c-.6-.8-.6-2 .1-2.7l1.7-1.7c.7-.7 1.9-.8 2.7-.1l2.9 2.4c.9-.5 1.8-.9 2.8-1.1l.4-3.7c.1-1 1-1.8 2-1.8h2.4c1 0 1.9.8 2 1.8l.4 3.7c1 .3 1.9.7 2.8 1.1l2.9-2.4c.8-.6 2-.6 2.7.1l1.7 1.7c.7.7.8 1.9.1 2.7l-2.4 2.9c.5.9.9 1.8 1.1 2.8l3.7.4c1 .1 1.8 1 1.8 2v2.4c0 1-.8 1.9-1.8 2l-3.7.4c-.3 1-.7 1.9-1.1 2.8l2.4 2.9c.6.8.6 2-.1 2.7l-1.7 1.7c-.7.7-1.9.8-2.7.1l-2.9-2.4c-.9.5-1.8.9-2.8 1.1l-.4 3.7c-.1 1-1 1.8-2 1.8h-2.4c-1 0-1.9-.8-2-1.8l-.4-3.7c-1-.3-1.9-.7-2.8-1.1l-2.9 2.4c-.8.6-2 .6-2.7-.1l-1.7-1.7c-.7-.7-.8-1.9-.1-2.7l2.4-2.9c-.5-.9-.9-1.8-1.1-2.8l-3.7-.4c-1-.1-1.8-1-1.8-2v-2.4c0-1 .8-1.9 1.8-2l3.7-.4z"/><circle cx="18.5" cy="18.5" r="6"/></g></svg><view id="glass" viewBox="292 226 33 33"/><svg width="33" height="33" viewBox="0 0 33 33" x="292" y="226"><title>glass</title><g stroke="#14171C" fill="none" fill-rule="evenodd"><circle cx="14.5" cy="14.5" r="14"/><path d="M32.5 32.5l-8-8"/></g></svg><view id="globe" viewBox="222 139 35 35"/><svg width="35" height="35" viewBox="0 0 35 35" x="222" y="139"><title>globe</title><g stroke="#14171C" fill="none" fill-rule="evenodd"><circle cx="17.5" cy="17.5" r="17"/><ellipse cx="17.5" cy="17.5" rx="9" ry="17"/><path d="M29.5 5.4c-1.9 3-6.9 5.1-12 5.1S7.4 8.4 5.5 5.4M5.5 29.6c1.9-3 6.9-5.1 12-5.1s10.1 2.1 12 5.1M.5 17.5h34M17.5.5v34"/></g></svg><view id="half" viewBox="222 174 35 35"/><svg width="35" height="35" viewBox="0 0 35 35" x="222" y="174"><title>half</title><g stroke="#14171C" fill="none" fill-rule="evenodd"><circle cx="17.5" cy="17.5" r="17"/><path d="M5.5 5.5l24 24"/></g></svg><view id="half-o" viewBox="0 222 35 35"/><svg width="35" height="35" viewBox="0 0 35 35" y="222"><title>half-o</title><g stroke="#14171C" fill="none" fill-rule="evenodd"><circle cx="17.5" cy="17.5" r="17"/><path d="M5.5 29.5l24-24"/></g></svg><view id="image" viewBox="138 222 33 33"/><svg width="33" height="33" viewBox="0 0 33 33" x="138" y="222"><title>image</title><g stroke="#14171C" fill="none" fill-rule="evenodd"><path d="M28.5.5c2.2 0 4 1.8 4 4v24c0 2.2-1.8 4-4 4h-24c-2.2 0-4-1.8-4-4v-24c0-2.2 1.8-4 4-4h24z"/><path d="M.5 24.5l9-10 11 10 6-5 6 5"/><circle cx="23.5" cy="9.5" r="4"/></g></svg><view id="justify" viewBox="171 222 33 31"/><svg width="33" height="31" viewBox="0 0 33 31" x="171" y="222"><title>justify</title><g stroke="#14171C" fill="none" fill-rule="evenodd"><path d="M.5.5h32M.5 10.5h32M.5 20.5h32M.5 30.5h32"/></g></svg><view id="lamp" viewBox="222 35 25 35"/><svg width="25" height="35" viewBox="0 0 25 35" x="222" y="35"><title>lamp</title><g stroke="#14171C" fill="none" fill-rule="evenodd"><path d="M16.5 23.8v6.7c0 2.2-1.8 4-4 4s-4-1.8-4-4v-6.7c-4.7-1.6-8-6.1-8-11.3 0-6.6 5.4-12 12-12s12 5.4 12 12c0 5.2-3.3 9.7-8 11.3zM12.5 25.5v-7M8.5 26.5h7M8.5 30.5h7M9.5 15.5l3 3M15.5 15.5l-3 3"/></g></svg><view id="leaf" viewBox="257 0 35 35"/><svg width="35" height="35" viewBox="0 0 35 35" x="257"><title>leaf</title><g stroke="#14171C" fill="none" fill-rule="evenodd"><path d="M33.5.5c.9.2 1 3 1 6 0 14-7.5 24-18.5 24-6.9 0-13-5.6-13-13 0-9.3 8.3-14 18.5-14 9.7 0 10.9-3.2 12-3zM16 17.5C9.5 21.8 3.1 29.1.5 34.5"/></g></svg><view id="left-align" viewBox="171 187 33 31"/><svg width="33" height="31" viewBox="0 0 33 31" x="171" y="187"><title>left-align</title><g stroke="#14171C" fill="none" fill-rule="evenodd"><path d="M.5.5h32M.5 10.5h22M.5 20.5h32M.5 30.5h22"/></g></svg><view id="lifebuoy" viewBox="257 70 35 35"/><svg width="35" height="35" viewBox="0 0 35 35" x="257" y="70"><title>lifebuoy</title><g stroke="#14171C" fill="none" fill-rule="evenodd"><path d="M3.5 7.8l7.4 7.4M24.1 19.9l7.4 7.3M19.8 24.1l7.4 7.4M15.2 10.9L7.8 3.6"/><circle cx="17.5" cy="17.5" r="17"/><circle cx="17.5" cy="17.5" r="7"/><path d="M7.8 31.5l7.4-7.4M19.8 10.9l7.4-7.3M24.1 15.2l7.4-7.4M10.9 19.9l-7.4 7.3"/></g></svg><view id="link" viewBox="204 222 31 31"/><svg width="31" height="31" viewBox="0 0 31 31" x="204" y="222"><title>link</title><g stroke="#14171C" fill="none" fill-rule="evenodd"><path d="M15.5 7l4.9-4.9c2-2 5.1-2 7.1 0l1.4 1.4c2 2 2 5.1 0 7.1l-7.8 7.8c-2 2-5.1 2-7.1 0L12.6 17"/><path d="M15.5 24l-4.9 4.9c-2 2-5.1 2-7.1 0l-1.4-1.4c-2-2-2-5.1 0-7.1l7.8-7.8c2-2 5.1-2 7.1 0l1.4 1.4"/></g></svg><view id="lock" viewBox="117 38 29 38"/><svg width="29" height="38" viewBox="0 0 29 38" x="117" y="38"><title>lock</title><g stroke="#14171C" fill="none" fill-rule="evenodd"><path d="M24.5 37.5h-20c-2.2 0-4-1.8-4-4v-13c0-2.2 1.8-4 4-4h20c2.2 0 4 1.8 4 4v13c0 2.2-1.8 4-4 4zM23.5 16.5h-18v-7c0-5 4-9 9-9s9 4 9 9v7z"/></g></svg><view id="map" viewBox="154 36 37 37"/><svg width="37" height="37" viewBox="0 0 37 37" x="154" y="36"><title>map</title><g stroke="#14171C" fill="none" fill-rule="evenodd"><path d="M24.5 5.5l-12-5-12 5v31l12-5 12 5 12-5V.5l-12 5zM12.5 1.5v30M24.5 5.5v30"/></g></svg><view id="map-marker" viewBox="70 151 35 36"/><svg width="35" height="36" viewBox="0 0 35 36" x="70" y="151"><title>map-marker</title><g stroke="#14171C" fill="none" fill-rule="evenodd"><path d="M17.5.5c7.2 0 13 5.8 13 13 0 1.9-.4 3.7-1.1 5.3-.6 1.3-1.4 2.6-2.4 3.6l-9.5 9.5L8 22.4c-1-1-1.8-2.3-2.4-3.6-.7-1.6-1.1-3.4-1.1-5.3 0-7.2 5.8-13 13-13z"/><path d="M3.5 25.5l-3 10h34l-3-10"/><circle cx="17.5" cy="13.5" r="5"/></g></svg><view id="marker" viewBox="257 217 29 35"/><svg width="29" height="35" viewBox="0 0 29 35" x="257" y="217"><title>marker</title><g stroke="#14171C" fill="none" fill-rule="evenodd"><circle cx="14.5" cy="14.6" r="5"/><path d="M14.5.6c7.7 0 14 6.3 14 14 0 2-.4 3.9-1.2 5.7-.6 1.4-1.5 2.8-2.6 3.9L14.5 34.4 4.3 24.2c-1.1-1.1-1.9-2.4-2.6-3.9C.9 18.6.5 16.6.5 14.6c0-7.7 6.3-14 14-14z"/></g></svg><view id="music" viewBox="0 292 24 32"/><svg width="24" height="32" viewBox="0 0 24 32" y="292"><title>music</title><g stroke="#14171C" fill="none" fill-rule="evenodd"><circle cx="5.5" cy="26.5" r="5"/><path d="M10.5 7.5l11.8 1.8c.6.1 1.2-.4 1.2-1v-5c0-.5-.4-.9-.8-1L11.7.6c-.6-.1-1.2.4-1.2 1v24.8"/></g></svg><view id="music-double" viewBox="0 257 33 35"/><svg width="33" height="35" viewBox="0 0 33 35" y="257"><title>music-double</title><g stroke="#14171C" fill="none" fill-rule="evenodd"><circle cx="5.5" cy="29.5" r="5"/><path d="M10.5 29.5V5.2c0-1 .7-1.8 1.7-2l18-2.5c1.2-.2 2.3.8 2.3 2v23.7M10.5 10.5l22-3"/><circle cx="27.5" cy="26.5" r="5"/></g></svg><view id="news" viewBox="39 43 38 35"/><svg width="38" height="35" viewBox="0 0 38 35" x="39" y="43"><title>news</title><g stroke="#14171C" fill="none" fill-rule="evenodd"><path d="M6.5 6.5h18v8h-18zM5.5 19.5h20M5.5 24.5h20M5.5 29.5h10"/><path d="M30.5 9.5h4c1.7 0 3 1.3 3 3V31c0 1.9-1.6 3.5-3.5 3.5s-3.5-1.6-3.5-3.5V3.5c0-1.7-1.3-3-3-3h-24c-1.7 0-3 1.3-3 3v28c0 1.7 1.3 3 3 3h30"/></g></svg><view id="nut" viewBox="37 114 33 37"/><svg width="33" height="37" viewBox="0 0 33 37" x="37" y="114"><title>nut</title><g stroke="#14171C" fill="none" fill-rule="evenodd"><circle cx="16.5" cy="18.5" r="7"/><path d="M2.5 8.1l12-6.9c1.2-.7 2.8-.7 4 0l12 6.9c1.2.7 2 2 2 3.5v13.9c0 1.4-.8 2.7-2 3.5l-12 6.9c-1.2.7-2.8.7-4 0L2.5 29c-1.2-.7-2-2-2-3.5V11.6c0-1.5.8-2.8 2-3.5z"/></g></svg><view id="off" viewBox="191 107 31 35"/><svg width="31" height="35" viewBox="0 0 31 35" x="191" y="107"><title>off</title><g stroke="#14171C" fill="none" fill-rule="evenodd"><path d="M15.5.5v17.9M24.1 6.3c3.9 2.7 6.4 7.2 6.4 12.3 0 8.3-6.7 15-15 15s-15-6.7-15-15C.5 13.5 3.1 9 6.9 6.3"/></g></svg><view id="pencil" viewBox="258 257 31 32"/><svg width="31" height="32" viewBox="0 0 31 32" x="258" y="257"><title>pencil</title><g transform="translate(0 1)" stroke="#14171C" fill="none" fill-rule="evenodd"><path d="M10.4 27.7L.5 30.5l2.8-9.9L22.4 1.5c1.4-1.4 3.6-1.4 4.9 0l2.1 2.1c1.4 1.4 1.4 3.6 0 4.9l-19 19.2zM26.7 11.4l-7.1-7"/></g></svg><view id="pencil-adv" viewBox="83 0 34 38"/><svg width="34" height="38" viewBox="0 0 34 38" x="83"><title>pencil-adv</title><g transform="translate(0 1)" stroke="#14171C" fill="none" fill-rule="evenodd"><path d="M.5 36.5h32"/><g transform="translate(3)"><path d="M10.4 27.7L.5 30.5l2.8-9.9L22.4 1.5c1.4-1.4 3.6-1.4 4.9 0l2.1 2.1c1.4 1.4 1.4 3.6 0 4.9l-19 19.2zM26.6 11.4l-7-7"/></g></g></svg><view id="person" viewBox="132 257 35 35"/><svg width="35" height="35" viewBox="0 0 35 35" x="132" y="257"><title>person</title><g stroke="#14171C" fill="none" fill-rule="evenodd"><path d="M6.7 30.6c.6-3.6 3-6.6 6.2-8.1M22.1 22.5c1.2.5 2.3 1.3 3.2 2.2 1.6 1.6 2.7 3.6 3.1 5.9"/><circle cx="17.5" cy="17.5" r="17"/><ellipse cx="17.5" cy="16.5" rx="7" ry="8"/></g></svg><view id="phone" viewBox="167 257 21 35"/><svg width="21" height="35" viewBox="0 0 21 35" x="167" y="257"><title>phone</title><g stroke="#14171C" fill="none" fill-rule="evenodd"><path d="M16.5 34.5h-12c-2.2 0-4-1.8-4-4v-26c0-2.2 1.8-4 4-4h12c2.2 0 4 1.8 4 4v26c0 2.2-1.8 4-4 4z"/><circle cx="10.5" cy="30.5" r="1"/><path d="M8.5 3.5h4"/></g></svg><view id="photo" viewBox="154 73 37 33"/><svg width="37" height="33" viewBox="0 0 37 33" x="154" y="73"><title>photo</title><g fill="#14171C" fill-rule="evenodd"><path d="M32.5 32h-28A3.512 3.512 0 0 1 1 28.5v-18C1 8.576 2.576 7 4.5 7H9.863l.112-.345 1.5-4.6C11.715 1.42 12.26 1 12.9 1H24c.64 0 1.186.42 1.432 1.076l1.493 4.58.112.344H32.4c1.924 0 3.5 1.576 3.5 3.5v18c.087 1.92-1.466 3.5-3.4 3.5zm0 1c2.497 0 4.512-2.05 4.4-4.523V10.5c0-2.476-2.024-4.5-4.5-4.5h-5l.475.345-1.5-4.6C25.982.695 25.08 0 24 0H12.9c-1.08 0-1.982.695-2.368 1.724l-1.507 4.62L9.5 6h-5A4.512 4.512 0 0 0 0 10.5v18C0 30.976 2.024 33 4.5 33h28z"/><path d="M18.5 28a9.5 9.5 0 1 0 0-19 9.5 9.5 0 0 0 0 19zm0-1a8.5 8.5 0 1 1 0-17 8.5 8.5 0 0 1 0 17z"/></g></svg><view id="right-align" viewBox="138 187 33 31"/><svg width="33" height="31" viewBox="0 0 33 31" x="138" y="187"><title>right-align</title><g stroke="#14171C" fill="none" fill-rule="evenodd"><path d="M32.5.5H.5M32.5 10.5h-22M32.5 20.5H.5M32.5 30.5h-22"/></g></svg><view id="rule" viewBox="222 209 35 13"/><svg width="35" height="13" viewBox="0 0 35 13" x="222" y="209"><title>rule</title><g stroke="#14171C" fill="none" fill-rule="evenodd"><path d="M33.5 12.5h-32c-.6 0-1-.4-1-1v-10c0-.6.4-1 1-1h32c.6 0 1 .4 1 1v10c0 .6-.4 1-1 1zM4.5.5v6M17.5.5v6M30.5.5v6M10.5 1.5v3M23.5 1.5v3"/></g></svg><view id="settings" viewBox="292 166 33 27"/><svg width="33" height="27" viewBox="0 0 33 27" x="292" y="166"><title>settings</title><g fill="none" fill-rule="evenodd"><path d="M10.5 3.5h22M.5 3.5h4M28.5 13.5h4M.5 13.5h22M16.5 23.5h16M.5 23.5h10" stroke="#000"/><circle stroke="#14171C" cx="7.5" cy="3.5" r="3"/><circle stroke="#14171C" cx="25.5" cy="13.5" r="3"/><circle stroke="#14171C" cx="13.5" cy="23.5" r="3"/></g></svg><view id="share" viewBox="292 35 35 35"/><svg width="35" height="35" viewBox="0 0 35 35" x="292" y="35"><title>share</title><g stroke="#14171C" fill="none" fill-rule="evenodd"><circle cx="6.5" cy="17.5" r="6"/><circle cx="28.5" cy="6.5" r="6"/><circle cx="28.5" cy="28.5" r="6"/><path d="M12.5 20.5l10 5M22.5 9.5l-10 5"/></g></svg><view id="speed" viewBox="292 70 35 27"/><svg width="35" height="27" viewBox="0 0 35 27" x="292" y="70"><title>speed</title><g stroke="#14171C" fill="none" fill-rule="evenodd"><path d="M16 20l-4.5-8.5"/><circle cx="17.5" cy="22.5" r="3"/><path d="M.5 17.5h4M34.5 17.5h-4M32.2 9l-3.4 2M26 2.8l-2 3.4M17.5.5v4M9 2.8l2 3.4M2.8 9l3.4 2M27.9 23.5l4.3 2.5c1.5-2.5 2.3-5.4 2.3-8.5 0-9.4-7.6-17-17-17s-17 7.6-17 17c0 3.1.8 6 2.3 8.5l4.3-2.5"/></g></svg><view id="stopwatch" viewBox="191 0 31 36"/><svg width="31" height="36" viewBox="0 0 31 36" x="191"><title>stopwatch</title><g fill="none" fill-rule="evenodd"><circle stroke="#14171C" cx="14.5" cy="21.5" r="14"/><path d="M12.5.5h4c.6 0 1 .4 1 1v2c0 .6-.4 1-1 1h-4c-.6 0-1-.4-1-1v-2c0-.6.4-1 1-1zM14.5 4.5v3M25.8 5.9l4.3 4.3M27.9 8.1l-3.5 3.5M14.5 21.5v-9" stroke="#14171C"/><circle fill="#14171C" cx="14.5" cy="21.5" r="2"/></g></svg><view id="table" viewBox="140 151 36 36"/><svg width="36" height="36" viewBox="0 0 36 36" x="140" y="151"><title>table</title><g fill="none" fill-rule="evenodd"><path d="M30.5 35.5h-26c-2.2 0-4-1.8-4-4v-23c0-2.2 1.8-4 4-4h26c2.2 0 4 1.8 4 4v23c0 2.2-1.8 4-4 4zM1.5 12.5h34" stroke="#14171C"/><path d="M8.5.5v7M26.5.5v7" stroke="#000"/></g></svg><view id="table-no" viewBox="105 151 35 36"/><svg width="35" height="36" viewBox="0 0 35 36" x="105" y="151"><title>table-no</title><g fill="none" fill-rule="evenodd"><path d="M11.5 17.5l12 12M23.5 17.5l-12 12M30.5 35.5h-26c-2.2 0-4-1.8-4-4v-23c0-2.2 1.8-4 4-4h26c2.2 0 4 1.8 4 4v23c0 2.2-1.8 4-4 4zM.5 12.5h34" stroke="#14171C"/><path d="M8.5.5v7M26.5.5v7" stroke="#000"/></g></svg><view id="table-ok" viewBox="35 151 35 36"/><svg width="35" height="36" viewBox="0 0 35 36" x="35" y="151"><title>table-ok</title><g fill="none" fill-rule="evenodd"><path d="M30.5 35.5h-26c-2.2 0-4-1.8-4-4v-23c0-2.2 1.8-4 4-4h26c2.2 0 4 1.8 4 4v23c0 2.2-1.8 4-4 4zM.5 12.5h34" stroke="#14171C"/><path d="M8.5.5v7M26.5.5v7" stroke="#000"/><path d="M11.5 23.5l5 5 10-10" stroke="#14171C"/></g></svg><view id="tablet" viewBox="191 142 27 35"/><svg width="27" height="35" viewBox="0 0 27 35" x="191" y="142"><title>tablet</title><g stroke="#14171C" fill="none" fill-rule="evenodd"><path d="M22.5 34.5h-18c-2.2 0-4-1.8-4-4v-26c0-2.2 1.8-4 4-4h18c2.2 0 4 1.8 4 4v26c0 2.2-1.8 4-4 4z"/><circle cx="13.5" cy="30.5" r="1"/><path d="M11.5 3.5h4"/></g></svg><view id="tag" viewBox="292 259 33 29"/><svg width="33" height="29" viewBox="0 0 33 29" x="292" y="259"><title>tag</title><g stroke="#14171C" fill="none" fill-rule="evenodd"><path d="M14.5 28.5l4-28M9.2 4.5L.8 13.8c-.3.4-.3 1 0 1.3l8.4 9.3M23.8 24.5l8.4-9.3c.3-.4.3-1 0-1.3l-8.4-9.3"/></g></svg><view id="target" viewBox="0 0 43 43"/><svg width="43" height="43" viewBox="0 0 43 43"><title>target</title><g stroke="#14171C" fill="none" fill-rule="evenodd"><circle cx="21.5" cy="21.5" r="7"/><circle cx="21.5" cy="21.5" r="14"/><path d="M21.5.5v7M35.5 21.5h7M21.5 42.5v-7M7.5 21.5h-7"/></g></svg><view id="text" viewBox="33 257 35 35"/><svg width="35" height="35" viewBox="0 0 35 35" x="33" y="257"><title>text</title><g stroke="#14171C" fill="none" fill-rule="evenodd"><path d="M30.5 34.5h-26c-2.2 0-4-1.8-4-4v-26c0-2.2 1.8-4 4-4h26c2.2 0 4 1.8 4 4v26c0 2.2-1.8 4-4 4zM5.5 7.5h24M5.5 14.5h24M5.5 20.5h24M5.5 27.5h24"/></g></svg><view id="trash" viewBox="38 78 37 35"/><svg width="37" height="35" viewBox="0 0 37 35" x="38" y="78"><title>trash</title><g stroke="#14171C" fill="none" fill-rule="evenodd"><path d="M31.5 5.5v25c0 2.2-1.8 4-4 4h-18c-2.2 0-4-1.8-4-4v-25M.5 5.5h36M24.5 5.5h-12v-3c0-1.1.9-2 2-2h8c1.1 0 2 .9 2 2v3zM18.5 10.5v19M24.5 10.5v19M12.5 10.5v19"/></g></svg><view id="trash-o" viewBox="117 76 37 35"/><svg width="37" height="35" viewBox="0 0 37 35" x="117" y="76"><title>trash-o</title><g stroke="#14171C" fill="none" fill-rule="evenodd"><path d="M31.5 5.5v25c0 2.2-1.8 4-4 4h-18c-2.2 0-4-1.8-4-4v-25M.5 5.5h36M24.5 5.5h-12v-3c0-1.1.9-2 2-2h8c1.1 0 2 .9 2 2v3z"/></g></svg><view id="triggers" viewBox="257 35 35 35"/><svg width="35" height="35" viewBox="0 0 35 35" x="257" y="35"><title>triggers</title><g stroke="#14171C" fill="none" fill-rule="evenodd"><path d="M7.5 14.5c-3.9 0-7-3.1-7-7s3.1-7 7-7h20c3.9 0 7 3.1 7 7s-3.1 7-7 7h-20z"/><path d="M7.5.5c3.9 0 7 3.1 7 7s-3.1 7-7 7M27.5 20.5c3.9 0 7 3.1 7 7s-3.1 7-7 7h-20c-3.9 0-7-3.1-7-7s3.1-7 7-7h20z"/><path d="M27.5 34.5c-3.9 0-7-3.1-7-7s3.1-7 7-7"/></g></svg><view id="unlock" viewBox="83 38 29 38"/><svg width="29" height="38" viewBox="0 0 29 38" x="83" y="38"><title>unlock</title><g stroke="#14171C" fill="none" fill-rule="evenodd"><path d="M24.5 37.5h-20c-2.2 0-4-1.8-4-4v-13c0-2.2 1.8-4 4-4h20c2.2 0 4 1.8 4 4v13c0 2.2-1.8 4-4 4zM5.5 16.5v-7c0-5 4-9 9-9s9 4 9 9v1"/></g></svg><view id="volume-max" viewBox="35 222 33 35"/><svg width="33" height="35" viewBox="0 0 33 35" x="35" y="222"><title>volume-max</title><g stroke="#14171C" fill="none" fill-rule="evenodd"><path d="M19.5 1.8v31.4c0 .9-1 1.3-1.7.7L8.1 25c-.4-.3-.9-.5-1.4-.5H3.5c-1.7 0-3-1.3-3-3v-8c0-1.7 1.3-3 3-3h3.2c.5 0 1-.2 1.4-.5l9.7-8.9c.6-.6 1.7-.2 1.7.7zM23.4 9.5c4 4.6 4 11.4 0 16M27.4 4.5c6.8 7.3 6.8 18.6 0 25.9"/></g></svg><view id="volume-min" viewBox="0 187 36 35"/><svg width="36" height="35" viewBox="0 0 36 35" y="187"><title>volume-min</title><g transform="translate(1)" stroke="#14171C" fill="none" fill-rule="evenodd"><path d="M19.5 1.8v31.5c0 .9-1 1.3-1.7.7L8 25.1c-.4-.3-.9-.5-1.4-.5H3.4c-1.7 0-3-1.3-3-3v-8c0-1.7 1.3-3 3-3h3.2c.5 0 1-.2 1.4-.5l9.8-8.9c.7-.8 1.7-.3 1.7.6zM24.5 12.5l10 10M34.5 12.5l-10 10"/></g></svg><view id="warning" viewBox="36 187 36 31"/><svg width="36" height="31" viewBox="0 0 36 31" x="36" y="187"><title>warning</title><g transform="translate(1)" fill="none" fill-rule="evenodd"><path d="M.7 27.5l15-26c.8-1.3 2.7-1.3 3.5 0l15 26c.8 1.3-.2 3-1.7 3h-30c-1.6 0-2.5-1.7-1.8-3zM17.5 9.5v13" stroke="#14171C"/><circle fill="#14171C" cx="17.5" cy="25.5" r="1.5"/></g></svg></svg>