<?xml version="1.0" standalone="no"?>
<!DOCTYPE svg PUBLIC "-//W3C//DTD SVG 1.1//EN" "http://www.w3.org/Graphics/SVG/1.1/DTD/svg11.dtd" >
<svg xmlns="http://www.w3.org/2000/svg">
<metadata>Generated by IcoMoon</metadata>
<defs>
<font id="icomoon" horiz-adv-x="1024">
<font-face units-per-em="1024" ascent="960" descent="-64" />
<missing-glyph horiz-adv-x="1024" />
<glyph unicode="&#x20;" horiz-adv-x="512" d="" />
<glyph unicode="&#xe900;" glyph-name="alarm" d="M512 21.333c243.496 0 440.889 197.393 440.889 440.889s-197.393 440.889-440.889 440.889c-243.496 0-440.889-197.393-440.889-440.889s197.393-440.889 440.889-440.889v0zM512 49.778c-227.787 0-412.444 184.658-412.444 412.444s184.658 412.444 412.444 412.444c227.787 0 412.444-184.658 412.444-412.444s-184.658-412.444-412.444-412.444v0zM497.778 718.222v-263.612l177-118 15.778 23.667-170.667 113.778 6.333-11.834v256h-28.444zM756.894 83.56l113.778-142.222 22.211 17.769-113.778 142.222-22.211-17.769zM244.894 101.329l-113.778-142.222 22.211-17.769 113.778 142.222-22.211 17.769zM761.667 894.122l25.6 17.067c47.932 32.795 114.55 25.981 158.719-15.59 40.981-40.99 47.796-107.623 14.89-158.248l-16.976-25.462 23.667-15.778 17.067 25.6c40.302 62.002 31.968 143.489-18.844 194.301-54.007 50.839-135.378 59.161-194.443 18.748l-25.458-16.971 15.778-23.667zM278.111 917.789l-25.6 17.067c-58.924 40.317-140.294 31.995-193.992-18.544-51.121-51.112-59.455-132.599-19.244-194.463l17.158-25.738 23.667 15.778-17.067 25.6c-32.815 50.487-26.001 117.119 15.29 158.41 43.86 41.271 110.478 48.084 158.268 15.386l25.742-17.163 15.778 23.667z" />
<glyph unicode="&#xe901;" glyph-name="atom" d="M509.232-64c103.47 0 179.892 229.266 179.892 512s-76.422 512-179.892 512c-103.47 0-179.892-229.266-179.892-512s76.422-512 179.892-512v0zM509.232-36.324c-79.948 0-152.216 216.804-152.216 484.324s72.268 484.324 152.216 484.324c79.948 0 152.216-216.804 152.216-484.324s-72.268-484.324-152.216-484.324v0zM951.966 192.454c51.735 89.605-108.598 270.419-353.446 411.786s-481.603 189.819-533.338 100.214c-51.735-89.605 108.598-270.419 353.446-411.786s481.603-189.819 533.338-100.214v0zM927.999 206.292c-39.974-69.235-263.86-23.417-495.533 110.343s-383.291 304.746-343.317 373.981c39.974 69.235 263.86 23.417 495.533-110.343s383.291-304.746 343.317-373.981v0zM65.885 191.449c51.735-89.605 288.49-41.153 533.338 100.214s405.181 322.181 353.446 411.786c-51.735 89.605-288.49 41.153-533.338-100.214s-405.181-322.181-353.446-411.786v0zM89.852 205.287c-39.974 69.235 111.644 240.221 343.317 373.981s455.559 179.578 495.533 110.343c39.974-69.235-111.644-240.221-343.317-373.981s-455.559-179.578-495.533-110.343v0z" />
<glyph unicode="&#xe902;" glyph-name="balance" d="M498.872 894.359v-866.462h26.256v866.462h-26.256zM328.205-11.487h367.59v26.256h-367.59v-26.256zM69.145 566.63l853.333 236.308-7.007 25.304-853.333-236.308 7.007-25.304zM170.667 172.308h-52.513c-50.514 0-91.897 41.384-91.897 91.897 0 8.503 4.625 13.128 13.128 13.128h210.051c8.503 0 13.128-4.625 13.128-13.128 0-50.514-41.384-91.897-91.897-91.897v0zM170.667 146.051c65.015 0 118.154 53.139 118.154 118.154 0 23.004-16.38 39.385-39.385 39.385h-210.051c-23.004 0-39.385-16.38-39.385-39.385 0-65.015 53.139-118.154 118.154-118.154h52.513zM51.839 286.31l105.026 315.077h-24.909l105.026-315.077 24.909 8.303-117.48 352.44-117.48-352.44 24.909-8.303zM905.846 369.231h-52.513c-50.514 0-91.897 41.384-91.897 91.897 0 8.503 4.625 13.128 13.128 13.128h210.051c8.503 0 13.128-4.625 13.128-13.128 0-50.514-41.384-91.897-91.897-91.897v0zM905.846 342.974c65.015 0 118.154 53.139 118.154 118.154 0 23.004-16.38 39.385-39.385 39.385h-210.051c-23.004 0-39.385-16.38-39.385-39.385 0-65.015 53.139-118.154 118.154-118.154h52.513zM787.019 483.233l105.026 315.077h-24.909l105.026-315.077 24.909 8.303-117.48 352.44-117.48-352.44 24.909-8.303z" />
<glyph unicode="&#xe903;" glyph-name="book" d="M497.371 813.714v-746.057h29.257v746.057h-29.257zM526.629 813.714c0 72.445-59.212 131.657-131.657 131.657h-263.314c-72.445 0-131.657-59.212-131.657-131.657v-585.143c0-72.445 59.212-131.657 131.657-131.657h263.314c56.287 0 102.4-46.113 102.4-102.4v-29.257h29.257v29.257c0 72.445-59.212 131.657-131.657 131.657h-263.314c-56.287 0-102.4 46.113-102.4 102.4v585.143c0 56.287 46.113 102.4 102.4 102.4h263.314c56.287 0 102.4-46.113 102.4-102.4h29.257zM526.629 813.714c0 56.287 46.113 102.4 102.4 102.4h263.314c56.287 0 102.4-46.113 102.4-102.4v-585.143c0-56.287-46.113-102.4-102.4-102.4h-263.314c-72.445 0-131.657-59.212-131.657-131.657v-29.257h29.257v29.257c0 56.287 46.113 102.4 102.4 102.4h263.314c72.445 0 131.657 59.212 131.657 131.657v585.143c0 72.445-59.212 131.657-131.657 131.657h-263.314c-72.445 0-131.657-59.212-131.657-131.657h29.257z" />
<glyph unicode="&#xe904;" glyph-name="bug" d="M512-49.371c186.699 0 336.457 190.602 336.457 424.229s-149.759 424.229-336.457 424.229c-186.699 0-336.457-190.602-336.457-424.229s149.759-424.229 336.457-424.229v0zM512-20.114c-168.783 0-307.2 176.167-307.2 394.971s138.417 394.971 307.2 394.971c168.783 0 307.2-176.167 307.2-394.971s-138.417-394.971-307.2-394.971v0zM14.629 360.229h175.543v29.257h-175.543v-29.257zM64.64 649.673l143.36-102.4 17.005 23.808-143.36 102.4-17.005-23.808zM942.354 673.481l-143.36-102.4 17.005-23.808 143.36 102.4-17.005 23.808zM81.646 76.233l143.36 102.4-17.005 23.808-143.36-102.4 17.005-23.808zM959.36 100.041l-143.36 102.4-17.005-23.808 143.36-102.4 17.005 23.808zM833.829 360.229h175.543v29.257h-175.543v-29.257zM131.657 916.114c115.085 0 217.926-71.010 249.436-165.54l27.756 9.252c-35.57 106.71-149.745 185.545-277.192 185.545v-29.257zM892.343 945.371c-127.447 0-241.622-78.835-277.192-185.545l27.756-9.252c31.51 94.531 134.352 165.54 249.436 165.54v29.257zM210.353 538.927c201.342-159.27 401.952-159.27 603.294 0l-18.151 22.946c-190.704-150.855-376.288-150.855-566.992 0l-18.151-22.946zM497.371 433.371v-468.114h29.257v468.114h-29.257z" />
<glyph unicode="&#xe905;" glyph-name="calendar" d="M857.946-36.324h-719.568c-53.244 0-96.865 43.621-96.865 96.865v664.216c0 53.244 43.621 96.865 96.865 96.865h719.568c53.244 0 96.865-43.621 96.865-96.865v-664.216c0-53.244-43.621-96.865-96.865-96.865v0zM857.946-64c68.529 0 124.541 56.012 124.541 124.541v664.216c0 68.529-56.012 124.541-124.541 124.541h-719.568c-68.529 0-124.541-56.012-124.541-124.541v-664.216c0-68.529 56.012-124.541 124.541-124.541h719.568zM55.351 600.216h940.973v27.676h-940.973v-27.676zM235.243 946.162v-193.73h27.676v193.73h-27.676zM733.405 946.162v-193.73h27.676v193.73h-27.676zM276.757 351.135h-110.703c-8.963 0-13.838 4.875-13.838 13.838v110.703c0 8.963 4.875 13.838 13.838 13.838h110.703c8.963 0 13.838-4.875 13.838-13.838v-110.703c0-8.963-4.875-13.838-13.838-13.838v0zM276.757 323.459c24.248 0 41.514 17.266 41.514 41.514v110.703c0 24.248-17.266 41.514-41.514 41.514h-110.703c-24.248 0-41.514-17.266-41.514-41.514v-110.703c0-24.248 17.266-41.514 41.514-41.514h110.703zM553.514 351.135h-110.703c-8.963 0-13.838 4.875-13.838 13.838v110.703c0 8.963 4.875 13.838 13.838 13.838h110.703c8.963 0 13.838-4.875 13.838-13.838v-110.703c0-8.963-4.875-13.838-13.838-13.838v0zM553.514 323.459c24.248 0 41.514 17.266 41.514 41.514v110.703c0 24.248-17.266 41.514-41.514 41.514h-110.703c-24.248 0-41.514-17.266-41.514-41.514v-110.703c0-24.248 17.266-41.514 41.514-41.514h110.703zM830.27 351.135h-110.703c-8.963 0-13.838 4.875-13.838 13.838v110.703c0 8.963 4.875 13.838 13.838 13.838h110.703c8.963 0 13.838-4.875 13.838-13.838v-110.703c0-8.963-4.875-13.838-13.838-13.838v0zM830.27 323.459c24.248 0 41.514 17.266 41.514 41.514v110.703c0 24.248-17.266 41.514-41.514 41.514h-110.703c-24.248 0-41.514-17.266-41.514-41.514v-110.703c0-24.248 17.266-41.514 41.514-41.514h110.703zM276.757 74.378h-110.703c-8.963 0-13.838 4.875-13.838 13.838v110.703c0 8.963 4.875 13.838 13.838 13.838h110.703c8.963 0 13.838-4.875 13.838-13.838v-110.703c0-8.963-4.875-13.838-13.838-13.838v0zM276.757 46.703c24.248 0 41.514 17.266 41.514 41.514v110.703c0 24.248-17.266 41.514-41.514 41.514h-110.703c-24.248 0-41.514-17.266-41.514-41.514v-110.703c0-24.248 17.266-41.514 41.514-41.514h110.703zM553.514 74.378h-110.703c-8.963 0-13.838 4.875-13.838 13.838v110.703c0 8.963 4.875 13.838 13.838 13.838h110.703c8.963 0 13.838-4.875 13.838-13.838v-110.703c0-8.963-4.875-13.838-13.838-13.838v0zM553.514 46.703c24.248 0 41.514 17.266 41.514 41.514v110.703c0 24.248-17.266 41.514-41.514 41.514h-110.703c-24.248 0-41.514-17.266-41.514-41.514v-110.703c0-24.248 17.266-41.514 41.514-41.514h110.703zM830.27 74.378h-110.703c-8.963 0-13.838 4.875-13.838 13.838v110.703c0 8.963 4.875 13.838 13.838 13.838h110.703c8.963 0 13.838-4.875 13.838-13.838v-110.703c0-8.963-4.875-13.838-13.838-13.838v0zM830.27 46.703c24.248 0 41.514 17.266 41.514 41.514v110.703c0 24.248-17.266 41.514-41.514 41.514h-110.703c-24.248 0-41.514-17.266-41.514-41.514v-110.703c0-24.248 17.266-41.514 41.514-41.514h110.703z" />
<glyph unicode="&#xe906;" glyph-name="camera" d="M599.771 111.543h-468.114c-56.287 0-102.4 46.113-102.4 102.4v468.114c0 56.287 46.113 102.4 102.4 102.4h468.114c56.287 0 102.4-46.113 102.4-102.4v-468.114c0-56.287-46.113-102.4-102.4-102.4v0zM599.771 82.286c72.445 0 131.657 59.212 131.657 131.657v468.114c0 72.445-59.212 131.657-131.657 131.657h-468.114c-72.445 0-131.657-59.212-131.657-131.657v-468.114c0-72.445 59.212-131.657 131.657-131.657h468.114zM708.392 348.258l245.76-172.617c29.718-21.228 69.848-0.36 69.848 35.377v473.966c0 35.736-40.13 56.604-69.943 35.309l-251.886-176.919v-190.746l6.221-4.369zM725.208 372.199l6.221-11.971v175.543l-6.221-11.971 245.76 172.617c10.484 7.488 23.775 0.576 23.775-11.435v-473.966c0-12.011-13.291-18.923-23.68-11.502l-245.855 172.684z" />
<glyph unicode="&#xe907;" glyph-name="case" d="M892.343-5.486h-760.686c-56.287 0-102.4 46.113-102.4 102.4v526.629c0 56.287 46.113 102.4 102.4 102.4h760.686c56.287 0 102.4-46.113 102.4-102.4v-526.629c0-56.287-46.113-102.4-102.4-102.4v0zM892.343-34.743c72.445 0 131.657 59.212 131.657 131.657v526.629c0 72.445-59.212 131.657-131.657 131.657h-760.686c-72.445 0-131.657-59.212-131.657-131.657v-526.629c0-72.445 59.212-131.657 131.657-131.657h760.686zM716.8 755.2h-409.6l14.629-14.629v87.771c0 41.658 31.485 73.143 73.143 73.143h234.057c41.658 0 73.143-31.485 73.143-73.143v-87.771l14.629 14.629zM716.8 725.943h14.629v102.4c0 57.816-44.584 102.4-102.4 102.4h-234.057c-57.816 0-102.4-44.584-102.4-102.4v-102.4h424.229zM14.629 374.857h380.343v29.257h-380.343v-29.257zM629.029 374.857h365.714v29.257h-365.714v-29.257zM599.771 316.343h-175.543c-9.475 0-14.629 5.153-14.629 14.629v117.029c0 9.475 5.153 14.629 14.629 14.629h175.543c9.475 0 14.629-5.153 14.629-14.629v-117.029c0-9.475-5.153-14.629-14.629-14.629v0zM599.771 287.086c25.633 0 43.886 18.252 43.886 43.886v117.029c0 25.633-18.252 43.886-43.886 43.886h-175.543c-25.633 0-43.886-18.252-43.886-43.886v-117.029c0-25.633 18.252-43.886 43.886-43.886h175.543z" />
<glyph unicode="&#xe908;" glyph-name="center-align" d="M15.515 897.939h992.97v31.030h-992.97v-31.030zM170.667 587.636h682.667v31.030h-682.667v-31.030zM15.515 277.333h992.97v31.030h-992.97v-31.030zM170.667-32.97h682.667v31.030h-682.667v-31.030z" />
<glyph unicode="&#xe909;" glyph-name="circle-minus" d="M512-64c282.77 0 512 229.23 512 512s-229.23 512-512 512c-282.77 0-512-229.23-512-512s229.23-512 512-512v0zM512-34.743c-266.612 0-482.743 216.131-482.743 482.743s216.131 482.743 482.743 482.743c266.612 0 482.743-216.131 482.743-482.743s-216.131-482.743-482.743-482.743v0zM248.686 433.371h526.629v29.257h-526.629v-29.257z" />
<glyph unicode="&#xe90a;" glyph-name="circle-no" d="M512-64c282.77 0 512 229.23 512 512s-229.23 512-512 512c-282.77 0-512-229.23-512-512s229.23-512 512-512v0zM512-34.743c-266.612 0-482.743 216.131-482.743 482.743s216.131 482.743 482.743 482.743c266.612 0 482.743-216.131 482.743-482.743s-216.131-482.743-482.743-482.743v0zM335.098 250.41l374.491 374.491-20.688 20.688-374.491-374.491 20.688-20.688zM709.59 271.098l-374.491 374.491-20.688-20.688 374.491-374.491 20.688 20.688z" />
<glyph unicode="&#xe90b;" glyph-name="circle-ok" d="M512-64c282.77 0 512 229.23 512 512s-229.23 512-512 512c-282.77 0-512-229.23-512-512s229.23-512 512-512v0zM512-34.743c-266.612 0-482.743 216.131-482.743 482.743s216.131 482.743 482.743 482.743c266.612 0 482.743-216.131 482.743-482.743s-216.131-482.743-482.743-482.743v0zM296.856 437.656l156.63-156.63 302.915 302.915-20.688 20.688-292.571-292.571h20.688l-146.286 146.286-20.688-20.688z" />
<glyph unicode="&#xe90c;" glyph-name="circle-plus" d="M512-64c282.77 0 512 229.23 512 512s-229.23 512-512 512c-282.77 0-512-229.23-512-512s229.23-512 512-512v0zM512-34.743c-266.612 0-482.743 216.131-482.743 482.743s216.131 482.743 482.743 482.743c266.612 0 482.743-216.131 482.743-482.743s-216.131-482.743-482.743-482.743v0zM497.371 711.314v-526.629h29.257v526.629h-29.257zM775.314 462.629h-526.629v-29.257h526.629v29.257z" />
<glyph unicode="&#xe90d;" glyph-name="cloud" d="M230.393 534.606c4.879 143.931 124.454 258.994 268.807 258.994 127.898 0 236.723-88.778 263.979-212.67l1.853-8.421 8.501-1.447c115.552-19.668 201.828-120.444 201.828-238.261 0-133.731-109.469-243.2-243.2-243.2h-486.4c-120.931 0-217.6 96.669-217.6 217.6-2.391 110.103 80.91 202.902 190.854 215.118l11.004 1.223 0.375 11.065zM204.807 535.474l11.379 12.288c-122.986-13.665-216.302-117.622-213.623-240.84-0.003-134.791 108.128-242.922 243.197-242.922h486.4c147.869 0 268.8 120.931 268.8 268.8 0 130.374-95.349 241.748-223.132 263.499l10.353-9.868c-29.822 135.556-148.987 232.77-288.981 232.77-158.128 0-289.045-125.977-294.393-283.726v0z" />
<glyph unicode="&#xe90e;" glyph-name="collapse" d="M574.061 960h-434.424c-76.835 0-139.636-62.801-139.636-139.636v-744.727c0-76.835 62.801-139.636 139.636-139.636h744.727c76.835 0 139.636 62.801 139.636 139.636v434.424h-31.030v-434.424c0-59.698-48.908-108.606-108.606-108.606h-744.727c-59.698 0-108.606 48.908-108.606 108.606v744.727c0 59.698 48.908 108.606 108.606 108.606h434.424v31.030zM966.484 924.425l-527.515-527.515 21.942-21.942 527.515 527.515-21.942 21.942zM403.394 727.273v-341.333c0-27.187 19.358-46.545 46.545-46.545h341.333v31.030h-341.333c-10.049 0-15.515 5.466-15.515 15.515v341.333h-31.030z" />
<glyph unicode="&#xe90f;" glyph-name="comments" d="M802.049 37.47c28.762-31.638 68.261-50.27 109.311-50.27 28.726 0 53.711 7.232 80.456 22.091l20.016 11.12-19.957 11.226c-37.984 21.366-66.001 61.762-72.992 106.040l-2.079-9.224c34.987 51.135 53.436 112.632 53.436 178.748 0 176.029-143.971 320-320 320s-320-143.971-320-320c0-176.029 143.971-320 320-320 63.901 0 120.136 16.067 168.38 48.23l-16.571 2.040zM820.991 54.69l-7.408 8.149-9.163-6.109c-43.916-29.278-95.201-43.93-154.18-43.93-161.891 0-294.4 132.509-294.4 294.4s132.509 294.4 294.4 294.4c161.891 0 294.4-132.509 294.4-294.4 0-61.031-16.935-117.48-48.964-164.292l-2.873-4.199 0.793-5.025c8.211-52 40.912-99.151 85.728-124.36l0.059 22.345c-23.133-12.852-43.921-18.869-68.024-18.869-33.6 0-66.316 15.432-90.369 41.89v0zM272.478 355.3c-23.634 7.090-45.753 16.655-69.142 29.649l-8.911 4.951-6.819-7.577c-20.938-23.264-50.914-36.723-82.646-36.723-22.259 0-42.843 6.469-59.12 18.096l-0.854-21.392c43.358 26.015 72.27 65.768 80.28 113.832l0.832 4.993-2.808 4.212c-30.183 45.274-46.49 96.706-46.49 149.060 0 149.091 119.709 268.8 268.8 268.8 122.503 0 226.648-80.924 259.023-197.972l24.674 6.825c-35.416 128.042-149.576 216.748-283.697 216.748-163.229 0-294.4-131.171-294.4-294.4 0-57.529 17.865-113.873 50.79-163.26l-1.976 9.204c-6.727-40.36-31.042-73.794-68.2-96.088l-16.741-10.044 15.886-11.347c20.66-14.757 46.455-22.864 74-22.864 39.017 0 75.9 16.56 101.674 45.197l-15.73-2.626c24.939-13.855 48.742-24.148 74.218-31.791l7.356 24.52z" />
<glyph unicode="&#xe910;" glyph-name="compass" d="M512-64c282.77 0 512 229.23 512 512s-229.23 512-512 512c-282.77 0-512-229.23-512-512s229.23-512 512-512v0zM512-34.743c-266.612 0-482.743 216.131-482.743 482.743s216.131 482.743 482.743 482.743c266.612 0 482.743-216.131 482.743-482.743s-216.131-482.743-482.743-482.743v0zM395.928 555.603l-137.4-361.075 367.21 139.735 139.735 367.21-367.21-139.735-2.335-6.135zM423.272 545.197l-8.469-8.469 330.606 125.806-18.875 18.875-125.806-330.606 8.469 8.469-330.606-125.806 18.875-18.875 125.806 330.606z" />
<glyph unicode="&#xe911;" glyph-name="crop" d="M1010.162 185.081h-719.568c-22.801 0-41.514 18.713-41.514 41.514v719.568h-27.676v-719.568c0-38.086 31.104-69.189 69.189-69.189h719.568v27.676zM13.838 710.919h719.568c22.801 0 41.514-18.713 41.514-41.514v-719.568h27.676v719.568c0 38.086-31.104 69.189-69.189 69.189h-719.568v-27.676z" />
<glyph unicode="&#xe912;" glyph-name="desktop" d="M899.459 198.919h-774.919c-53.244 0-96.865 43.621-96.865 96.865v498.162c0 53.244 43.621 96.865 96.865 96.865h774.919c53.244 0 96.865-43.621 96.865-96.865v-498.162c0-53.244-43.621-96.865-96.865-96.865v0zM899.459 171.243c68.529 0 124.541 56.012 124.541 124.541v498.162c0 68.529-56.012 124.541-124.541 124.541h-774.919c-68.529 0-124.541-56.012-124.541-124.541v-498.162c0-68.529 56.012-124.541 124.541-124.541h774.919zM622.703 5.189h-221.405l13.699-15.795 27.676 193.73-13.699-11.881h166.054l-13.699 11.881 27.676-193.73 13.699 15.795zM622.703-22.486h15.955l-31.629 221.405h-190.057l-31.629-221.405h237.361zM318.27-22.486h387.459v27.676h-387.459v-27.676zM13.838 337.297h996.324v27.676h-996.324v-27.676z" />
<glyph unicode="&#xe913;" glyph-name="dot" d="M541.257 901.486h-409.6c-72.445 0-131.657-59.212-131.657-131.657v-702.171c0-72.445 59.212-131.657 131.657-131.657h702.171c72.445 0 131.657 59.212 131.657 131.657v409.6h-29.257v-409.6c0-56.287-46.113-102.4-102.4-102.4h-702.171c-56.287 0-102.4 46.113-102.4 102.4v702.171c0 56.287 46.113 102.4 102.4 102.4h409.6v29.257zM833.829 579.657c105.029 0 190.171 85.143 190.171 190.171s-85.143 190.171-190.171 190.171c-105.029 0-190.171-85.143-190.171-190.171s85.143-190.171 190.171-190.171v0zM833.829 608.914c-88.871 0-160.914 72.044-160.914 160.914s72.044 160.914 160.914 160.914c88.871 0 160.914-72.044 160.914-160.914s-72.044-160.914-160.914-160.914v0z" />
<glyph unicode="&#xe914;" glyph-name="edit" d="M875.789 434.526v-377.263c0-51.843-42.473-94.316-94.316-94.316h-646.737c-51.843 0-94.316 42.473-94.316 94.316v646.737c0 51.843 42.473 94.316 94.316 94.316h377.263v26.947h-377.263c-66.726 0-121.263-54.538-121.263-121.263v-646.737c0-66.726 54.538-121.263 121.263-121.263h646.737c66.726 0 121.263 54.538 121.263 121.263v377.263h-26.947zM608.491 434.137l-153.6-37.726 16.299-16.299 37.726 153.6-3.557-6.314 361.095 361.095c27.005 27.005 69.353 27.005 93.719 0.423 27.409-27.427 27.409-69.776 0.828-94.142l-358.894-364.266 6.384 3.629zM614.919 407.968l3.706 0.91 361.078 366.508c37.598 34.441 37.598 94.493-0.071 132.162-34.513 37.669-94.565 37.669-132.234 0l-363.755-363.755-43.93-178.859 175.205 43.033zM809.785 847.961l115.874-113.179 18.829 19.278-115.874 113.179-18.829-19.278z" />
<glyph unicode="&#xe915;" glyph-name="eject" d="M813.176 26.353h60.235c74.576 0 135.529 60.954 135.529 135.529v662.588c0 74.576-60.954 135.529-135.529 135.529h-722.824c-74.576 0-135.529-60.954-135.529-135.529v-662.588c0-74.576 60.954-135.529 135.529-135.529h60.235v30.118h-60.235c-57.942 0-105.412 47.47-105.412 105.412v662.588c0 57.942 47.47 105.412 105.412 105.412h722.824c57.942 0 105.412-47.47 105.412-105.412v-662.588c0-57.942-47.47-105.412-105.412-105.412h-60.235v-30.118zM313.513-57.577l210.824 301.176h-24.673l210.824-301.176 12.337 23.694h-421.647l12.337-23.694zM288.84-40.306l-16.586-23.694h479.493l-239.746 342.495-223.16-318.8z" />
<glyph unicode="&#xe916;" glyph-name="everlope" d="M892.343 53.029h-760.686c-56.287 0-102.4 46.113-102.4 102.4v585.143c0 56.287 46.113 102.4 102.4 102.4h760.686c56.287 0 102.4-46.113 102.4-102.4v-585.143c0-56.287-46.113-102.4-102.4-102.4v0zM892.343 23.771c72.445 0 131.657 59.212 131.657 131.657v585.143c0 72.445-59.212 131.657-131.657 131.657h-760.686c-72.445 0-131.657-59.212-131.657-131.657v-585.143c0-72.445 59.212-131.657 131.657-131.657h760.686zM7.212 727.963l504.788-296.934 504.788 296.934-14.834 25.218-497.371-292.571h14.834l-497.371 292.571-14.834-25.218z" />
<glyph unicode="&#xe917;" glyph-name="exit" d="M48.918 893.584l420.379-167.074c25.141-11.445 42.703-36.812 42.703-62.932v-587.453c0-47.264-44.689-78.547-89.865-62.735l-350.447 118.614c-26.118 8.706-44.741 35.309-44.741 62.69v644.042c0 38.369 28.999 67.368 67.368 67.368h538.947c38.369 0 67.368-28.999 67.368-67.368v-619.789c0-38.369-28.999-67.368-67.368-67.368h-107.789v-26.947h107.789c53.252 0 94.316 41.064 94.316 94.316v619.789c0 53.252-41.064 94.316-94.316 94.316h-538.947c-53.252 0-94.316-41.064-94.316-94.316v-644.042c0-38.833 25.899-75.832 63.108-88.235l350.257-118.549c62.483-21.87 125.583 22.3 125.583 88.215v587.453c0 37.057-24.041 71.784-59.098 87.719l-420.978 167.329-9.953-25.042zM452.716 394.105c0-26.789-21.717-48.505-48.505-48.505s-48.505 21.717-48.505 48.505c0 26.789 21.717 48.505 48.505 48.505s48.505-21.717 48.505-48.505zM852.788 627.104l121.263-121.263v19.055l-121.263-121.263 19.055-19.055 130.79 130.79-130.79 130.79-19.055-19.055zM970.105 528.842h-242.526v-26.947h242.526v26.947z" />
<glyph unicode="&#xe918;" glyph-name="expand" d="M541.257 901.486h-409.6c-72.445 0-131.657-59.212-131.657-131.657v-702.171c0-72.445 59.212-131.657 131.657-131.657h702.171c72.445 0 131.657 59.212 131.657 131.657v409.6h-29.257v-409.6c0-56.287-46.113-102.4-102.4-102.4h-702.171c-56.287 0-102.4 46.113-102.4 102.4v702.171c0 56.287 46.113 102.4 102.4 102.4h409.6v29.257zM493.087 408.399l497.371 497.371-20.688 20.688-497.371-497.371 20.688-20.688zM1024 594.286v321.829c0 25.633-18.252 43.886-43.886 43.886h-321.829v-29.257h321.829c9.475 0 14.629-5.153 14.629-14.629v-321.829h29.257z" />
<glyph unicode="&#xe919;" glyph-name="eye" d="M512 784.457c-126.492 0-251.666-55.28-361.128-145.608-84.024-69.337-150.872-155.753-150.872-190.849s66.848-121.512 150.872-190.849c109.462-90.328 234.636-145.608 361.128-145.608s251.666 55.28 361.128 145.608c84.024 69.337 150.872 155.753 150.872 190.849s-66.848 121.512-150.872 190.849c-109.462 90.328-234.636 145.608-361.128 145.608v0zM512 755.2c118.84 0 237.859-52.562 342.506-138.917 77.52-63.97 140.236-145.045 140.236-168.283s-62.716-104.313-140.236-168.283c-104.647-86.355-223.666-138.917-342.506-138.917s-237.859 52.562-342.506 138.917c-77.52 63.97-140.236 145.045-140.236 168.283s62.716 104.313 140.236 168.283c104.647 86.355 223.666 138.917 342.506 138.917v0zM512 257.829c105.029 0 190.171 85.143 190.171 190.171s-85.143 190.171-190.171 190.171c-105.029 0-190.171-85.143-190.171-190.171s85.143-190.171 190.171-190.171v0zM512 287.086c-88.871 0-160.914 72.044-160.914 160.914s72.044 160.914 160.914 160.914c88.871 0 160.914-72.044 160.914-160.914s-72.044-160.914-160.914-160.914v0z" />
<glyph unicode="&#xe91a;" glyph-name="file-r" d="M833.829 960h-643.657c-72.445 0-131.657-59.212-131.657-131.657v-760.686c0-72.445 59.212-131.657 131.657-131.657h386.194c17.341 0 35.012 6.51 49.737 17.554l317.085 290.565c14.952 14.932 22.298 33.297 22.298 54.669v529.554c0 72.445-59.212 131.657-131.657 131.657v0zM833.829 930.743c56.287 0 102.4-46.113 102.4-102.4v-529.554c0-13.737-4.357-24.629-13.27-33.542l-315.518-289.206c-8.783-6.499-20.413-10.784-31.075-10.784h-386.194c-56.287 0-102.4 46.113-102.4 102.4v760.686c0 56.287 46.113 102.4 102.4 102.4h643.657zM614.4-49.371v204.8c0 56.287 46.113 102.4 102.4 102.4h219.429v29.257h-219.429c-72.445 0-131.657-59.212-131.657-131.657v-204.8h29.257zM219.429 725.943h468.114v29.257h-468.114v-29.257zM219.429 111.543h234.057v29.257h-234.057v-29.257zM219.429 316.343h351.086v29.257h-351.086v-29.257zM219.429 521.143h585.143v29.257h-585.143v-29.257z" />
<glyph unicode="&#xe91b;" glyph-name="file" d="M824.889-35.556h-625.778c-54.723 0-99.556 44.832-99.556 99.556v768c0 54.723 44.832 99.556 99.556 99.556h347.022c10.366 0 21.673-4.166 31.289-11.378l334.527-309.114c8.259-8.275 12.495-18.864 12.495-32.22v-514.844c0-54.723-44.832-99.556-99.556-99.556v0zM824.889-64c70.432 0 128 57.568 128 128v514.844c0 20.778-7.142 38.633-21.232 52.723l-336.051 310.435c-15.433 11.668-32.613 17.997-49.473 17.997h-347.022c-70.432 0-128-57.568-128-128v-768c0-70.432 57.568-128 128-128h625.778zM554.667 945.778v-227.556c0-70.432 57.568-128 128-128h241.778v28.444h-241.778c-54.723 0-99.556 44.832-99.556 99.556v227.556h-28.444z" />
<glyph unicode="&#xe91c;" glyph-name="files" d="M629.029-34.743h-468.114c-56.287 0-102.4 46.113-102.4 102.4v555.886c0 56.287 46.113 102.4 102.4 102.4h280.869c4.39 0 6.647-1.003 10.136-4.493l275.017-275.017c3.489-3.489 4.493-5.747 4.493-10.136v-368.64c0-56.287-46.113-102.4-102.4-102.4v0zM629.029-64c72.445 0 131.657 59.212 131.657 131.657v368.64c0 12.433-4.263 22.025-13.062 30.824l-275.017 275.017c-8.799 8.799-18.391 13.062-30.824 13.062h-280.869c-72.445 0-131.657-59.212-131.657-131.657v-555.886c0-72.445 59.212-131.657 131.657-131.657h468.114zM438.857 725.943v-160.914c0-72.445 59.212-131.657 131.657-131.657h160.914v29.257h-160.914c-56.287 0-102.4 46.113-102.4 102.4v160.914h-29.257zM292.571 740.571v87.771c0 56.287 46.113 102.4 102.4 102.4h280.869c4.39 0 6.647-1.003 10.136-4.493l275.017-275.017c3.489-3.489 4.493-5.747 4.493-10.136v-368.64c0-56.287-46.113-102.4-102.4-102.4h-117.029v-29.257h117.029c72.445 0 131.657 59.212 131.657 131.657v368.64c0 12.433-4.263 22.025-13.062 30.824l-275.017 275.017c-8.799 8.799-18.391 13.062-30.824 13.062h-280.869c-72.445 0-131.657-59.212-131.657-131.657v-87.771h29.257zM672.914 930.743v-160.914c0-72.445 59.212-131.657 131.657-131.657h160.914v29.257h-160.914c-56.287 0-102.4 46.113-102.4 102.4v160.914h-29.257z" />
<glyph unicode="&#xe91d;" glyph-name="film" d="M915.394-1.939h-806.788c-44.183 0-77.576 33.393-77.576 77.576v744.727c0 44.183 33.393 77.576 77.576 77.576h806.788c44.183 0 77.576-33.393 77.576-77.576v-744.727c0-44.183-33.393-77.576-77.576-77.576v0zM915.394-32.97c61.32 0 108.606 47.286 108.606 108.606v744.727c0 61.32-47.286 108.606-108.606 108.606h-806.788c-61.32 0-108.606-47.286-108.606-108.606v-744.727c0-61.32 47.286-108.606 108.606-108.606h806.788zM248.242 432.485h527.515v31.030h-527.515v-31.030zM248.242-17.455v930.909h-31.030v-930.909h31.030zM806.788-32.97v930.909h-31.030v-930.909h31.030zM15.515 525.576h217.212l-15.515 15.515v-186.182l15.515 15.515h-217.212l15.515-15.515v186.182l-15.515-15.515zM15.515 556.606h-15.515v-217.212h248.242v217.212h-232.727zM15.515 339.394h217.212l-15.515 15.515v-186.182l15.515 15.515h-217.212l15.515-15.515v186.182l-15.515-15.515zM15.515 370.424h-15.515v-217.212h248.242v217.212h-232.727zM15.515 711.758h217.212l-15.515 15.515v-186.182l15.515 15.515h-217.212l15.515-15.515v186.182l-15.515-15.515zM15.515 742.788h-15.515v-217.212h248.242v217.212h-232.727zM791.273 525.576h217.212l-15.515 15.515v-186.182l15.515 15.515h-217.212l15.515-15.515v186.182l-15.515-15.515zM791.273 556.606h-15.515v-217.212h248.242v217.212h-232.727zM791.273 339.394h217.212l-15.515 15.515v-186.182l15.515 15.515h-217.212l15.515-15.515v186.182l-15.515-15.515zM791.273 370.424h-15.515v-217.212h248.242v217.212h-232.727zM791.273 711.758h217.212l-15.515 15.515v-186.182l15.515 15.515h-217.212l15.515-15.515v186.182l-15.515-15.515zM791.273 742.788h-15.515v-217.212h248.242v217.212h-232.727z" />
<glyph unicode="&#xe91e;" glyph-name="filter" d="M512 760.889c214.284 0 384 39.165 384 99.556s-169.716 99.556-384 99.556c-214.284 0-384-39.165-384-99.556s169.716-99.556 384-99.556v0zM512 789.333c-194.162 0-355.556 37.245-355.556 71.111s161.394 71.111 355.556 71.111c194.162 0 355.556-37.245 355.556-71.111s-161.394-71.111-355.556-71.111v0zM128.053 861.666c-0.127-1.473-0.306-4.15-0.482-7.942-1.273-27.496-0.248-62.296 4.798-101.717 7.409-57.879 22.327-114.919 46.539-168.416 6.697-14.798 14.058-29.192 22.107-43.143 20.558-35.634 44.547-67.619 71.277-96.131 32.392-34.551 67.105-62.322 101.862-83.948 12.212-7.599 23.582-13.896 33.827-18.969 6.252-3.096 10.814-5.124 13.405-6.16l-8.94 13.205v-396.352l199.111 132.741v263.612l-8.94-13.205c2.591 1.036 7.153 3.064 13.405 6.16 10.245 5.074 21.615 11.371 33.827 18.969 34.757 21.627 69.47 49.397 101.862 83.948 26.73 28.512 50.718 60.497 71.277 96.131 8.049 13.951 15.409 28.345 22.107 43.143 24.212 53.497 39.129 110.537 46.539 168.416 5.046 39.421 6.071 74.221 4.798 101.717-0.176 3.792-0.355 6.468-0.482 7.942l-28.339-2.443c0.095-1.105 0.249-3.406 0.407-6.814 1.201-25.941 0.224-59.119-4.598-96.79-7.071-55.237-21.282-109.578-44.238-160.299-6.318-13.961-13.255-27.525-20.831-40.657-19.442-33.699-42.12-63.936-67.39-90.891-30.608-32.649-63.395-58.878-96.138-79.252-11.413-7.101-21.981-12.954-31.423-17.631-5.561-2.754-9.436-4.476-11.345-5.24l-8.94-3.576v-265.629l6.333 11.834-170.667-113.778 22.111-11.834v379.407l-8.94 3.576c-1.909 0.764-5.785 2.486-11.345 5.24-9.442 4.676-20.010 10.529-31.423 17.631-32.743 20.373-65.53 46.603-96.138 79.252-25.27 26.955-47.948 57.192-67.39 90.891-7.576 13.132-14.512 26.696-20.831 40.657-22.956 50.722-37.167 105.062-44.238 160.299-4.822 37.671-5.799 70.849-4.598 96.79 0.158 3.408 0.312 5.709 0.407 6.814l-28.339 2.443z" />
<glyph unicode="&#xe91f;" glyph-name="gear" d="M179.308 543.656c6.698 22.325 13.461 39.009 29.834 75.848v0l3.483 7.836-71.889 86.866c-12.627 16.862-11.976 42.25 1.892 56.117l47.049 47.049c14.858 14.858 39.827 16.138 55.827 2.138l87.83-72.694 8.262 4.59c26.993 14.996 49.757 24.225 73.485 28.971l9.953 1.991 12.161 112.491c2.058 20.579 20.893 37.466 41.594 37.466h66.422c20.701 0 39.535-16.886 41.582-37.355l12.069-111.639 8.795-2.638c22.325-6.698 39.009-13.461 75.848-29.834v0l7.836-3.483 86.866 71.889c16.862 12.627 42.25 11.976 56.117-1.892l47.049-47.049c14.858-14.858 16.138-39.827 2.138-55.827l-72.694-87.83 4.59-8.262c14.996-26.993 24.225-49.757 28.971-73.485l1.991-9.953 112.491-12.161c20.579-2.058 37.466-20.893 37.466-41.594v-66.422c0-20.701-16.886-39.535-37.355-41.582l-111.639-12.069-2.638-8.795c-6.698-22.325-13.461-39.009-29.834-75.848v0l-3.483-7.836 71.889-86.866c12.627-16.862 11.976-42.25-1.892-56.117l-47.049-47.049c-14.858-14.858-39.827-16.138-55.827-2.138l-87.83 72.694-8.262-4.59c-26.993-14.996-49.757-24.225-73.485-28.971l-9.953-1.991-12.161-112.491c-2.058-20.579-20.893-37.466-41.594-37.466h-66.422c-20.701 0-39.535 16.886-41.582 37.355l-12.069 111.639-8.795 2.638c-22.325 6.698-39.009 13.461-75.848 29.834l-7.836 3.483-86.866-71.889c-16.862-12.627-42.25-11.976-56.117 1.892l-47.049 47.049c-14.858 14.858-16.138 39.827-2.138 55.827l72.694 87.83-4.59 8.262c-14.996 26.993-24.225 49.757-28.971 73.485l-1.991 9.953-112.491 12.161c-20.579 2.058-37.466 20.893-37.466 41.594v66.422c0 20.701 16.886 39.535 37.355 41.582l111.639 12.069 2.638 8.795zM152.8 551.609l11.767 9.781-102.4-11.070c-34.562-3.456-62.167-34.245-62.167-69.109v-66.422c0-34.864 27.604-65.653 62.277-69.121l102.29-11.059-12.082 11.044c5.378-26.889 15.639-52.199 31.916-81.498l1.436 15.543-66.422-80.259c-23.494-26.842-21.367-68.322 3.643-93.332l47.049-47.049c24.005-24.005 64.815-25.051 92.812-4.053l80.779 66.831-14.443-1.985c37.886-16.838 55.335-23.912 79.136-31.052l-9.781 11.767 11.070-102.4c3.456-34.562 34.245-62.167 69.109-62.167h66.422c34.864 0 65.653 27.604 69.121 62.277l11.059 102.29-11.044-12.082c26.889 5.378 52.199 15.639 81.498 31.916l-15.543 1.436 80.259-66.422c26.842-23.494 68.322-21.367 93.332 3.643l47.049 47.049c24.005 24.005 25.051 64.815 4.053 92.812l-66.831 80.779 1.985-14.443c16.838 37.886 23.912 55.335 31.052 79.136l-11.767-9.781 102.4 11.070c34.562 3.456 62.167 34.245 62.167 69.109v66.422c0 34.864-27.604 65.653-62.277 69.121l-102.29 11.059 12.082-11.044c-5.378 26.889-15.639 52.199-31.916 81.498l-1.436-15.543 66.422 80.259c23.494 26.842 21.367 68.322-3.643 93.332l-47.049 47.049c-24.005 24.005-64.815 25.051-92.812 4.053l-80.779-66.831 14.443 1.985c-37.886 16.838-55.335 23.912-79.136 31.052l9.781-11.767-11.070 102.4c-3.456 34.562-34.245 62.167-69.109 62.167h-66.422c-34.864 0-65.653-27.604-69.121-62.277l-11.059-102.29 11.044 12.082c-26.889-5.378-52.199-15.639-81.498-31.916l15.543-1.436-80.259 66.422c-26.842 23.494-68.322 21.367-93.332-3.643l-47.049-47.049c-24.005-24.005-25.051-64.815-4.053-92.812l66.831-80.779-1.985 14.443c-16.838-37.886-23.912-55.335-31.052-79.136v0zM512 268.108c99.352 0 179.892 80.54 179.892 179.892s-80.54 179.892-179.892 179.892c-99.352 0-179.892-80.54-179.892-179.892s80.54-179.892 179.892-179.892v0zM512 295.784c-84.067 0-152.216 68.15-152.216 152.216s68.15 152.216 152.216 152.216c84.067 0 152.216-68.15 152.216-152.216s-68.15-152.216-152.216-152.216v0z" />
<glyph unicode="&#xe920;" glyph-name="glass" d="M449.939 60.121c248.495 0 449.939 201.445 449.939 449.939s-201.445 449.939-449.939 449.939c-248.495 0-449.939-201.445-449.939-449.939s201.445-449.939 449.939-449.939v0zM449.939 91.152c-231.357 0-418.909 187.552-418.909 418.909s187.552 418.909 418.909 418.909c231.357 0 418.909-187.552 418.909-418.909s-187.552-418.909-418.909-418.909v0zM1019.456-37.514l-248.242 248.242-21.942-21.942 248.242-248.242 21.942 21.942z" />
<glyph unicode="&#xe921;" glyph-name="globe" d="M512-64c282.77 0 512 229.23 512 512s-229.23 512-512 512c-282.77 0-512-229.23-512-512s229.23-512 512-512v0zM512-34.743c-266.612 0-482.743 216.131-482.743 482.743s216.131 482.743 482.743 482.743c266.612 0 482.743-216.131 482.743-482.743s-216.131-482.743-482.743-482.743v0zM512-64c156.021 0 277.943 230.298 277.943 512s-121.922 512-277.943 512c-156.021 0-277.943-230.298-277.943-512s121.922-512 277.943-512v0zM512-34.743c-134.828 0-248.686 215.064-248.686 482.743s113.857 482.743 248.686 482.743c134.828 0 248.686-215.064 248.686-482.743s-113.857-482.743-248.686-482.743v0zM850.727 809.838c-52.331-82.628-193.483-142.41-338.727-142.41s-286.396 59.782-338.727 142.41l-24.717-15.654c58.399-92.21 209.046-156.013 363.444-156.013s305.045 63.803 363.444 156.013l-24.717 15.654zM173.273 86.162c52.331 82.628 193.483 142.41 338.727 142.41s286.396-59.782 338.727-142.41l24.717 15.654c-58.399 92.21-209.046 156.013-363.444 156.013s-305.045-63.803-363.444-156.013l24.717-15.654zM14.629 433.371h994.743v29.257h-994.743v-29.257zM497.371 945.371v-994.743h29.257v994.743h-29.257z" />
<glyph unicode="&#xe922;" glyph-name="half-o" d="M512-64c282.77 0 512 229.23 512 512s-229.23 512-512 512c-282.77 0-512-229.23-512-512s229.23-512 512-512v0zM512-34.743c-266.612 0-482.743 216.131-482.743 482.743s216.131 482.743 482.743 482.743c266.612 0 482.743-216.131 482.743-482.743s-216.131-482.743-482.743-482.743v0zM171.258 86.57l702.171 702.171-20.688 20.688-702.171-702.171 20.688-20.688z" />
<glyph unicode="&#xe923;" glyph-name="half" d="M512-64c282.77 0 512 229.23 512 512s-229.23 512-512 512c-282.77 0-512-229.23-512-512s229.23-512 512-512v0zM512-34.743c-266.612 0-482.743 216.131-482.743 482.743s216.131 482.743 482.743 482.743c266.612 0 482.743-216.131 482.743-482.743s-216.131-482.743-482.743-482.743v0zM150.57 788.742l702.171-702.171 20.688 20.688-702.171 702.171-20.688-20.688z" />
<glyph unicode="&#xe924;" glyph-name="image" d="M884.364 928.97c59.698 0 108.606-48.908 108.606-108.606v-744.727c0-59.698-48.908-108.606-108.606-108.606h-744.727c-59.698 0-108.606 48.908-108.606 108.606v744.727c0 59.698 48.908 108.606 108.606 108.606h744.727zM884.364 960h-744.727c-76.835 0-139.636-62.801-139.636-139.636v-744.727c0-76.835 62.801-139.636 139.636-139.636h744.727c76.835 0 139.636 62.801 139.636 139.636v744.727c0 76.835-62.801 139.636-139.636 139.636v0zM27.047 189.378l279.273 310.303-21.969-1.101 351.327-319.388 196.557 163.798h-19.865l186.182-155.152 19.865 23.838-196.114 163.429-196.114-163.429 20.369-0.439-352.871 320.792-289.704-321.893 23.065-20.758zM729.212 525.576c77.119 0 139.636 62.517 139.636 139.636s-62.517 139.636-139.636 139.636c-77.119 0-139.636-62.517-139.636-139.636s62.517-139.636 139.636-139.636v0zM729.212 556.606c-59.981 0-108.606 48.625-108.606 108.606s48.625 108.606 108.606 108.606c59.981 0 108.606-48.625 108.606-108.606s-48.625-108.606-108.606-108.606v0z" />
<glyph unicode="&#xe925;" glyph-name="justify" d="M15.515 897.939h992.97v31.030h-992.97v-31.030zM15.515 587.636h992.97v31.030h-992.97v-31.030zM15.515 277.333h992.97v31.030h-992.97v-31.030zM15.515-32.97h992.97v31.030h-992.97v-31.030z" />
<glyph unicode="&#xe926;" glyph-name="lamp" d="M614.4 263.68v-196.023c0-56.287-46.113-102.4-102.4-102.4s-102.4 46.113-102.4 102.4v206.496l-9.914 3.375c-133.156 45.33-224.143 172.55-224.143 316.758 0 185.018 151.439 336.457 336.457 336.457s336.457-151.439 336.457-336.457c0-144.208-90.986-271.428-224.143-316.758l-9.914-3.375v-10.473zM643.657 263.68l-9.914-13.848c145.018 49.368 243.971 187.727 243.971 344.454 0 201.176-164.538 365.714-365.714 365.714s-365.714-164.538-365.714-365.714c0-156.727 98.953-295.086 243.971-344.454l-9.914 13.848v-196.023c0-72.445 59.212-131.657 131.657-131.657s131.657 59.212 131.657 131.657v196.023zM526.629 213.943v204.8h-29.257v-204.8h29.257zM394.971 170.057h204.8v29.257h-204.8v-29.257zM394.971 53.029h204.8v29.257h-204.8v-29.257zM413.885 496.17l87.771-87.771 20.688 20.688-87.771 87.771-20.688-20.688zM589.427 516.858l-87.771-87.771 20.688-20.688 87.771 87.771-20.688 20.688z" />
<glyph unicode="&#xe927;" glyph-name="leaf" d="M976.941 931.091c10.809-2.402 17.802-58.342 17.802-161.263 0-405.060-216.016-687.543-526.629-687.543-198.993 0-365.714 162.357-365.714 365.714 0 246.689 212.512 394.971 526.629 394.971 121.716 0 207.611 16.46 271.447 45.316 21.615 9.771 32.138 16.012 57.975 32.851 12.636 8.235 17.039 10.206 19.047 9.841l-0.557 0.112zM982.731 959.764c-16.059 2.92-77.99-37.441-94.307-44.817-59.82-27.041-141.633-42.719-259.395-42.719-328.493 0-555.886-158.666-555.886-424.229 0-219.692 179.991-394.971 394.971-394.971 328.742 0 555.886 297.034 555.886 716.8 0 131.136-6.382 182.194-40.712 189.823l-0.557 0.112zM460.043 460.201c-185.823-122.929-378.342-336.546-458.595-503.226l26.361-12.692c77.891 161.774 266.827 371.415 448.376 491.517l-16.142 24.401z" />
<glyph unicode="&#xe928;" glyph-name="left-align" d="M15.515 897.939h992.97v31.030h-992.97v-31.030zM15.515 587.636h682.667v31.030h-682.667v-31.030zM15.515 277.333h992.97v31.030h-992.97v-31.030zM15.515-32.97h682.667v31.030h-682.667v-31.030z" />
<glyph unicode="&#xe929;" glyph-name="lifebuoy" d="M92.056 721.45l216.503-216.503 20.688 20.688-216.503 216.503-20.688-20.688zM694.824 367.369l216.503-213.577 20.547 20.828-216.503 213.577-20.547-20.828zM568.947 244.559l216.503-216.503 20.688 20.688-216.503 216.503-20.688-20.688zM454.982 651.511l-216.503 213.577-20.547-20.828 216.503-213.577 20.547 20.828zM512-64c282.77 0 512 229.23 512 512s-229.23 512-512 512c-282.77 0-512-229.23-512-512s229.23-512 512-512v0zM512-34.743c-266.612 0-482.743 216.131-482.743 482.743s216.131 482.743 482.743 482.743c266.612 0 482.743-216.131 482.743-482.743s-216.131-482.743-482.743-482.743v0zM512 228.571c121.187 0 219.429 98.242 219.429 219.429s-98.242 219.429-219.429 219.429c-121.187 0-219.429-98.242-219.429-219.429s98.242-219.429 219.429-219.429v0zM512 257.829c-105.029 0-190.171 85.143-190.171 190.171s85.143 190.171 190.171 190.171c105.029 0 190.171-85.143 190.171-190.171s-85.143-190.171-190.171-190.171v0zM238.55 28.056l216.503 216.503-20.688 20.688-216.503-216.503 20.688-20.688zM589.565 630.683l216.503 213.577-20.547 20.828-216.503-213.577 20.547-20.828zM715.441 504.947l216.503 216.503-20.688 20.688-216.503-216.503 20.688-20.688zM308.63 388.197l-216.503-213.577 20.547-20.828 216.503 213.577-20.547 20.828z" />
<glyph unicode="&#xe92a;" glyph-name="link" d="M523.679 717.096l161.858 161.858c59.615 59.615 151.557 59.615 211.172 0l46.245-46.245c59.615-59.615 59.615-151.557 0-211.172l-257.652-257.652c-59.615-59.615-151.557-59.615-211.172 0l-46.245 46.245-23.357-23.357 46.245-46.245c72.514-72.514 185.372-72.514 257.886 0l257.652 257.652c72.514 72.514 72.514 185.372 0 257.886l-46.245 46.245c-72.514 72.514-185.372 72.514-257.886 0l-161.858-161.858 23.357-23.357zM500.321 178.904l-161.858-161.858c-59.615-59.615-151.557-59.615-211.172 0l-46.245 46.245c-59.615 59.615-59.615 151.557 0 211.172l257.652 257.652c59.615 59.615 151.557 59.615 211.172 0l46.245-46.245 23.357 23.357-46.245 46.245c-72.514 72.514-185.372 72.514-257.886 0l-257.652-257.652c-72.514-72.514-72.514-185.372 0-257.886l46.245-46.245c72.514-72.514 185.372-72.514 257.886 0l161.858 161.858-23.357 23.357z" />
<glyph unicode="&#xe92b;" glyph-name="lock" d="M781.474-37.053h-538.947c-51.843 0-94.316 42.473-94.316 94.316v350.316c0 51.843 42.473 94.316 94.316 94.316h538.947c51.843 0 94.316-42.473 94.316-94.316v-350.316c0-51.843-42.473-94.316-94.316-94.316v0zM781.474-64c66.726 0 121.263 54.538 121.263 121.263v350.316c0 66.726-54.538 121.263-121.263 121.263h-538.947c-66.726 0-121.263-54.538-121.263-121.263v-350.316c0-66.726 54.538-121.263 121.263-121.263h538.947zM754.526 528.842h-485.053l13.474-13.474v188.632c0 127.296 101.757 229.053 229.053 229.053s229.053-101.757 229.053-229.053v-188.632l13.474 13.474zM754.526 501.895h13.474v202.105c0 142.178-113.822 256-256 256s-256-113.822-256-256v-202.105h498.526z" />
<glyph unicode="&#xe92c;" glyph-name="map-marker" d="M512 918.486c191.622 0 345.946-154.324 345.946-345.946 0-49.374-10.144-97.388-29.283-141.135-17.489-37.885-39.076-70.942-63.529-95.394l-262.919-262.919h19.57l-262.919 262.919c-24.452 24.452-46.040 57.509-63.642 95.646-19.026 43.494-29.17 91.509-29.17 140.882 0 191.622 154.324 345.946 345.946 345.946v0zM512 946.162c-206.907 0-373.622-166.714-373.622-373.622 0-53.211 10.941-105 31.603-152.228 18.989-41.149 42.323-76.879 69.314-103.871l272.704-272.704 272.704 272.704c26.992 26.992 50.326 62.722 69.201 103.618 20.776 47.48 31.717 99.269 31.717 152.48 0 206.907-166.714 373.622-373.622 373.622v0zM111.286 244.409l-88.371-294.571h978.17l-88.371 294.571-26.508-7.953 83.027-276.757 13.254 17.814h-940.973l13.254-17.814 83.027 276.757-26.508 7.953zM512 420.324c84.067 0 152.216 68.15 152.216 152.216s-68.15 152.216-152.216 152.216c-84.067 0-152.216-68.15-152.216-152.216s68.15-152.216 152.216-152.216v0zM512 448c-68.782 0-124.541 55.759-124.541 124.541s55.759 124.541 124.541 124.541c68.782 0 124.541-55.759 124.541-124.541s-55.759-124.541-124.541-124.541v0z" />
<glyph unicode="&#xe92d;" glyph-name="map" d="M674.588 801.452l-320.126 133.386-328.205-136.752v-842.393l333.254 138.856h-10.099l320.126-133.386 328.205 136.752v842.393l-333.254-138.856h10.099zM664.489 777.215l5.049-2.104 320.126 133.386-18.178 12.118v-813.949l8.079 12.118-315.077-131.282h10.099l-320.126 133.386-320.126-133.386 18.178-12.118v813.949l-8.079-12.118 315.077 131.282h-10.099l315.077-131.282zM341.333 894.359v-787.692h26.256v787.692h-26.256zM656.41 789.333v-787.692h26.256v787.692h-26.256z" />
<glyph unicode="&#xe92e;" glyph-name="marker" d="M512 388.267c86.402 0 156.444 70.043 156.444 156.444s-70.043 156.444-156.444 156.444c-86.402 0-156.444-70.043-156.444-156.444s70.043-156.444 156.444-156.444v0zM512 416.711c-70.692 0-128 57.308-128 128s57.308 128 128 128c70.692 0 128-57.308 128-128s-57.308-128-128-128v0zM512 928.711c211.168 0 384-172.832 384-384 0-54.907-10.963-106.983-32.908-156.357-17.095-39.886-42.075-77.712-71.016-106.653l-290.133-290.133h20.113l-290.133 290.133c-27.937 27.937-50.091 61.819-71.124 106.891-21.454 45.589-32.799 100.189-32.799 156.119 0 211.168 172.832 384 384 384v0zM512 957.156c-226.877 0-412.444-185.568-412.444-412.444 0-59.981 12.204-118.712 35.487-168.189 22.315-47.818 46.235-84.402 76.767-114.934l300.19-300.19 300.19 300.19c31.583 31.583 58.567 72.445 76.971 115.388 23.491 52.852 35.283 108.865 35.283 167.736 0 226.877-185.568 412.444-412.444 412.444v0z" />
<glyph unicode="&#xe92f;" glyph-name="music-double" d="M190.171-64c88.871 0 160.914 72.044 160.914 160.914s-72.044 160.914-160.914 160.914c-88.871 0-160.914-72.044-160.914-160.914s72.044-160.914 160.914-160.914v0zM190.171-34.743c-72.712 0-131.657 58.945-131.657 131.657s58.945 131.657 131.657 131.657c72.712 0 131.657-58.945 131.657-131.657s-58.945-131.657-131.657-131.657v0zM351.086 96.914v710.949c0 21.902 15.178 39.61 37.977 44.17l525.772 72.998c26.033 4.333 50.65-17.388 50.65-44.025v-693.394h29.257v693.394c0 44.441-40.569 80.237-84.325 72.944l-526.236-73.083c-37.076-7.389-62.353-36.879-62.353-73.004v-710.949h29.257zM338.434 638.306l643.657 87.771-3.953 28.989-643.657-87.771 3.953-28.989zM833.829 23.771c88.871 0 160.914 72.044 160.914 160.914s-72.044 160.914-160.914 160.914c-88.871 0-160.914-72.044-160.914-160.914s72.044-160.914 160.914-160.914v0zM833.829 53.029c-72.712 0-131.657 58.945-131.657 131.657s58.945 131.657 131.657 131.657c72.712 0 131.657-58.945 131.657-131.657s-58.945-131.657-131.657-131.657v0z" />
<glyph unicode="&#xe930;" glyph-name="music" d="M304-64c97.202 0 176 78.798 176 176s-78.798 176-176 176c-97.202 0-176-78.798-176-176s78.798-176 176-176v0zM304-32c-79.529 0-144 64.471-144 144s64.471 144 144 144c79.529 0 144-64.471 144-144s-64.471-144-144-144v0zM461.587 704.183l377.6-57.6c28.675-4.781 56.813 18.668 56.813 47.817v160c0 22.595-16.907 42.319-37.719 47.522l-353.437 54.69c-28.706 4.785-56.844-18.663-56.844-47.812v-793.6h32v793.6c0 9.251 10.262 17.802 19.77 16.218l352.187-54.43c5.678-1.489 12.044-8.916 12.044-16.188v-160c0-9.251-10.262-17.802-19.77-16.218l-377.818 57.635-4.826-31.634z" />
<glyph unicode="&#xe931;" glyph-name="news" d="M175.158 730.947h485.053l-13.474 13.474v-215.579l13.474 13.474h-485.053l13.474-13.474v215.579l-13.474-13.474zM175.158 757.895h-13.474v-242.526h512v242.526h-498.526zM148.211 380.632h538.947v26.947h-538.947v-26.947zM148.211 245.895h538.947v26.947h-538.947v-26.947zM148.211 111.158h269.474v26.947h-269.474v-26.947zM821.895 650.105h107.789c38.369 0 67.368-28.999 67.368-67.368v-498.526c0-43.759-37.083-80.842-80.842-80.842s-80.842 37.083-80.842 80.842v741.053c0 53.252-41.064 94.316-94.316 94.316h-646.737c-53.252 0-94.316-41.064-94.316-94.316v-754.526c0-53.252 41.064-94.316 94.316-94.316h808.421v26.947h-808.421c-38.369 0-67.368 28.999-67.368 67.368v754.526c0 38.369 28.999 67.368 67.368 67.368h646.737c38.369 0 67.368-28.999 67.368-67.368v-741.053c0-58.641 49.148-107.789 107.789-107.789s107.789 49.148 107.789 107.789v498.526c0 53.252-41.064 94.316-94.316 94.316h-107.789v-26.947z" />
<glyph unicode="&#xe932;" glyph-name="nut" d="M512 240.432c114.636 0 207.568 92.931 207.568 207.568s-92.931 207.568-207.568 207.568c-114.636 0-207.568-92.931-207.568-207.568s92.931-207.568 207.568-207.568v0zM512 268.108c-99.352 0-179.892 80.54-179.892 179.892s80.54 179.892 179.892 179.892c99.352 0 179.892-80.54 179.892-179.892s-80.54-179.892-179.892-179.892v0zM131.438 723.831l332.108 190.962c28.977 16.903 67.93 16.903 96.832 0.043l332.183-191.005c29.789-17.377 48.411-49.301 48.411-84.869v-384.692c0-32.928-18.738-65.050-49.189-85.351l-331.33-190.48c-28.977-16.903-67.93-16.903-96.832-0.043l-332.183 191.005c-29.789 17.377-48.411 49.301-48.411 84.869v384.692c0 35.568 18.622 67.492 48.486 84.912l-0.075-0.043zM117.568 747.78c-38.306-22.345-62.217-63.335-62.217-108.818v-384.692c0-45.483 23.911-86.473 62.217-108.818l332.183-191.005c37.445-21.843 87.054-21.843 124.573 0.043l332.033 190.919c38.635 25.721 62.291 66.274 62.291 108.861v384.692c0 45.483-23.911 86.473-62.217 108.818l-332.183 191.005c-37.445 21.843-87.054 21.843-124.573-0.043l-332.108-190.962z" />
<glyph unicode="&#xe933;" glyph-name="off" d="M497.371 945.371v-523.703h29.257v523.703h-29.257zM755.285 763.653c112.858-78.132 180.944-206.654 180.944-347.835 0-234.755-189.473-424.229-424.229-424.229s-424.229 189.473-424.229 424.229c0 139.22 69.238 268.464 181.090 347.938l-16.946 23.85c-119.444-84.868-193.401-222.922-193.401-371.788 0-250.913 202.572-453.486 453.486-453.486s453.486 202.572 453.486 453.486c0 150.832-72.837 288.321-193.548 371.89l-16.653-24.055z" />
<glyph unicode="&#xe934;" glyph-name="pencil-adv" d="M67.368-64h862.316v26.947h-862.316v-26.947zM411.323 199.576l-266.779-75.453 16.632-16.632 75.453 266.779-3.438-5.86 514.695 514.695c32.405 32.405 82.885 32.405 112.641 0.359l56.936-56.949c32.405-32.405 32.405-82.885 0.359-112.641l-512.409-517.786 5.91 3.488zM418.656 173.645l3.414 0.966 514.496 519.912c42.998 39.911 42.998 107.999-0.050 151.047l-56.589 56.589c-39.961 43.048-108.049 43.048-151.097 0l-517.177-517.177-82.967-293.348 289.97 82.012zM861.064 635.38l-188.632 188.632-19.055-19.055 188.632-188.632 19.055 19.055z" />
<glyph unicode="&#xe935;" glyph-name="pencil" d="M365.038 84.36l-307.2-86.885 19.152-19.152 86.885 307.2-3.959-6.748 592.679 592.679c37.314 37.314 95.443 37.314 129.708 0.414l65.562-65.577c37.314-37.314 37.314-95.443 0.414-129.708l-590.047-596.238 6.806 4.016zM373.483 54.501l3.932 1.112 592.45 598.686c49.513 45.958 49.513 124.362-0.057 173.933l-65.164 65.164c-46.015 49.57-124.42 49.57-173.99 0l-595.537-595.537-95.538-337.795 333.905 94.438zM885.947 586.273l-220.315 217.212-21.786-22.097 220.315-217.212 21.786 22.097z" />
<glyph unicode="&#xe936;" glyph-name="person" d="M210.452 62.327c16.45 98.703 82.118 183.46 173.174 226.142l-12.418 26.491c-99.667-46.719-171.564-139.516-189.615-247.824l28.859-4.81zM640.956 288.211c31.555-13.148 62.29-34.591 88.905-61.206 45.861-45.861 75.712-102.010 86.629-164.78l28.824 5.013c-11.967 68.811-44.711 130.4-94.765 180.455-29.198 29.198-63.068 52.828-98.34 67.525l-11.253-27.007zM512-64c282.77 0 512 229.23 512 512s-229.23 512-512 512c-282.77 0-512-229.23-512-512s229.23-512 512-512v0zM512-34.743c-266.612 0-482.743 216.131-482.743 482.743s216.131 482.743 482.743 482.743c266.612 0 482.743-216.131 482.743-482.743s-216.131-482.743-482.743-482.743v0zM512 228.571c121.654 0 219.429 111.743 219.429 248.686s-97.775 248.686-219.429 248.686c-121.654 0-219.429-111.743-219.429-248.686s97.775-248.686 219.429-248.686v0zM512 257.829c-104.562 0-190.171 97.839-190.171 219.429s85.609 219.429 190.171 219.429c104.562 0 190.171-97.839 190.171-219.429s-85.609-219.429-190.171-219.429v0z" />
<glyph unicode="&#xe937;" glyph-name="phone" d="M687.543-34.743h-351.086c-56.287 0-102.4 46.113-102.4 102.4v760.686c0 56.287 46.113 102.4 102.4 102.4h351.086c56.287 0 102.4-46.113 102.4-102.4v-760.686c0-56.287-46.113-102.4-102.4-102.4v0zM687.543-64c72.445 0 131.657 59.212 131.657 131.657v760.686c0 72.445-59.212 131.657-131.657 131.657h-351.086c-72.445 0-131.657-59.212-131.657-131.657v-760.686c0-72.445 59.212-131.657 131.657-131.657h351.086zM512 23.771c24.237 0 43.886 19.648 43.886 43.886s-19.648 43.886-43.886 43.886c-24.237 0-43.886-19.648-43.886-43.886s19.648-43.886 43.886-43.886v0zM512 53.029c-8.079 0-14.629 6.549-14.629 14.629s6.549 14.629 14.629 14.629c8.079 0 14.629-6.549 14.629-14.629s-6.549-14.629-14.629-14.629v0zM453.486 842.971h117.029v29.257h-117.029v-29.257z" />
<glyph unicode="&#xe938;" glyph-name="photo" d="M899.459 19.027h-774.919c-53.244 0-96.865 43.621-96.865 96.865v498.162c0 53.244 43.621 96.865 96.865 96.865h148.421l44.627 136.856c6.615 17.604 21.688 29.198 39.428 29.198h307.2c17.74 0 32.812-11.594 39.627-29.767l44.428-136.287h148.421c53.244 0 96.865-43.621 96.865-96.865v-498.162c2.401-53.127-40.583-96.865-94.097-96.865v0zM899.459-8.649c69.118 0 124.87 56.73 121.759 125.169l0.014 497.534c0 68.529-56.012 124.541-124.541 124.541h-138.378l13.156-9.548-41.514 127.308c-10.888 29.071-35.877 48.294-65.74 48.294h-307.2c-29.862 0-54.852-19.223-65.541-47.725l-41.713-127.877 13.156 9.548h-138.378c-68.529 0-124.541-56.012-124.541-124.541v-498.162c0-68.529 56.012-124.541 124.541-124.541h774.919zM512 129.73c145.206 0 262.919 117.713 262.919 262.919s-117.713 262.919-262.919 262.919c-145.206 0-262.919-117.713-262.919-262.919s117.713-262.919 262.919-262.919v0zM512 157.405c-129.921 0-235.243 105.322-235.243 235.243s105.322 235.243 235.243 235.243c129.921 0 235.243-105.322 235.243-235.243s-105.322-235.243-235.243-235.243v0z" />
<glyph unicode="&#xe939;" glyph-name="right-align" d="M1008.485 928.97h-992.97v-31.030h992.97v31.030zM1008.485 618.667h-682.667v-31.030h682.667v31.030zM1008.485 308.364h-992.97v-31.030h992.97v31.030zM1008.485-1.939h-682.667v-31.030h682.667v31.030z" />
<glyph unicode="&#xe93a;" glyph-name="rule" d="M980.114 287.086h-936.229c-9.475 0-14.629 5.153-14.629 14.629v292.571c0 9.475 5.153 14.629 14.629 14.629h936.229c9.475 0 14.629-5.153 14.629-14.629v-292.571c0-9.475-5.153-14.629-14.629-14.629v0zM980.114 257.829c25.633 0 43.886 18.252 43.886 43.886v292.571c0 25.633-18.252 43.886-43.886 43.886h-936.229c-25.633 0-43.886-18.252-43.886-43.886v-292.571c0-25.633 18.252-43.886 43.886-43.886h936.229zM117.029 623.543v-175.543h29.257v175.543h-29.257zM497.371 623.543v-175.543h29.257v175.543h-29.257zM877.714 623.543v-175.543h29.257v175.543h-29.257zM292.571 594.286v-87.771h29.257v87.771h-29.257zM672.914 594.286v-87.771h29.257v87.771h-29.257z" />
<glyph unicode="&#xe93b;" glyph-name="settings" d="M325.818 742.788h682.667v31.030h-682.667v-31.030zM15.515 742.788h124.121v31.030h-124.121v-31.030zM884.364 432.485h124.121v31.030h-124.121v-31.030zM15.515 432.485h682.667v31.030h-682.667v-31.030zM512 122.182h496.485v31.030h-496.485v-31.030zM15.515 122.182h310.303v31.030h-310.303v-31.030zM232.727 649.697c59.981 0 108.606 48.625 108.606 108.606s-48.625 108.606-108.606 108.606c-59.981 0-108.606-48.625-108.606-108.606s48.625-108.606 108.606-108.606v0zM232.727 680.727c-42.844 0-77.576 34.732-77.576 77.576s34.732 77.576 77.576 77.576c42.844 0 77.576-34.732 77.576-77.576s-34.732-77.576-77.576-77.576v0zM791.273 339.394c59.981 0 108.606 48.625 108.606 108.606s-48.625 108.606-108.606 108.606c-59.981 0-108.606-48.625-108.606-108.606s48.625-108.606 108.606-108.606v0zM791.273 370.424c-42.844 0-77.576 34.732-77.576 77.576s34.732 77.576 77.576 77.576c42.844 0 77.576-34.732 77.576-77.576s-34.732-77.576-77.576-77.576v0zM418.909 29.091c59.981 0 108.606 48.625 108.606 108.606s-48.625 108.606-108.606 108.606c-59.981 0-108.606-48.625-108.606-108.606s48.625-108.606 108.606-108.606v0zM418.909 60.121c-42.844 0-77.576 34.732-77.576 77.576s34.732 77.576 77.576 77.576c42.844 0 77.576-34.732 77.576-77.576s-34.732-77.576-77.576-77.576v0z" />
<glyph unicode="&#xe93c;" glyph-name="share" d="M190.171 257.829c105.029 0 190.171 85.143 190.171 190.171s-85.143 190.171-190.171 190.171c-105.029 0-190.171-85.143-190.171-190.171s85.143-190.171 190.171-190.171v0zM190.171 287.086c-88.871 0-160.914 72.044-160.914 160.914s72.044 160.914 160.914 160.914c88.871 0 160.914-72.044 160.914-160.914s-72.044-160.914-160.914-160.914v0zM833.829 579.657c105.029 0 190.171 85.143 190.171 190.171s-85.143 190.171-190.171 190.171c-105.029 0-190.171-85.143-190.171-190.171s85.143-190.171 190.171-190.171v0zM833.829 608.914c-88.871 0-160.914 72.044-160.914 160.914s72.044 160.914 160.914 160.914c88.871 0 160.914-72.044 160.914-160.914s-72.044-160.914-160.914-160.914v0zM833.829-64c105.029 0 190.171 85.143 190.171 190.171s-85.143 190.171-190.171 190.171c-105.029 0-190.171-85.143-190.171-190.171s85.143-190.171 190.171-190.171v0zM833.829-34.743c-88.871 0-160.914 72.044-160.914 160.914s72.044 160.914 160.914 160.914c88.871 0 160.914-72.044 160.914-160.914s-72.044-160.914-160.914-160.914v0zM359.172 347.144l292.571-146.286 13.084 26.168-292.571 146.286-13.084-26.168zM651.744 695.141l-292.571-146.286 13.084-26.168 292.571 146.286-13.084 26.168z" />
<glyph unicode="&#xe93d;" glyph-name="speed" d="M481.043 264.673l-131.657 248.686-25.857-13.689 131.657-248.686 25.857 13.689zM512 82.286c56.554 0 102.4 45.846 102.4 102.4s-45.846 102.4-102.4 102.4c-56.554 0-102.4-45.846-102.4-102.4s45.846-102.4 102.4-102.4v0zM512 111.543c-40.396 0-73.143 32.747-73.143 73.143s32.747 73.143 73.143 73.143c40.396 0 73.143-32.747 73.143-73.143s-32.747-73.143-73.143-73.143v0zM14.629 316.343h117.029v29.257h-117.029v-29.257zM1009.371 345.6h-117.029v-29.257h117.029v29.257zM934.663 592.266l-99.474-58.514 14.834-25.218 99.474 58.514-14.834 25.218zM748.077 768.468l-58.514-99.474 25.218-14.834 58.514 99.474-25.218 14.834zM497.371 828.343v-117.029h29.257v117.029h-29.257zM250.705 753.634l58.514-99.474 25.218 14.834-58.514 99.474-25.218-14.834zM74.503 567.048l99.474-58.514 14.834 25.218-99.474 58.514-14.834-25.218zM808.922 142.782l138.279-80.395 7.423 12.372c45.567 75.946 69.376 163.5 69.376 256.212 0 283.096-228.904 512-512 512s-512-228.904-512-512c0-92.712 23.809-180.266 69.376-256.212l7.423-12.372 138.279 80.395-14.705 25.293-125.806-73.143 19.897-5.12c-42.814 71.357-65.207 153.704-65.207 241.159 0 266.938 215.805 482.743 482.743 482.743s482.743-215.805 482.743-482.743c0-87.456-22.392-169.802-65.207-241.159l19.897 5.12-125.806 73.143-14.705-25.293z" />
<glyph unicode="&#xe93e;" glyph-name="stopwatch" d="M483.556-64c227.787 0 412.444 184.658 412.444 412.444s-184.658 412.444-412.444 412.444c-227.787 0-412.444-184.658-412.444-412.444s184.658-412.444 412.444-412.444v0zM483.556-35.556c-212.077 0-384 171.923-384 384s171.923 384 384 384c212.077 0 384-171.923 384-384s-171.923-384-384-384v0zM426.667 931.556h113.778c9.212 0 14.222-5.010 14.222-14.222v-56.889c0-9.212-5.010-14.222-14.222-14.222h-113.778c-9.212 0-14.222 5.010-14.222 14.222v56.889c0 9.212 5.010 14.222 14.222 14.222v0zM426.667 960c-24.921 0-42.667-17.745-42.667-42.667v-56.889c0-24.921 17.745-42.667 42.667-42.667h113.778c24.921 0 42.667 17.745 42.667 42.667v56.889c0 24.921-17.745 42.667-42.667 42.667h-113.778zM469.333 832v-85.333h28.444v85.333h-28.444zM794.921 782.121l122.311-122.311 20.113 20.113-122.311 122.311-20.113-20.113zM854.654 739.657l-99.556-99.556 20.113-20.113 99.556 99.556-20.113 20.113zM497.778 348.444v256h-28.444v-256h28.444zM540.444 348.444c0-31.419-25.47-56.889-56.889-56.889s-56.889 25.47-56.889 56.889c0 31.419 25.47 56.889 56.889 56.889s56.889-25.47 56.889-56.889z" />
<glyph unicode="&#xe93f;" glyph-name="table-no" d="M331.277 452.166l341.333-341.333 20.113 20.113-341.333 341.333-20.113-20.113zM672.61 472.279l-341.333-341.333 20.113-20.113 341.333 341.333-20.113 20.113zM881.778-35.556h-739.556c-54.723 0-99.556 44.832-99.556 99.556v654.222c0 54.723 44.832 99.556 99.556 99.556h739.556c54.723 0 99.556-44.832 99.556-99.556v-654.222c0-54.723-44.832-99.556-99.556-99.556v0zM881.778-64c70.432 0 128 57.568 128 128v654.222c0 70.432-57.568 128-128 128h-739.556c-70.432 0-128-57.568-128-128v-654.222c0-70.432 57.568-128 128-128h739.556zM28.444 590.222h967.111v28.444h-967.111v-28.444zM241.778 945.778v-199.111h28.444v199.111h-28.444zM753.778 945.778v-199.111h28.444v199.111h-28.444z" />
<glyph unicode="&#xe940;" glyph-name="table-ok" d="M881.778-35.556h-739.556c-54.723 0-99.556 44.832-99.556 99.556v654.222c0 54.723 44.832 99.556 99.556 99.556h739.556c54.723 0 99.556-44.832 99.556-99.556v-654.222c0-54.723-44.832-99.556-99.556-99.556v0zM881.778-64c70.432 0 128 57.568 128 128v654.222c0 70.432-57.568 128-128 128h-739.556c-70.432 0-128-57.568-128-128v-654.222c0-70.432 57.568-128 128-128h739.556zM28.444 590.222h967.111v28.444h-967.111v-28.444zM241.778 945.778v-199.111h28.444v199.111h-28.444zM753.778 945.778v-199.111h28.444v199.111h-28.444zM331.277 281.499l152.279-152.279 294.501 294.501-20.113 20.113-284.444-284.444h20.113l-142.222 142.222-20.113-20.113z" />
<glyph unicode="&#xe941;" glyph-name="table" d="M867.556-35.556h-739.556c-54.723 0-99.556 44.832-99.556 99.556v654.222c0 54.723 44.832 99.556 99.556 99.556h739.556c54.723 0 99.556-44.832 99.556-99.556v-654.222c0-54.723-44.832-99.556-99.556-99.556v0zM867.556-64c70.432 0 128 57.568 128 128v654.222c0 70.432-57.568 128-128 128h-739.556c-70.432 0-128-57.568-128-128v-654.222c0-70.432 57.568-128 128-128h739.556zM42.667 590.222h967.111v28.444h-967.111v-28.444zM227.556 945.778v-199.111h28.444v199.111h-28.444zM739.556 945.778v-199.111h28.444v199.111h-28.444z" />
<glyph unicode="&#xe942;" glyph-name="tablet" d="M775.314-34.743h-526.629c-56.287 0-102.4 46.113-102.4 102.4v760.686c0 56.287 46.113 102.4 102.4 102.4h526.629c56.287 0 102.4-46.113 102.4-102.4v-760.686c0-56.287-46.113-102.4-102.4-102.4v0zM775.314-64c72.445 0 131.657 59.212 131.657 131.657v760.686c0 72.445-59.212 131.657-131.657 131.657h-526.629c-72.445 0-131.657-59.212-131.657-131.657v-760.686c0-72.445 59.212-131.657 131.657-131.657h526.629zM512 23.771c24.237 0 43.886 19.648 43.886 43.886s-19.648 43.886-43.886 43.886c-24.237 0-43.886-19.648-43.886-43.886s19.648-43.886 43.886-43.886v0zM512 53.029c-8.079 0-14.629 6.549-14.629 14.629s6.549 14.629 14.629 14.629c8.079 0 14.629-6.549 14.629-14.629s-6.549-14.629-14.629-14.629v0zM453.486 842.971h117.029v29.257h-117.029v-29.257z" />
<glyph unicode="&#xe943;" glyph-name="tag" d="M465.299 11.382l124.121 868.848-30.718 4.388-124.121-868.848 30.718-4.388zM273.965 768.703l-260.655-288.582c-14.585-19.339-14.585-46.582 0.543-61.71l260.112-288.011 23.028 20.799-260.655 288.582c-4.033 4.062-4.033 14.055 0.898 20.631l259.756 287.491-23.028 20.799zM750.035 127.297l260.655 288.582c14.585 19.339 14.585 46.582-0.543 61.71l-260.112 288.011-23.028-20.799 260.655-288.582c4.033-4.062 4.033-14.055-0.898-20.631l-259.756-287.491 23.028-20.799z" />
<glyph unicode="&#xe944;" glyph-name="target" d="M512 269.395c98.641 0 178.605 79.964 178.605 178.605s-79.964 178.605-178.605 178.605c-98.641 0-178.605-79.964-178.605-178.605s79.964-178.605 178.605-178.605v0zM512 293.209c-85.489 0-154.791 69.302-154.791 154.791s69.302 154.791 154.791 154.791c85.489 0 154.791-69.302 154.791-154.791s-69.302-154.791-154.791-154.791v0zM512 102.698c190.705 0 345.302 154.597 345.302 345.302s-154.597 345.302-345.302 345.302c-190.705 0-345.302-154.597-345.302-345.302s154.597-345.302 345.302-345.302v0zM512 126.512c-177.553 0-321.488 143.935-321.488 321.488s143.935 321.488 321.488 321.488c177.553 0 321.488-143.935 321.488-321.488s-143.935-321.488-321.488-321.488v0zM500.093 948.093v-166.698h23.814v166.698h-23.814zM845.395 436.093h166.698v23.814h-166.698v-23.814zM523.907-52.093v166.698h-23.814v-166.698h23.814zM178.605 459.907h-166.698v-23.814h166.698v23.814z" />
<glyph unicode="&#xe945;" glyph-name="text" d="M892.343-34.743h-760.686c-56.287 0-102.4 46.113-102.4 102.4v760.686c0 56.287 46.113 102.4 102.4 102.4h760.686c56.287 0 102.4-46.113 102.4-102.4v-760.686c0-56.287-46.113-102.4-102.4-102.4v0zM892.343-64c72.445 0 131.657 59.212 131.657 131.657v760.686c0 72.445-59.212 131.657-131.657 131.657h-760.686c-72.445 0-131.657-59.212-131.657-131.657v-760.686c0-72.445 59.212-131.657 131.657-131.657h760.686zM160.914 725.943h702.171v29.257h-702.171v-29.257zM160.914 521.143h702.171v29.257h-702.171v-29.257zM160.914 345.6h702.171v29.257h-702.171v-29.257zM160.914 140.8h702.171v29.257h-702.171v-29.257z" />
<glyph unicode="&#xe946;" glyph-name="trash-o" d="M857.946 780.108v-691.892c0-53.244-43.621-96.865-96.865-96.865h-498.162c-53.244 0-96.865 43.621-96.865 96.865v691.892h-27.676v-691.892c0-68.529 56.012-124.541 124.541-124.541h498.162c68.529 0 124.541 56.012 124.541 124.541v691.892h-27.676zM13.838 766.27h996.324v27.676h-996.324v-27.676zM678.054 793.946h-332.108l13.838-13.838v83.027c0 22.801 18.713 41.514 41.514 41.514h221.405c22.801 0 41.514-18.713 41.514-41.514v-83.027l13.838 13.838zM678.054 766.27h13.838v96.865c0 38.086-31.104 69.189-69.189 69.189h-221.405c-38.086 0-69.189-31.104-69.189-69.189v-96.865h345.946z" />
<glyph unicode="&#xe947;" glyph-name="trash" d="M857.946 780.108v-691.892c0-53.244-43.621-96.865-96.865-96.865h-498.162c-53.244 0-96.865 43.621-96.865 96.865v691.892h-27.676v-691.892c0-68.529 56.012-124.541 124.541-124.541h498.162c68.529 0 124.541 56.012 124.541 124.541v691.892h-27.676zM13.838 766.27h996.324v27.676h-996.324v-27.676zM678.054 793.946h-332.108l13.838-13.838v83.027c0 22.801 18.713 41.514 41.514 41.514h221.405c22.801 0 41.514-18.713 41.514-41.514v-83.027l13.838 13.838zM678.054 766.27h13.838v96.865c0 38.086-31.104 69.189-69.189 69.189h-221.405c-38.086 0-69.189-31.104-69.189-69.189v-96.865h345.946zM498.162 641.73v-525.838h27.676v525.838h-27.676zM664.216 641.73v-525.838h27.676v525.838h-27.676zM332.108 641.73v-525.838h27.676v525.838h-27.676z" />
<glyph unicode="&#xe948;" glyph-name="triggers" d="M219.429 550.4c-106.024 0-190.171 84.148-190.171 190.171s84.148 190.171 190.171 190.171h585.143c106.024 0 190.171-84.148 190.171-190.171s-84.148-190.171-190.171-190.171h-585.143zM219.429 521.143h585.143c122.182 0 219.429 97.247 219.429 219.429s-97.247 219.429-219.429 219.429h-585.143c-122.182 0-219.429-97.247-219.429-219.429s97.247-219.429 219.429-219.429v0zM219.429 930.743c106.024 0 190.171-84.148 190.171-190.171s-84.148-190.171-190.171-190.171v-29.257c122.182 0 219.429 97.247 219.429 219.429s-97.247 219.429-219.429 219.429v-29.257zM804.571 345.6c106.024 0 190.171-84.148 190.171-190.171s-84.148-190.171-190.171-190.171h-585.143c-106.024 0-190.171 84.148-190.171 190.171s84.148 190.171 190.171 190.171h585.143zM804.571 374.857h-585.143c-122.182 0-219.429-97.247-219.429-219.429s97.247-219.429 219.429-219.429h585.143c122.182 0 219.429 97.247 219.429 219.429s-97.247 219.429-219.429 219.429v0zM804.571-34.743c-106.024 0-190.171 84.148-190.171 190.171s84.148 190.171 190.171 190.171v29.257c-122.182 0-219.429-97.247-219.429-219.429s97.247-219.429 219.429-219.429v29.257z" />
<glyph unicode="&#xe949;" glyph-name="unlock" d="M781.474-37.053h-538.947c-51.843 0-94.316 42.473-94.316 94.316v350.316c0 51.843 42.473 94.316 94.316 94.316h538.947c51.843 0 94.316-42.473 94.316-94.316v-350.316c0-51.843-42.473-94.316-94.316-94.316v0zM781.474-64c66.726 0 121.263 54.538 121.263 121.263v350.316c0 66.726-54.538 121.263-121.263 121.263h-538.947c-66.726 0-121.263-54.538-121.263-121.263v-350.316c0-66.726 54.538-121.263 121.263-121.263h538.947zM282.947 515.368v188.632c0 127.296 101.757 229.053 229.053 229.053s229.053-101.757 229.053-229.053v-26.947h26.947v26.947c0 142.178-113.822 256-256 256s-256-113.822-256-256v-188.632h26.947z" />
<glyph unicode="&#xe94a;" glyph-name="volume-max" d="M585.143 907.337v-918.674c0-13.32-14.224-19.114-25.588-9.373l-283.425 260.061c-15.838 11.968-33.509 18.478-50.85 18.478h-93.623c-41.658 0-73.143 31.485-73.143 73.143v234.057c0 41.658 31.485 73.143 73.143 73.143h93.623c17.341 0 35.012 6.51 49.737 17.554l284.907 261.313c9.249 9.23 25.219 2.956 25.219-9.701v0zM614.4 907.337c0 39.066-47.721 57.813-74.71 30.824l-283.34-259.954c-8.778-6.494-20.408-10.779-31.070-10.779h-93.623c-57.816 0-102.4-44.584-102.4-102.4v-234.057c0-57.816 44.584-102.4 102.4-102.4h93.623c10.662 0 22.292-4.285 32.183-11.703l282.682-259.465c30.136-25.842 74.256-7.868 74.256 31.259v918.674zM702.835 672.458c112.242-129.079 112.242-319.838 0-448.916l22.078-19.198c121.815 140.087 121.815 347.225 0 487.312l-22.078-19.198zM820.199 818.372c193.716-207.96 193.716-529.859 0-737.818l21.408-19.942c204.181 219.195 204.181 558.507 0 777.702l-21.408-19.942z" />
<glyph unicode="&#xe94b;" glyph-name="volume-min" d="M568.889 894.578v-896c0-12.95-13.829-18.583-24.878-9.113l-278.45 252.886c-15.344 11.587-32.524 17.916-49.384 17.916h-91.022c-40.501 0-71.111 30.61-71.111 71.111v227.556c0 40.501 30.61 71.111 71.111 71.111h91.022c16.859 0 34.039 6.329 48.356 17.067l279.784 254.005c11.384 12.869 24.572 7.496 24.572-6.538v0zM597.333 894.578c0 39.799-45.4 58.296-73.281 26.432l-277.614-251.993c-8.588-6.363-19.895-10.528-30.261-10.528h-91.022c-56.21 0-99.556-43.345-99.556-99.556v-227.556c0-56.21 43.345-99.556 99.556-99.556h91.022c10.366 0 21.673-4.166 31.289-11.378l277.727-252.306c29.246-25.075 72.139-7.6 72.139 30.44v896zM715.277 580.166l284.444-284.444 20.113 20.113-284.444 284.444-20.113-20.113zM999.721 600.279l-284.444-284.444 20.113-20.113 284.444 284.444-20.113 20.113z" />
<glyph unicode="&#xe94c;" glyph-name="warning" d="M60.675 99.56l426.667 739.556c16.995 27.607 57.922 27.607 75.124-0.347l426.46-739.209c16.908-27.487-4.069-64.004-36.036-64.004h-853.333c-33.526 0-54.076 35.772-38.678 64.368l-0.203-0.364zM35.833 113.409c-25.478-47.317 8.405-106.298 63.722-106.298h853.333c54.032 0 88.933 60.754 60.468 107.009l-426.46 739.209c-28.516 46.349-95.678 46.349-123.987 0.347l-427.076-740.267zM512 618.667v-369.778h28.444v369.778h-28.444zM568.889 163.556c0-23.564-19.103-42.667-42.667-42.667s-42.667 19.103-42.667 42.667c0 23.564 19.103 42.667 42.667 42.667s42.667-19.103 42.667-42.667z" />
</font>
</defs>
</svg>
