<?xml version="1.0" encoding="UTF-8" standalone="no"?>
<svg width="35px" height="36px" viewBox="0 0 35 36" version="1.1" xmlns="http://www.w3.org/2000/svg" xmlns:xlink="http://www.w3.org/1999/xlink" xmlns:sketch="http://www.bohemiancoding.com/sketch/ns">
    <!-- Generator: Sketch 3.4.4 (17249) - http://www.bohemiancoding.com/sketch -->
    <title>alarm</title>
    <desc>Created with Sketch.</desc>
    <defs></defs>
    <g id="Page-1" stroke="none" stroke-width="1" fill="none" fill-rule="evenodd" sketch:type="MSPage">
        <g id="Bicons_v3-[Converted]" sketch:type="MSLayerGroup" transform="translate(-199.000000, -264.000000)" fill="#14171C">
            <g id="alarm" transform="translate(198.000000, 263.000000)" sketch:type="MSShapeGroup">
                <path d="M18.5,34 C27.0604136,34 34,27.0604136 34,18.5 C34,9.93958638 27.0604136,3 18.5,3 C9.93958638,3 3,9.93958638 3,18.5 C3,27.0604136 9.93958638,34 18.5,34 L18.5,34 Z M18.5,33 C10.4918711,33 4,26.5081289 4,18.5 C4,10.4918711 10.4918711,4 18.5,4 C26.5081289,4 33,10.4918711 33,18.5 C33,26.5081289 26.5081289,33 18.5,33 L18.5,33 Z" id="Shape"></path>
                <path d="M18,9.5 L18,18.5 L18,18.7675919 L18.2226499,18.9160251 L24.2226499,22.9160251 L24.7773501,22.0839749 L18.7773501,18.0839749 L19,18.5 L19,9.5 L18,9.5 L18,9.5 Z" id="Shape"></path>
                <path d="M27.1095656,31.8123475 L31.1095656,36.8123475 L31.8904344,36.1876525 L27.8904344,31.1876525 L27.1095656,31.8123475 L27.1095656,31.8123475 Z" id="Shape"></path>
                <path d="M9.1095656,31.1876525 L5.1095656,36.1876525 L5.8904344,36.8123475 L9.8904344,31.8123475 L9.1095656,31.1876525 L9.1095656,31.1876525 Z" id="Shape"></path>
                <path d="M27.2773501,3.31602515 L28.1773501,2.71602515 C29.8624715,1.56309129 32.2044909,1.802616 33.7573177,3.2641 C35.198062,4.7051688 35.4376408,7.04771716 34.2807782,8.82750582 L33.6839749,9.7226499 L34.5160251,10.2773501 L35.1160251,9.3773501 C36.532903,7.19760007 36.2399127,4.33280588 34.4535534,2.54644661 C32.5548716,0.759136991 29.6941825,0.466566506 27.617658,1.88734637 L26.7226499,2.48397485 L27.2773501,3.31602515 L27.2773501,3.31602515 Z" id="Shape"></path>
                <path d="M10.2773501,2.48397485 L9.3773501,1.88397485 C7.30581754,0.466566506 4.44512835,0.759136991 2.55731765,2.5359 C0.760087334,4.33280588 0.46709702,7.19760007 1.88077819,9.37249418 L2.48397485,10.2773501 L3.31602515,9.7226499 L2.71602515,8.8226499 C1.56235917,7.04771716 1.80193798,4.7051688 3.25355339,3.25355339 C4.7955091,1.802616 7.13752847,1.56309129 8.81765804,2.71265363 L9.7226499,3.31602515 L10.2773501,2.48397485 L10.2773501,2.48397485 Z" id="Shape"></path>
            </g>
        </g>
    </g>
</svg>