<?xml version="1.0" encoding="utf-8"?>
<!-- Generator: Adobe Illustrator 18.0.0, SVG Export Plug-In . SVG Version: 6.00 Build 0)  -->
<!DOCTYPE svg PUBLIC "-//W3C//DTD SVG 1.1//EN" "http://www.w3.org/Graphics/SVG/1.1/DTD/svg11.dtd">
<svg version="1.1" id="Layer_1" xmlns="http://www.w3.org/2000/svg" xmlns:xlink="http://www.w3.org/1999/xlink" x="0px" y="0px"
	 viewBox="0 0 612 792" enable-background="new 0 0 612 792" xml:space="preserve">
<g>
	<g>
		<path fill="#4EB8E9" d="M439.7,126.4c-1.9,0-3.7-0.4-5.3-1.1c-1.6-0.7-2.9-1.8-4-3.3h-0.3c0.2,1.7,0.3,3.4,0.3,4.9v12.2h-4.5v-43
			h3.7l0.6,4.1h0.2c1.2-1.6,2.5-2.8,4-3.5c1.5-0.7,3.3-1.1,5.3-1.1c3.9,0,7,1.3,9.1,4c2.1,2.7,3.2,6.5,3.2,11.3
			c0,4.9-1.1,8.7-3.3,11.4C446.6,125.1,443.6,126.4,439.7,126.4z M439.1,99.5c-3,0-5.2,0.8-6.6,2.5c-1.4,1.7-2,4.3-2.1,8v1
			c0,4.2,0.7,7.1,2.1,8.9c1.4,1.8,3.6,2.7,6.7,2.7c2.6,0,4.6-1,6-3.1c1.5-2.1,2.2-4.9,2.2-8.6c0-3.7-0.7-6.5-2.2-8.5
			C443.7,100.5,441.7,99.5,439.1,99.5z"/>
		<path fill="#4EB8E9" d="M462.4,125.9h-4.5V83.8h4.5V125.9z"/>
		<path fill="#4EB8E9" d="M488.2,125.9l-0.9-4.2h-0.2c-1.5,1.9-3,3.1-4.4,3.8c-1.5,0.7-3.3,1-5.5,1c-2.9,0-5.2-0.8-6.9-2.3
			c-1.7-1.5-2.5-3.7-2.5-6.5c0-6,4.8-9.1,14.4-9.4l5-0.2v-1.8c0-2.3-0.5-4-1.5-5.2c-1-1.1-2.6-1.7-4.8-1.7c-2.5,0-5.3,0.8-8.4,2.3
			l-1.4-3.4c1.5-0.8,3.1-1.4,4.8-1.9c1.7-0.5,3.5-0.7,5.2-0.7c3.5,0,6.2,0.8,7.9,2.4c1.7,1.6,2.6,4.1,2.6,7.5v20.2H488.2z
			 M478.1,122.7c2.8,0,5-0.8,6.6-2.3c1.6-1.5,2.4-3.7,2.4-6.4v-2.7l-4.5,0.2c-3.6,0.1-6.1,0.7-7.7,1.7c-1.6,1-2.4,2.5-2.4,4.6
			c0,1.6,0.5,2.9,1.5,3.7C475,122.3,476.3,122.7,478.1,122.7z"/>
		<path fill="#4EB8E9" d="M494.2,96.2h4.8l6.5,16.9c1.4,3.9,2.3,6.6,2.7,8.4h0.2c0.2-0.9,0.7-2.5,1.5-4.7c0.7-2.2,3.2-9.1,7.3-20.5
			h4.8L509.3,130c-1.3,3.3-2.7,5.7-4.4,7.1c-1.7,1.4-3.8,2.1-6.2,2.1c-1.4,0-2.7-0.2-4.1-0.5v-3.6c1,0.2,2.1,0.3,3.3,0.3
			c3.1,0,5.3-1.7,6.6-5.2l1.6-4.2L494.2,96.2z"/>
	</g>
	<g>
		<path fill="#4EB8E9" d="M356.5,99c1.4,1.2,4.4,3.7,4.4,8.4c0,4.6-2.6,6.8-5.2,8.8c-0.8,0.8-1.7,1.7-1.7,3c0,1.4,0.9,2.1,1.6,2.7
			l2.2,1.7c2.7,2.3,5.2,4.4,5.2,8.7c0,5.8-5.6,11.7-16.3,11.7c-9,0-13.3-4.3-13.3-8.9c0-2.2,1.1-5.4,4.8-7.6
			c3.8-2.4,9.1-2.7,11.8-2.9c-0.9-1.1-1.9-2.3-1.9-4.2c0-1.1,0.3-1.7,0.6-2.4c-0.7,0.1-1.4,0.1-2,0.1c-6.6,0-10.3-4.9-10.3-9.7
			c0-2.9,1.3-6,4-8.3c3.5-2.9,7.8-3.4,11.1-3.4h12.8l-4,2.2H356.5z M352.1,126.5c-0.5-0.1-0.8-0.1-1.4-0.1c-0.6,0-3.9,0.1-6.5,1
			c-1.4,0.5-5.3,2-5.3,6.4c0,4.4,4.3,7.6,10.9,7.6c6,0,9.1-2.9,9.1-6.7C358.9,131.5,356.8,129.9,352.1,126.5z M353.9,114.7
			c1.4-1.4,1.5-3.4,1.5-4.5c0-4.5-2.7-11.4-7.8-11.4c-1.6,0-3.3,0.8-4.3,2c-1.1,1.3-1.4,3-1.4,4.6c0,4.2,2.4,11,7.8,11
			C351.2,116.5,352.9,115.7,353.9,114.7z"/>
		<path fill="#4EB8E9" d="M317.5,125.5c-9.8,0-15.1-7.7-15.1-14.6c0-8.1,6.6-15,16-15c9.1,0,14.8,7.1,14.8,14.6
			C333.2,117.8,327.6,125.5,317.5,125.5z M325.2,120.5c1.5-2,1.9-4.5,1.9-6.9c0-5.5-2.6-15.9-10.3-15.9c-2,0-4.1,0.8-5.6,2.1
			c-2.4,2.2-2.9,4.9-2.9,7.6c0,6.1,3,16.2,10.5,16.2C321.3,123.7,323.8,122.5,325.2,120.5z"/>
		<path fill="#4EB8E9" d="M283.9,125.5c-9.8,0-15.1-7.7-15.1-14.6c0-8.1,6.6-15,16-15c9.1,0,14.8,7.1,14.8,14.6
			C299.6,117.8,294,125.5,283.9,125.5z M291.6,120.5c1.5-2,1.9-4.5,1.9-6.9c0-5.5-2.6-15.9-10.3-15.9c-2,0-4.1,0.8-5.6,2.1
			c-2.4,2.2-2.8,4.9-2.8,7.6c0,6.1,3,16.2,10.5,16.2C287.7,123.7,290.2,122.5,291.6,120.5z"/>
		<path fill="#4EB8E9" d="M264.1,124.5l-8.9,2.1c-3.6,0.6-6.8,1.1-10.3,1.1c-17.2,0-23.7-12.6-23.7-22.5c0-12.1,9.3-23.3,25.2-23.3
			c3.4,0,6.6,0.5,9.5,1.3c4.7,1.3,6.8,2.9,8.2,3.9l-5.2,4.9l-2.2,0.5l1.6-2.5c-2.1-2.1-6-5.8-13.3-5.8c-9.8,0-17.2,7.5-17.2,18.4
			c0,11.7,8.5,22.7,22,22.7c4,0,6-0.8,7.9-1.6v-10l-9.4,0.5l5-2.7h13.2l-1.6,1.6c-0.4,0.4-0.5,0.5-0.6,1c-0.1,0.6-0.1,2.4-0.1,3
			V124.5z"/>
		<path fill="#4EB8E9" d="M376.2,122.8c-2.1-0.2-2.5-0.6-2.5-3v-0.7V84.5c0-0.1,0-0.3,0-0.4c0.3-2.2,0.9-2.6,2.8-3.7h-8.9l-4.7,2.2
			h4.8v0l0,0v36.4v2.1c0,1.2-0.2,1.4-1.7,3.3h11l2.3-1.4C378.3,122.9,377.2,122.9,376.2,122.8z"/>
		<path fill="#4EB8E9" d="M401.5,123.3c-0.7,0.4-1.4,0.8-2,1.1c-2,0.9-4.1,1.2-6,1.2c-2,0-5.1-0.1-8.2-2.4c-4.4-3.1-6.3-8.4-6.3-13
			c0-9.6,7.8-14.3,14.2-14.3c2.2,0,4.5,0.6,6.4,1.7c3.1,2,3.9,4.7,4.3,6.1l-14.5,5.9l-4.8,0.4c1.5,7.9,6.9,12.4,12.7,12.4
			c3.2,0,5.4-1.1,7.5-2.2L401.5,123.3z M395.7,104.9c1.2-0.4,1.8-0.8,1.8-1.7c0-2.5-2.8-5.3-6.1-5.3c-2.5,0-7.1,1.9-7.1,8.6
			c0,1.1,0.1,2.2,0.2,3.3L395.7,104.9z"/>
		<g>
			<path fill="#4EB8E9" d="M407.5,96.3v4.1H407v-4.1h-1.4v-0.4h3.2v0.4H407.5z"/>
			<path fill="#4EB8E9" d="M413.1,100.4v-4.1h0l-1.3,4.1h-0.4l-1.3-4.1h0v4.1h-0.5v-4.5h0.8l1.1,3.6h0l1.1-3.6h0.8v4.5H413.1z"/>
		</g>
	</g>
	<g>
		<path fill="#4EB8E9" d="M233.5,75.9h-3.1c0-0.4-0.3-1.6-0.9-3.6h-4.5c-0.6,2-0.9,3.2-0.9,3.6h-2.9c0-0.3,0.8-2.3,2.3-6.2
			c1.5-3.9,2.3-6,2.3-6.4h3.7c0,0.4,0.7,2.5,2,6.3C232.8,73.4,233.5,75.5,233.5,75.9z M229.1,70.4c-1.1-3.3-1.7-5.1-1.7-5.4h-0.2
			c0,0.3-0.6,2-1.7,5.4H229.1z"/>
		<path fill="#4EB8E9" d="M246,75.9h-2.4c0-0.3-0.9-1.7-2.7-4.2c-1.9-2.7-2.9-4.5-3.2-5.5h-0.2c0.2,1.4,0.2,2.7,0.2,3.8
			c0,1.6,0,3.5,0.1,5.8h-2.4c0.1-2,0.1-4.2,0.1-6.6c0-2.4,0-4.4-0.1-6h2.9c0,0.3,0.8,1.7,2.4,4.1c1.7,2.5,2.7,4.3,2.9,5.2h0.1
			c-0.2-1.4-0.2-2.7-0.2-3.9c0-1.7,0-3.5-0.1-5.4h2.4c-0.1,1.6-0.1,3.6-0.1,6C245.9,71.7,245.9,73.9,246,75.9z"/>
		<path fill="#4EB8E9" d="M260,69.1c0,1.8-0.6,3.4-1.8,4.8c-1.2,1.4-2.8,2-4.9,2c-1,0-2.3,0-3.9-0.1c0.1-1.9,0.1-4.1,0.1-6.6
			c0-2.3,0-4.3-0.1-6h1.7c0.3,0,0.7,0,1.2,0c0.5,0,0.9,0,1.1,0c2.3,0,4,0.6,5.1,1.7C259.5,66.1,260,67.5,260,69.1z M257.4,69.6
			c0-1.2-0.4-2.3-1.1-3.1c-0.7-0.8-1.8-1.3-3.3-1.3c-0.3,0-0.7,0-1.1,0.1c0.1,1.3,0.1,2.6,0.1,4c0,1.5,0,3.1,0.1,4.6
			c0.4,0.1,0.8,0.1,1.3,0.1c1.4,0,2.4-0.4,3.1-1.3C257,71.9,257.4,70.8,257.4,69.6z"/>
		<path fill="#4EB8E9" d="M272.9,75.9h-2.9c-0.7-2.3-1.3-3.7-1.7-4.2c-0.4-0.5-1-0.8-1.9-0.8c-0.4,0-0.7,0-1.1,0c0,1.7,0,3.3,0.1,5
			h-2.7c0.1-1.9,0.1-4.1,0.1-6.6c0-2.3,0-4.3-0.1-6h1.7c0.2,0,0.6,0,1.2,0c0.6,0,1.2,0,1.7,0c3,0,4.4,1,4.4,3c0,1.6-0.8,2.7-2.5,3.4
			v0.1c0.7,0.2,1.2,0.7,1.7,1.5C271.4,72.1,272.1,73.7,272.9,75.9z M269.3,67c0-1.3-0.8-1.9-2.5-1.9c-0.6,0-1.1,0-1.6,0.1
			c0.1,1,0.1,2.3,0.1,3.9c0.4,0,0.7,0,0.9,0C268.3,69.1,269.3,68.4,269.3,67z"/>
		<path fill="#4EB8E9" d="M286.8,69.4c0,2-0.6,3.6-1.8,4.9c-1.2,1.3-2.7,2-4.5,2c-1.7,0-3.1-0.6-4.3-1.8c-1.1-1.2-1.7-2.7-1.7-4.6
			c0-2,0.6-3.6,1.8-4.9c1.2-1.3,2.7-2,4.5-2c1.7,0,3.1,0.6,4.3,1.8C286.2,66,286.8,67.5,286.8,69.4z M284.1,69.6
			c0-1.3-0.3-2.4-1-3.3c-0.7-0.8-1.5-1.3-2.6-1.3c-0.9,0-1.7,0.4-2.4,1.3c-0.7,0.8-1,1.9-1,3.2c0,1.3,0.3,2.4,1,3.3
			c0.7,0.8,1.5,1.3,2.5,1.3c0.9,0,1.7-0.4,2.4-1.3C283.8,72,284.1,70.9,284.1,69.6z"/>
		<path fill="#4EB8E9" d="M292.2,75.9h-2.7c0.1-2,0.1-4.2,0.1-6.6c0-2.4,0-4.4-0.1-6h2.7c-0.1,1.6-0.1,3.6-0.1,6
			C292.1,71.7,292.2,73.9,292.2,75.9z"/>
		<path fill="#4EB8E9" d="M306.3,69.1c0,1.8-0.6,3.4-1.8,4.8c-1.2,1.4-2.8,2-4.9,2c-1,0-2.3,0-3.9-0.1c0.1-1.9,0.1-4.1,0.1-6.6
			c0-2.3,0-4.3-0.1-6h1.7c0.3,0,0.7,0,1.2,0c0.5,0,0.9,0,1.1,0c2.3,0,4,0.6,5.1,1.7C305.7,66.1,306.3,67.5,306.3,69.1z M303.6,69.6
			c0-1.2-0.4-2.3-1.1-3.1c-0.7-0.8-1.8-1.3-3.3-1.3c-0.3,0-0.7,0-1.1,0.1c0.1,1.3,0.1,2.6,0.1,4c0,1.5,0,3.1,0.1,4.6
			c0.4,0.1,0.8,0.1,1.3,0.1c1.4,0,2.4-0.4,3.1-1.3C303.3,71.9,303.6,70.8,303.6,69.6z"/>
		<path fill="#4EB8E9" d="M324.8,75.9h-3.1c0-0.4-0.3-1.6-0.9-3.6h-4.5c-0.6,2-0.9,3.2-0.9,3.6h-2.9c0-0.3,0.8-2.3,2.3-6.2
			c1.5-3.9,2.3-6,2.3-6.4h3.7c0,0.4,0.7,2.5,2,6.3C324.2,73.4,324.8,75.5,324.8,75.9z M320.4,70.4c-1.1-3.3-1.7-5.1-1.7-5.4h-0.2
			c0,0.3-0.6,2-1.7,5.4H320.4z"/>
		<path fill="#4EB8E9" d="M336.1,66.6c0,1.5-0.6,2.7-1.7,3.4c-1.1,0.7-2.5,1.1-4.2,1.1c-0.3,0-0.5,0-0.6,0c0,1.2,0,2.8,0.1,4.8h-2.7
			c0.1-1.9,0.1-4.1,0.1-6.6c0-2.3,0-4.3-0.1-6h1.7c0.2,0,0.7,0,1.4,0c0.7,0,1.3,0,1.8,0c1.2,0,2.3,0.3,3.1,0.8
			C335.7,64.6,336.1,65.5,336.1,66.6z M333.6,67.1c0-1.4-0.9-2.1-2.7-2.1c-0.5,0-0.9,0-1.5,0.1c0.1,1.2,0.1,2.6,0.1,4.1
			c0.2,0,0.3,0,0.6,0C332.5,69.4,333.6,68.6,333.6,67.1z"/>
		<path fill="#4EB8E9" d="M347.7,66.6c0,1.5-0.6,2.7-1.7,3.4c-1.1,0.7-2.5,1.1-4.2,1.1c-0.3,0-0.5,0-0.6,0c0,1.2,0,2.8,0.1,4.8h-2.7
			c0.1-1.9,0.1-4.1,0.1-6.6c0-2.3,0-4.3-0.1-6h1.7c0.2,0,0.7,0,1.4,0c0.7,0,1.3,0,1.8,0c1.2,0,2.3,0.3,3.1,0.8
			C347.3,64.6,347.7,65.5,347.7,66.6z M345.2,67.1c0-1.4-0.9-2.1-2.7-2.1c-0.5,0-0.9,0-1.5,0.1c0.1,1.2,0.1,2.6,0.1,4.1
			c0.2,0,0.3,0,0.6,0C344.1,69.4,345.2,68.6,345.2,67.1z"/>
		<path fill="#4EB8E9" d="M366.7,69.4c0,2-0.6,3.6-1.8,4.9c-1.2,1.3-2.7,2-4.5,2c-1.7,0-3.1-0.6-4.3-1.8c-1.1-1.2-1.7-2.7-1.7-4.6
			c0-2,0.6-3.6,1.8-4.9c1.2-1.3,2.7-2,4.5-2c1.7,0,3.1,0.6,4.3,1.8C366.1,66,366.7,67.5,366.7,69.4z M364,69.6c0-1.3-0.3-2.4-1-3.3
			s-1.5-1.3-2.6-1.3c-0.9,0-1.7,0.4-2.4,1.3c-0.7,0.8-1,1.9-1,3.2c0,1.3,0.3,2.4,1,3.3c0.7,0.8,1.5,1.3,2.5,1.3
			c0.9,0,1.7-0.4,2.4-1.3C363.7,72,364,70.9,364,69.6z"/>
		<path fill="#4EB8E9" d="M379.8,75.9h-2.4c0-0.3-0.9-1.7-2.7-4.2c-1.9-2.7-2.9-4.5-3.2-5.5h-0.2c0.2,1.4,0.2,2.7,0.2,3.8
			c0,1.6,0,3.5,0.1,5.8h-2.4c0.1-2,0.1-4.2,0.1-6.6c0-2.4,0-4.4-0.1-6h2.9c0,0.3,0.8,1.7,2.4,4.1c1.7,2.5,2.7,4.3,2.9,5.2h0.1
			c-0.2-1.4-0.2-2.7-0.2-3.9c0-1.7,0-3.5-0.1-5.4h2.4c-0.1,1.6-0.1,3.6-0.1,6C379.6,71.7,379.7,73.9,379.8,75.9z"/>
	</g>
</g>
<path fill="none" stroke="#4EB8E9" stroke-miterlimit="10" d="M555,36H66c-6.6,0-12,5.4-12,12v102c0,6.6,5.4,12,12,12h489
	c6.6,0,12-5.4,12-12V48C567,41.4,561.6,36,555,36z"/>
<g id="PLAY_2_">
	<defs>
		<path id="SVGID_1_" d="M175.6,82.6L156,71.2c0,0-35.7-20.6-37.8-21.8c-2.1-1.2-4.2-0.5-4.2,2.1c0,4.2,0,44,0,44s0,43,0,44.9
			c0,1.9,1.5,2.7,3.3,1.7c1.8-1.1,38.7-22.3,38.7-22.3l19.6-11.3c0,0,16.6-9.6,18.8-10.9c2.2-1.3,2-3,0.1-4
			C192.7,92.5,175.6,82.6,175.6,82.6z"/>
	</defs>
	<clipPath id="SVGID_2_">
		<use xlink:href="#SVGID_1_"  overflow="visible"/>
	</clipPath>
	<linearGradient id="SVGID_3_" gradientUnits="userSpaceOnUse" x1="138.2718" y1="47.3424" x2="138.2718" y2="143.6497">
		<stop  offset="0" style="stop-color:#257CB0"/>
		<stop  offset="0.2863" style="stop-color:#4A93B5"/>
		<stop  offset="0.767" style="stop-color:#78BCBB"/>
		<stop  offset="1" style="stop-color:#89CFBD"/>
	</linearGradient>
	<polygon clip-path="url(#SVGID_2_)" fill="url(#SVGID_3_)" points="114,47.3 114,95.5 114,143.6 162.6,95.5 	"/>
	<linearGradient id="SVGID_4_" gradientUnits="userSpaceOnUse" x1="113.9899" y1="71.2445" x2="175.5975" y2="71.2445">
		<stop  offset="0" style="stop-color:#52C1AD"/>
		<stop  offset="1" style="stop-color:#DEE89A"/>
	</linearGradient>
	<polygon clip-path="url(#SVGID_2_)" fill="url(#SVGID_4_)" points="175.6,82.6 156,71.2 114,47 114,47.3 162.6,95.5 	"/>
	<linearGradient id="SVGID_5_" gradientUnits="userSpaceOnUse" x1="144.7933" y1="95.4969" x2="144.7933" y2="144">
		<stop  offset="0" style="stop-color:#EC413D"/>
		<stop  offset="0.1668" style="stop-color:#DA4452"/>
		<stop  offset="0.5748" style="stop-color:#B0487A"/>
		<stop  offset="0.8619" style="stop-color:#954A92"/>
		<stop  offset="1" style="stop-color:#8A4A9D"/>
	</linearGradient>
	<polygon clip-path="url(#SVGID_2_)" fill="url(#SVGID_5_)" points="114,143.6 114,144 156,119.7 175.6,108.4 162.6,95.5 	"/>
	<linearGradient id="SVGID_6_" gradientUnits="userSpaceOnUse" x1="180.2768" y1="82.5626" x2="180.2768" y2="108.4295">
		<stop  offset="0" style="stop-color:#F58879"/>
		<stop  offset="0.1194" style="stop-color:#F69079"/>
		<stop  offset="0.7128" style="stop-color:#FCB877"/>
		<stop  offset="1" style="stop-color:#FEC874"/>
	</linearGradient>
	<polygon clip-path="url(#SVGID_2_)" fill="url(#SVGID_6_)" points="175.6,82.6 162.6,95.5 175.6,108.4 198,95.5 	"/>
</g>
<g>
	<g>
		<path fill="#F1F2F2" stroke="#F1F2F2" stroke-miterlimit="10" d="M439.7,315.4c-1.9,0-3.7-0.4-5.3-1.1c-1.6-0.7-2.9-1.8-4-3.3
			h-0.3c0.2,1.7,0.3,3.4,0.3,4.9v12.2h-4.5v-43h3.7l0.6,4.1h0.2c1.2-1.6,2.5-2.8,4-3.5c1.5-0.7,3.3-1.1,5.3-1.1c3.9,0,7,1.3,9.1,4
			c2.1,2.7,3.2,6.5,3.2,11.3c0,4.9-1.1,8.7-3.3,11.4C446.6,314.1,443.6,315.4,439.7,315.4z M439.1,288.5c-3,0-5.2,0.8-6.6,2.5
			c-1.4,1.7-2,4.3-2.1,8v1c0,4.2,0.7,7.1,2.1,8.9c1.4,1.8,3.6,2.7,6.7,2.7c2.6,0,4.6-1,6-3.1c1.5-2.1,2.2-4.9,2.2-8.6
			c0-3.7-0.7-6.5-2.2-8.5C443.7,289.5,441.7,288.5,439.1,288.5z"/>
		<path fill="#F1F2F2" stroke="#F1F2F2" stroke-miterlimit="10" d="M462.4,314.9h-4.5v-42.1h4.5V314.9z"/>
		<path fill="#F1F2F2" stroke="#F1F2F2" stroke-miterlimit="10" d="M488.2,314.9l-0.9-4.2h-0.2c-1.5,1.9-3,3.1-4.4,3.8
			c-1.5,0.7-3.3,1-5.5,1c-2.9,0-5.2-0.8-6.9-2.3c-1.7-1.5-2.5-3.7-2.5-6.5c0-6,4.8-9.1,14.4-9.4l5-0.2v-1.8c0-2.3-0.5-4-1.5-5.2
			c-1-1.1-2.6-1.7-4.8-1.7c-2.5,0-5.3,0.8-8.4,2.3l-1.4-3.4c1.5-0.8,3.1-1.4,4.8-1.9c1.7-0.5,3.5-0.7,5.2-0.7c3.5,0,6.2,0.8,7.9,2.4
			c1.7,1.6,2.6,4.1,2.6,7.5v20.2H488.2z M478.1,311.7c2.8,0,5-0.8,6.6-2.3c1.6-1.5,2.4-3.7,2.4-6.4v-2.7l-4.5,0.2
			c-3.6,0.1-6.1,0.7-7.7,1.7c-1.6,1-2.4,2.5-2.4,4.6c0,1.6,0.5,2.9,1.5,3.7C475,311.3,476.3,311.7,478.1,311.7z"/>
		<path fill="#F1F2F2" stroke="#F1F2F2" stroke-miterlimit="10" d="M494.2,285.2h4.8l6.5,16.9c1.4,3.9,2.3,6.6,2.7,8.4h0.2
			c0.2-0.9,0.7-2.5,1.5-4.7c0.7-2.2,3.2-9.1,7.3-20.5h4.8L509.3,319c-1.3,3.3-2.7,5.7-4.4,7.1c-1.7,1.4-3.8,2.1-6.2,2.1
			c-1.4,0-2.7-0.2-4.1-0.5v-3.6c1,0.2,2.1,0.3,3.3,0.3c3.1,0,5.3-1.7,6.6-5.2l1.6-4.2L494.2,285.2z"/>
	</g>
	<g>
		<path fill="#F1F2F2" stroke="#F1F2F2" stroke-miterlimit="10" d="M356.5,288c1.4,1.2,4.4,3.7,4.4,8.4c0,4.6-2.6,6.8-5.2,8.8
			c-0.8,0.8-1.7,1.7-1.7,3c0,1.4,0.9,2.1,1.6,2.7l2.2,1.7c2.7,2.3,5.2,4.4,5.2,8.7c0,5.8-5.6,11.7-16.3,11.7c-9,0-13.3-4.3-13.3-8.9
			c0-2.2,1.1-5.4,4.8-7.6c3.8-2.4,9.1-2.7,11.8-2.9c-0.9-1.1-1.9-2.3-1.9-4.2c0-1.1,0.3-1.7,0.6-2.4c-0.7,0.1-1.4,0.1-2,0.1
			c-6.6,0-10.3-4.9-10.3-9.7c0-2.9,1.3-6,4-8.3c3.5-2.9,7.8-3.4,11.1-3.4h12.8l-4,2.2H356.5z M352.1,315.5c-0.5-0.1-0.8-0.1-1.4-0.1
			c-0.6,0-3.9,0.1-6.5,1c-1.4,0.5-5.3,2-5.3,6.4c0,4.4,4.3,7.6,10.9,7.6c6,0,9.1-2.9,9.1-6.7C358.9,320.5,356.8,318.9,352.1,315.5z
			 M353.9,303.7c1.4-1.4,1.5-3.4,1.5-4.5c0-4.5-2.7-11.4-7.8-11.4c-1.6,0-3.3,0.8-4.3,2c-1.1,1.3-1.4,3-1.4,4.6c0,4.2,2.4,11,7.8,11
			C351.2,305.5,352.9,304.7,353.9,303.7z"/>
		<path fill="#F1F2F2" stroke="#F1F2F2" stroke-miterlimit="10" d="M317.5,314.5c-9.8,0-15.1-7.7-15.1-14.6c0-8.1,6.6-15,16-15
			c9.1,0,14.8,7.1,14.8,14.6C333.2,306.8,327.6,314.5,317.5,314.5z M325.2,309.5c1.5-2,1.9-4.5,1.9-6.9c0-5.5-2.6-15.9-10.3-15.9
			c-2,0-4.1,0.8-5.6,2.1c-2.4,2.2-2.9,4.9-2.9,7.6c0,6.1,3,16.2,10.5,16.2C321.3,312.7,323.8,311.5,325.2,309.5z"/>
		<path fill="#F1F2F2" stroke="#F1F2F2" stroke-miterlimit="10" d="M283.9,314.5c-9.8,0-15.1-7.7-15.1-14.6c0-8.1,6.6-15,16-15
			c9.1,0,14.8,7.1,14.8,14.6C299.6,306.8,294,314.5,283.9,314.5z M291.6,309.5c1.5-2,1.9-4.5,1.9-6.9c0-5.5-2.6-15.9-10.3-15.9
			c-2,0-4.1,0.8-5.6,2.1c-2.4,2.2-2.8,4.9-2.8,7.6c0,6.1,3,16.2,10.5,16.2C287.7,312.7,290.2,311.5,291.6,309.5z"/>
		<path fill="#F1F2F2" stroke="#F1F2F2" stroke-miterlimit="10" d="M264.1,313.5l-8.9,2.1c-3.6,0.6-6.8,1.1-10.3,1.1
			c-17.2,0-23.7-12.6-23.7-22.5c0-12.1,9.3-23.3,25.2-23.3c3.4,0,6.6,0.5,9.5,1.3c4.7,1.3,6.8,2.9,8.2,3.9l-5.2,4.9l-2.2,0.5
			l1.6-2.5c-2.1-2.1-6-5.9-13.3-5.9c-9.8,0-17.2,7.5-17.2,18.4c0,11.7,8.5,22.7,22,22.7c4,0,6-0.8,7.9-1.6v-10l-9.4,0.5l5-2.7h13.2
			l-1.6,1.6c-0.4,0.4-0.5,0.5-0.6,1c-0.1,0.6-0.1,2.4-0.1,3V313.5z"/>
		<path fill="#F1F2F2" stroke="#F1F2F2" stroke-miterlimit="10" d="M376.2,311.8c-2.1-0.2-2.5-0.6-2.5-3v-0.7v-34.6
			c0-0.1,0-0.3,0-0.4c0.3-2.2,0.9-2.6,2.8-3.7h-8.9l-4.7,2.2h4.8v0l0,0v36.4v2.1c0,1.2-0.2,1.4-1.7,3.3h11l2.3-1.4
			C378.3,311.9,377.2,311.9,376.2,311.8z"/>
		<path fill="#F1F2F2" stroke="#F1F2F2" stroke-miterlimit="10" d="M401.5,312.3c-0.7,0.4-1.4,0.8-2,1.1c-2,0.9-4.1,1.2-6,1.2
			c-2,0-5.1-0.1-8.2-2.4c-4.4-3.1-6.3-8.4-6.3-13c0-9.6,7.8-14.3,14.2-14.3c2.2,0,4.5,0.6,6.4,1.7c3.1,2,3.9,4.7,4.3,6.1l-14.5,5.9
			l-4.8,0.4c1.5,7.9,6.9,12.4,12.7,12.4c3.2,0,5.4-1.1,7.5-2.2L401.5,312.3z M395.7,293.9c1.2-0.4,1.8-0.8,1.8-1.7
			c0-2.5-2.8-5.3-6.1-5.3c-2.5,0-7.1,1.9-7.1,8.6c0,1.1,0.1,2.2,0.2,3.3L395.7,293.9z"/>
		<g>
			<path fill="#F1F2F2" stroke="#F1F2F2" stroke-miterlimit="10" d="M407.5,285.3v4.1H407v-4.1h-1.4v-0.4h3.2v0.4H407.5z"/>
			<path fill="#F1F2F2" stroke="#F1F2F2" stroke-miterlimit="10" d="M413.1,289.4v-4.1h0l-1.3,4.1h-0.4l-1.3-4.1h0v4.1h-0.5v-4.5
				h0.8l1.1,3.6h0l1.1-3.6h0.8v4.5H413.1z"/>
		</g>
	</g>
	<g>
		<path fill="#F1F2F2" stroke="#F1F2F2" stroke-miterlimit="10" d="M233.5,264.9h-3.1c0-0.4-0.3-1.6-0.9-3.6h-4.5
			c-0.6,2-0.9,3.2-0.9,3.6h-2.9c0-0.3,0.8-2.3,2.3-6.2c1.5-3.9,2.3-6,2.3-6.4h3.7c0,0.4,0.7,2.5,2,6.3
			C232.8,262.4,233.5,264.5,233.5,264.9z M229.1,259.4c-1.1-3.3-1.7-5.1-1.7-5.4h-0.2c0,0.3-0.6,2-1.7,5.4H229.1z"/>
		<path fill="#F1F2F2" stroke="#F1F2F2" stroke-miterlimit="10" d="M246,264.9h-2.4c0-0.3-0.9-1.7-2.7-4.2c-1.9-2.7-2.9-4.5-3.2-5.5
			h-0.2c0.2,1.4,0.2,2.7,0.2,3.8c0,1.6,0,3.5,0.1,5.8h-2.4c0.1-2,0.1-4.2,0.1-6.6c0-2.4,0-4.4-0.1-6h2.9c0,0.3,0.8,1.7,2.4,4.1
			c1.7,2.5,2.7,4.3,2.9,5.2h0.1c-0.2-1.4-0.2-2.7-0.2-3.9c0-1.7,0-3.5-0.1-5.4h2.4c-0.1,1.6-0.1,3.6-0.1,6
			C245.9,260.7,245.9,262.9,246,264.9z"/>
		<path fill="#F1F2F2" stroke="#F1F2F2" stroke-miterlimit="10" d="M260,258.1c0,1.8-0.6,3.4-1.8,4.8c-1.2,1.4-2.8,2-4.9,2
			c-1,0-2.3,0-3.9-0.1c0.1-1.9,0.1-4.1,0.1-6.6c0-2.3,0-4.3-0.1-6h1.7c0.3,0,0.7,0,1.2,0c0.5,0,0.9,0,1.1,0c2.3,0,4,0.6,5.1,1.7
			C259.5,255.1,260,256.5,260,258.1z M257.4,258.6c0-1.2-0.4-2.3-1.1-3.1c-0.7-0.8-1.8-1.3-3.3-1.3c-0.3,0-0.7,0-1.1,0.1
			c0.1,1.3,0.1,2.6,0.1,4c0,1.5,0,3.1,0.1,4.6c0.4,0.1,0.8,0.1,1.3,0.1c1.4,0,2.4-0.4,3.1-1.3C257,260.9,257.4,259.8,257.4,258.6z"
			/>
		<path fill="#F1F2F2" stroke="#F1F2F2" stroke-miterlimit="10" d="M272.9,264.9h-2.9c-0.7-2.3-1.3-3.7-1.7-4.2
			c-0.4-0.5-1-0.8-1.9-0.8c-0.4,0-0.7,0-1.1,0c0,1.7,0,3.3,0.1,5h-2.7c0.1-1.9,0.1-4.1,0.1-6.6c0-2.3,0-4.3-0.1-6h1.7
			c0.2,0,0.6,0,1.2,0c0.6,0,1.2,0,1.7,0c3,0,4.4,1,4.4,3c0,1.6-0.8,2.7-2.5,3.4v0.1c0.7,0.2,1.2,0.7,1.7,1.5
			C271.4,261.1,272.1,262.7,272.9,264.9z M269.3,256c0-1.3-0.8-1.9-2.5-1.9c-0.6,0-1.1,0-1.6,0.1c0.1,1,0.1,2.3,0.1,3.9
			c0.4,0,0.7,0,0.9,0C268.3,258.1,269.3,257.4,269.3,256z"/>
		<path fill="#F1F2F2" stroke="#F1F2F2" stroke-miterlimit="10" d="M286.8,258.4c0,2-0.6,3.6-1.8,4.9c-1.2,1.3-2.7,2-4.5,2
			c-1.7,0-3.1-0.6-4.3-1.8c-1.1-1.2-1.7-2.7-1.7-4.6c0-2,0.6-3.6,1.8-4.9c1.2-1.3,2.7-2,4.5-2c1.7,0,3.1,0.6,4.3,1.8
			C286.2,255,286.8,256.5,286.8,258.4z M284.1,258.6c0-1.3-0.3-2.4-1-3.3c-0.7-0.8-1.5-1.3-2.6-1.3c-0.9,0-1.7,0.4-2.4,1.3
			c-0.7,0.8-1,1.9-1,3.2c0,1.3,0.3,2.4,1,3.3c0.7,0.8,1.5,1.3,2.5,1.3c0.9,0,1.7-0.4,2.4-1.3C283.8,261,284.1,259.9,284.1,258.6z"/>
		<path fill="#F1F2F2" stroke="#F1F2F2" stroke-miterlimit="10" d="M292.2,264.9h-2.7c0.1-2,0.1-4.2,0.1-6.6c0-2.4,0-4.4-0.1-6h2.7
			c-0.1,1.6-0.1,3.6-0.1,6C292.1,260.7,292.2,262.9,292.2,264.9z"/>
		<path fill="#F1F2F2" stroke="#F1F2F2" stroke-miterlimit="10" d="M306.3,258.1c0,1.8-0.6,3.4-1.8,4.8c-1.2,1.4-2.8,2-4.9,2
			c-1,0-2.3,0-3.9-0.1c0.1-1.9,0.1-4.1,0.1-6.6c0-2.3,0-4.3-0.1-6h1.7c0.3,0,0.7,0,1.2,0c0.5,0,0.9,0,1.1,0c2.3,0,4,0.6,5.1,1.7
			C305.7,255.1,306.3,256.5,306.3,258.1z M303.6,258.6c0-1.2-0.4-2.3-1.1-3.1c-0.7-0.8-1.8-1.3-3.3-1.3c-0.3,0-0.7,0-1.1,0.1
			c0.1,1.3,0.1,2.6,0.1,4c0,1.5,0,3.1,0.1,4.6c0.4,0.1,0.8,0.1,1.3,0.1c1.4,0,2.4-0.4,3.1-1.3C303.3,260.9,303.6,259.8,303.6,258.6z
			"/>
		<path fill="#F1F2F2" stroke="#F1F2F2" stroke-miterlimit="10" d="M324.8,264.9h-3.1c0-0.4-0.3-1.6-0.9-3.6h-4.5
			c-0.6,2-0.9,3.2-0.9,3.6h-2.9c0-0.3,0.8-2.3,2.3-6.2c1.5-3.9,2.3-6,2.3-6.4h3.7c0,0.4,0.7,2.5,2,6.3
			C324.2,262.4,324.8,264.5,324.8,264.9z M320.4,259.4c-1.1-3.3-1.7-5.1-1.7-5.4h-0.2c0,0.3-0.6,2-1.7,5.4H320.4z"/>
		<path fill="#F1F2F2" stroke="#F1F2F2" stroke-miterlimit="10" d="M336.1,255.6c0,1.5-0.6,2.7-1.7,3.4c-1.1,0.7-2.5,1.1-4.2,1.1
			c-0.3,0-0.5,0-0.6,0c0,1.2,0,2.8,0.1,4.8h-2.7c0.1-1.9,0.1-4.1,0.1-6.6c0-2.3,0-4.3-0.1-6h1.7c0.2,0,0.7,0,1.4,0
			c0.7,0,1.3,0,1.8,0c1.2,0,2.3,0.3,3.1,0.8C335.7,253.6,336.1,254.5,336.1,255.6z M333.6,256.1c0-1.4-0.9-2.1-2.7-2.1
			c-0.5,0-0.9,0-1.5,0.1c0.1,1.2,0.1,2.6,0.1,4.1c0.2,0,0.3,0,0.6,0C332.5,258.4,333.6,257.6,333.6,256.1z"/>
		<path fill="#F1F2F2" stroke="#F1F2F2" stroke-miterlimit="10" d="M347.7,255.6c0,1.5-0.6,2.7-1.7,3.4c-1.1,0.7-2.5,1.1-4.2,1.1
			c-0.3,0-0.5,0-0.6,0c0,1.2,0,2.8,0.1,4.8h-2.7c0.1-1.9,0.1-4.1,0.1-6.6c0-2.3,0-4.3-0.1-6h1.7c0.2,0,0.7,0,1.4,0
			c0.7,0,1.3,0,1.8,0c1.2,0,2.3,0.3,3.1,0.8C347.3,253.6,347.7,254.5,347.7,255.6z M345.2,256.1c0-1.4-0.9-2.1-2.7-2.1
			c-0.5,0-0.9,0-1.5,0.1c0.1,1.2,0.1,2.6,0.1,4.1c0.2,0,0.3,0,0.6,0C344.1,258.4,345.2,257.6,345.2,256.1z"/>
		<path fill="#F1F2F2" stroke="#F1F2F2" stroke-miterlimit="10" d="M366.7,258.4c0,2-0.6,3.6-1.8,4.9c-1.2,1.3-2.7,2-4.5,2
			c-1.7,0-3.1-0.6-4.3-1.8c-1.1-1.2-1.7-2.7-1.7-4.6c0-2,0.6-3.6,1.8-4.9c1.2-1.3,2.7-2,4.5-2c1.7,0,3.1,0.6,4.3,1.8
			C366.1,255,366.7,256.5,366.7,258.4z M364,258.6c0-1.3-0.3-2.4-1-3.3s-1.5-1.3-2.6-1.3c-0.9,0-1.7,0.4-2.4,1.3
			c-0.7,0.8-1,1.9-1,3.2c0,1.3,0.3,2.4,1,3.3c0.7,0.8,1.5,1.3,2.5,1.3c0.9,0,1.7-0.4,2.4-1.3C363.7,261,364,259.9,364,258.6z"/>
		<path fill="#F1F2F2" stroke="#F1F2F2" stroke-miterlimit="10" d="M379.8,264.9h-2.4c0-0.3-0.9-1.7-2.7-4.2
			c-1.9-2.7-2.9-4.5-3.2-5.5h-0.2c0.2,1.4,0.2,2.7,0.2,3.8c0,1.6,0,3.5,0.1,5.8h-2.4c0.1-2,0.1-4.2,0.1-6.6c0-2.4,0-4.4-0.1-6h2.9
			c0,0.3,0.8,1.7,2.4,4.1c1.7,2.5,2.7,4.3,2.9,5.2h0.1c-0.2-1.4-0.2-2.7-0.2-3.9c0-1.7,0-3.5-0.1-5.4h2.4c-0.1,1.6-0.1,3.6-0.1,6
			C379.6,260.7,379.7,262.9,379.8,264.9z"/>
	</g>
</g>
<path fill="none" stroke="#F1F2F2" stroke-miterlimit="10" d="M555,225H66c-6.6,0-12,5.4-12,12v102c0,6.6,5.4,12,12,12h489
	c6.6,0,12-5.4,12-12V237C567,230.4,561.6,225,555,225z"/>
<g id="PLAY_1_">
	<defs>
		<path id="SVGID_7_" d="M175.6,278.6L156,267.3c0,0-35.7-20.6-37.8-21.8c-2.1-1.2-4.2-0.5-4.2,2.1c0,4.2,0,44,0,44s0,43,0,44.9
			c0,1.9,1.5,2.7,3.3,1.7c1.8-1.1,38.7-22.3,38.7-22.3l19.6-11.3c0,0,16.6-9.6,18.8-10.9c2.2-1.3,2-3,0.1-4
			C192.7,288.5,175.6,278.6,175.6,278.6z"/>
	</defs>
	<clipPath id="SVGID_8_">
		<use xlink:href="#SVGID_7_"  display="none" overflow="visible"/>
	</clipPath>
	<polygon clip-path="url(#SVGID_8_)" fill="#E6E7E8" points="114,239.8 114,288 114,336.2 162.6,288 	"/>
	<linearGradient id="SVGID_9_" gradientUnits="userSpaceOnUse" x1="113.9899" y1="263.7484" x2="175.5975" y2="263.7484">
		<stop  offset="0" style="stop-color:#E2E2E2"/>
		<stop  offset="1" style="stop-color:#DEDDDD"/>
	</linearGradient>
	<polygon clip-path="url(#SVGID_8_)" fill="url(#SVGID_9_)" points="175.6,275.1 156,263.7 114,239.5 114,239.8 162.6,288 	"/>
	<linearGradient id="SVGID_10_" gradientUnits="userSpaceOnUse" x1="144.7933" y1="288.0009" x2="144.7933" y2="336.504">
		<stop  offset="0" style="stop-color:#EAEAEA"/>
		<stop  offset="0.2343" style="stop-color:#E2E2E2"/>
		<stop  offset="1" style="stop-color:#CFCECE"/>
	</linearGradient>
	<polygon clip-path="url(#SVGID_8_)" fill="url(#SVGID_10_)" points="114,336.2 114,336.5 156,312.3 175.6,300.9 162.6,288 	"/>
	<linearGradient id="SVGID_11_" gradientUnits="userSpaceOnUse" x1="180.2768" y1="275.0666" x2="180.2768" y2="300.9334">
		<stop  offset="0" style="stop-color:#EAEAEA"/>
		<stop  offset="1" style="stop-color:#E5E5E5"/>
	</linearGradient>
	<polygon clip-path="url(#SVGID_8_)" fill="url(#SVGID_11_)" points="175.6,275.1 162.6,288 175.6,300.9 198,288 	"/>
	<use xlink:href="#SVGID_7_"  display="none" overflow="visible" fill="none" stroke="#FFFFFF" stroke-miterlimit="10"/>
</g>
<path fill="none" stroke="#F1F2F2" stroke-miterlimit="10" d="M522,432H102c-6.6,0-12,5.4-12,12v102c0,6.6,5.4,12,12,12h420
	c6.6,0,12-5.4,12-12V444C534,437.4,528.6,432,522,432z"/>
<text transform="matrix(1 0 0 1 246 531)"><tspan x="0" y="0" fill="#E6E7E8" font-family="'LucidaGrande'" font-size="54" letter-spacing="-2">Ap</tspan><tspan x="65.3" y="0" fill="#E6E7E8" font-family="'LucidaGrande'" font-size="54" letter-spacing="-1">p</tspan><tspan x="97.4" y="0" fill="#E6E7E8" font-family="'LucidaGrande'" font-size="54" letter-spacing="-8"> </tspan><tspan x="106.1" y="0" fill="#E6E7E8" font-family="'LucidaGrande'" font-size="54" letter-spacing="-2">S</tspan><tspan x="132.2" y="0" fill="#E6E7E8" font-family="'LucidaGrande'" font-size="54" letter-spacing="-1">t</tspan><tspan x="150.5" y="0" fill="#E6E7E8" font-family="'LucidaGrande'" font-size="54" letter-spacing="-2">or</tspan><tspan x="199.8" y="0" fill="#E6E7E8" font-family="'LucidaGrande'" font-size="54" letter-spacing="-1">e</tspan></text>
<text transform="matrix(1 0 0 1 246 486)" fill="#E6E7E8" font-family="'LucidaGrande'" font-size="29" letter-spacing="-1">Download on the</text>
<path fill="#E6E7E8" d="M216,497.5c-0.1-11.3,9.2-16.7,9.6-17c-5.3-7.7-13.4-8.7-16.3-8.9c-7-0.7-13.6,4.1-17.1,4.1
	c-3.5,0-9-4-14.7-3.9c-7.6,0.1-14.6,4.4-18.5,11.2c-7.9,13.7-2,33.9,5.7,45c3.8,5.4,8.2,11.5,14.1,11.3c5.7-0.2,7.8-3.7,14.6-3.7
	c6.8,0,8.8,3.7,14.8,3.5c6.1-0.1,10-5.5,13.7-11c4.3-6.3,6.1-12.4,6.2-12.7C227.9,515.5,216.1,511,216,497.5L216,497.5z
	 M204.7,464.3c3.1-3.8,5.2-9,4.7-14.3c-4.5,0.2-9.9,3-13.2,6.8c-2.9,3.4-5.4,8.7-4.7,13.8C196.5,471,201.6,468.1,204.7,464.3
	L204.7,464.3z M204.7,464.3"/>
<path fill="none" stroke="#4EB8E9" stroke-miterlimit="10" d="M522,585H102c-6.6,0-12,5.4-12,12v102c0,6.6,5.4,12,12,12h420
	c6.6,0,12-5.4,12-12V597C534,590.4,528.6,585,522,585z"/>
<text transform="matrix(1 0 0 1 246 687.7252)"><tspan x="0" y="0" fill="#4EB8E9" font-family="'LucidaGrande'" font-size="54" letter-spacing="-2">Ap</tspan><tspan x="65.3" y="0" fill="#4EB8E9" font-family="'LucidaGrande'" font-size="54" letter-spacing="-1">p</tspan><tspan x="97.4" y="0" fill="#4EB8E9" font-family="'LucidaGrande'" font-size="54" letter-spacing="-8"> </tspan><tspan x="106.1" y="0" fill="#4EB8E9" font-family="'LucidaGrande'" font-size="54" letter-spacing="-2">S</tspan><tspan x="132.2" y="0" fill="#4EB8E9" font-family="'LucidaGrande'" font-size="54" letter-spacing="-1">t</tspan><tspan x="150.5" y="0" fill="#4EB8E9" font-family="'LucidaGrande'" font-size="54" letter-spacing="-2">or</tspan><tspan x="199.8" y="0" fill="#4EB8E9" font-family="'LucidaGrande'" font-size="54" letter-spacing="-1">e</tspan></text>
<text transform="matrix(1 0 0 1 246 642.7252)" fill="#4EB8E9" font-family="'LucidaGrande'" font-size="29" letter-spacing="-1">Download on the</text>
<path fill="#4EB8E9" d="M216,654.2c-0.1-11.3,9.2-16.7,9.6-17c-5.3-7.7-13.4-8.7-16.3-8.9c-7-0.7-13.6,4.1-17.1,4.1
	c-3.5,0-9-4-14.7-3.9c-7.6,0.1-14.6,4.4-18.5,11.2c-7.9,13.7-2,33.9,5.7,45c3.8,5.4,8.2,7.8,14.1,7.6c5.7-0.2,7.8,0.1,14.6,0.1
	c6.8,0,8.8-0.1,14.8-0.2c6.1-0.1,10-1.8,13.7-7.3c4.3-6.3,6.1-12.4,6.2-12.7C227.9,672.2,216.1,667.7,216,654.2L216,654.2z
	 M204.7,621c3.1-3.8,5.2-12.8,4.7-18c-4.5,0.2-9.9,3-13.2,6.8c-2.9,3.4-5.4,12.4-4.7,17.6C196.5,627.7,201.6,624.8,204.7,621
	L204.7,621z M204.7,621"/>
</svg>
