<?xml version="1.0" encoding="UTF-8" standalone="no"?>
<svg width="446px" height="128px" viewBox="0 0 446 128" version="1.1" xmlns="http://www.w3.org/2000/svg" xmlns:xlink="http://www.w3.org/1999/xlink" xmlns:sketch="http://www.bohemiancoding.com/sketch/ns">
    <!-- Generator: Sketch 3.4.4 (17249) - http://www.bohemiancoding.com/sketch -->
    <title>Group</title>
    <desc>Created with Sketch.</desc>
    <defs></defs>
    <g id="Page-1" stroke="none" stroke-width="1" fill="none" fill-rule="evenodd" sketch:type="MSPage">
        <g id="android_apple_button_vector" sketch:type="MSLayerGroup" transform="translate(-35.000000, -395.000000)">
            <g id="Group" transform="translate(36.000000, 396.000000)">
                <path d="M432,0 L12,0 C5.4,0 0,5.4 0,12 L0,114 C0,120.6 5.4,126 12,126 L432,126 C438.6,126 444,120.6 444,114 L444,12 C444,5.4 438.6,0 432,0 L432,0 Z" id="Shape" stroke="#F1F2F2" sketch:type="MSShapeGroup"></path>
                <g transform="translate(156.000000, 46.000000)" font-size="54" font-family="Helvetica" fill="#E6E7E8" sketch:type="MSTextLayer" font-weight="normal">
                    <text id="Ap">
                        <tspan x="0" y="53" fill="#000000">Ap</tspan>
                    </text>
                    <text id="p">
                        <tspan x="65.3" y="53" fill="#000000">p</tspan>
                    </text>
                    <text id="S">
                        <tspan x="96.1" y="53" fill="#000000">S</tspan>
                    </text>
                    <text id="t">
                        <tspan x="132.2" y="53" fill="#000000">t</tspan>
                    </text>
                    <text id="or">
                        <tspan x="150.5" y="53" fill="#000000">or</tspan>
                    </text>
                    <text id="e">
                        <tspan x="199.8" y="53" fill="#000000">e</tspan>
                    </text>
                </g>
                <text id="Download-on-the" fill="#E6E7E8" sketch:type="MSTextLayer" font-family="Helvetica" font-size="29" font-weight="normal">
                    <tspan x="156" y="54" fill="#000000">Download on the</tspan>
                </text>
                <path d="M103,65.5 C102.9,54.2 112.2,48.8 112.6,48.5 C107.3,40.8 99.2,39.8 96.3,39.6 C89.3,38.9 82.7,43.7 79.2,43.7 C75.7,43.7 70.2,39.7 64.5,39.8 C56.9,39.9 49.9,44.2 46,51 C38.1,64.7 44,84.9 51.7,96 C55.5,101.4 59.9,107.5 65.8,107.3 C71.5,107.1 73.6,103.6 80.4,103.6 C87.2,103.6 89.2,107.3 95.2,107.1 C101.3,107 105.2,101.6 108.9,96.1 C113.2,89.8 115,83.7 115.1,83.4 C114.9,83.5 103.1,79 103,65.5 L103,65.5 L103,65.5 Z M91.7,32.3 C94.8,28.5 96.9,23.3 96.4,18 C91.9,18.2 86.5,21 83.2,24.8 C80.3,28.2 77.8,33.5 78.5,38.6 C83.5,39 88.6,36.1 91.7,32.3 L91.7,32.3 L91.7,32.3 Z" id="Shape" fill="#E6E7E8" sketch:type="MSShapeGroup"></path>
            </g>
        </g>
    </g>
</svg>