<?xml version="1.0" encoding="UTF-8" standalone="no"?>
<svg width="33px" height="37px" viewBox="0 0 33 37" version="1.1" xmlns="http://www.w3.org/2000/svg" xmlns:xlink="http://www.w3.org/1999/xlink" xmlns:sketch="http://www.bohemiancoding.com/sketch/ns">
    <!-- Generator: Sketch 3.4.4 (17249) - http://www.bohemiancoding.com/sketch -->
    <title>atom</title>
    <desc>Created with Sketch.</desc>
    <defs></defs>
    <g id="Page-1" stroke="none" stroke-width="1" fill="none" fill-rule="evenodd" sketch:type="MSPage">
        <g id="Bicons_v3-[Converted]" sketch:type="MSLayerGroup" transform="translate(-2.000000, -396.000000)" fill="#14171C">
            <g id="atom" transform="translate(2.000000, 396.000000)" sketch:type="MSShapeGroup">
                <path d="M16.4,37 C20.1386591,37 22.9,28.7159773 22.9,18.5 C22.9,8.28402273 20.1386591,0 16.4,0 C12.6613409,0 9.9,8.28402273 9.9,18.5 C9.9,28.7159773 12.6613409,37 16.4,37 L16.4,37 Z M16.4,36 C13.5112421,36 10.9,28.1662737 10.9,18.5 C10.9,8.83372628 13.5112421,1 16.4,1 C19.2887579,1 21.9,8.83372628 21.9,18.5 C21.9,28.1662737 19.2887579,36 16.4,36 L16.4,36 Z" id="Shape"></path>
                <path d="M32.3972,27.7336 C34.2665295,24.4959212 28.4732363,17.9625886 19.6262,12.8546 C10.7791637,7.74661137 2.22452954,5.99592123 0.3552,9.2336 C-1.51412954,12.4712788 4.27916368,19.0046114 13.1262,24.1126 C21.9732363,29.2205886 30.5278705,30.9712788 32.3972,27.7336 L32.3972,27.7336 Z M31.5312,27.2336 C30.086821,29.7352643 21.997193,28.0797369 13.6262,23.2466 C5.25520696,18.4134631 -0.223178954,12.2352643 1.2212,9.7336 C2.66557895,7.23193565 10.755207,8.88746314 19.1262,13.7206 C27.497193,18.5537369 32.975579,24.7319357 31.5312,27.2336 L31.5312,27.2336 Z" id="Shape"></path>
                <path d="M0.3806,27.7699 C2.24992954,31.0075788 10.8045637,29.2568886 19.6516,24.1489 C28.4986363,19.0409114 34.2919295,12.5075788 32.4226,9.2699 C30.5532705,6.03222123 21.9986363,7.78291137 13.1516,12.8909 C4.30456368,17.9988886 -1.48872954,24.5322212 0.3806,27.7699 L0.3806,27.7699 Z M1.2466,27.2699 C-0.197778954,24.7682357 5.28060696,18.5900369 13.6516,13.7569 C22.022593,8.92376314 30.112221,7.26823565 31.5566,9.7699 C33.000979,12.2715643 27.522593,18.4497631 19.1516,23.2829 C10.780607,28.1160369 2.69097895,29.7715643 1.2466,27.2699 L1.2466,27.2699 Z" id="Shape"></path>
            </g>
        </g>
    </g>
</svg>