<?xml version="1.0" encoding="UTF-8" standalone="no"?>
<svg width="39px" height="35px" viewBox="0 0 39 35" version="1.1" xmlns="http://www.w3.org/2000/svg" xmlns:xlink="http://www.w3.org/1999/xlink" xmlns:sketch="http://www.bohemiancoding.com/sketch/ns">
    <!-- Generator: Sketch 3.4.4 (17249) - http://www.bohemiancoding.com/sketch -->
    <title>balance</title>
    <desc>Created with Sketch.</desc>
    <defs></defs>
    <g id="Page-1" stroke="none" stroke-width="1" fill="none" fill-rule="evenodd" sketch:type="MSPage">
        <g id="Bicons_v3-[Converted]" sketch:type="MSLayerGroup" transform="translate(-65.000000, -529.000000)" fill="#14171C">
            <g id="balance" transform="translate(65.000000, 529.000000)" sketch:type="MSShapeGroup">
                <path d="M19,0.5 L19,33.5 L20,33.5 L20,0.5 L19,0.5 L19,0.5 Z" id="Shape"></path>
                <path d="M12.5,35 L26.5,35 L26.5,34 L12.5,34 L12.5,35 L12.5,35 Z" id="Shape"></path>
                <path d="M2.63343954,12.981865 L35.1334395,3.98186501 L34.8665605,3.01813499 L2.36656046,12.018135 L2.63343954,12.981865 L2.63343954,12.981865 Z" id="Shape"></path>
                <path d="M6.5,28 L4.5,28 C2.57614237,28 1,26.4238576 1,24.5 C1,24.1761424 1.17614237,24 1.5,24 L9.5,24 C9.82385763,24 10,24.1761424 10,24.5 C10,26.4238576 8.42385763,28 6.5,28 L6.5,28 Z M6.5,29 C8.97614237,29 11,26.9761424 11,24.5 C11,23.6238576 10.3761424,23 9.5,23 L1.5,23 C0.623857625,23 0,23.6238576 0,24.5 C0,26.9761424 2.02385763,29 4.5,29 L6.5,29 L6.5,29 Z" id="Shape"></path>
                <path d="M1.97434165,23.6581139 L5.97434165,11.6581139 L5.02565835,11.6581139 L9.02565835,23.6581139 L9.97434165,23.3418861 L5.97434165,11.3418861 L5.5,9.91886117 L5.02565835,11.3418861 L1.02565835,23.3418861 L1.97434165,23.6581139 L1.97434165,23.6581139 Z" id="Shape"></path>
                <path d="M34.5,20.5 L32.5,20.5 C30.5761424,20.5 29,18.9238576 29,17 C29,16.6761424 29.1761424,16.5 29.5,16.5 L37.5,16.5 C37.8238576,16.5 38,16.6761424 38,17 C38,18.9238576 36.4238576,20.5 34.5,20.5 L34.5,20.5 Z M34.5,21.5 C36.9761424,21.5 39,19.4761424 39,17 C39,16.1238576 38.3761424,15.5 37.5,15.5 L29.5,15.5 C28.6238576,15.5 28,16.1238576 28,17 C28,19.4761424 30.0238576,21.5 32.5,21.5 L34.5,21.5 L34.5,21.5 Z" id="Shape"></path>
                <path d="M29.9743416,16.1581139 L33.9743416,4.15811388 L33.0256584,4.15811388 L37.0256584,16.1581139 L37.9743416,15.8418861 L33.9743416,3.84188612 L33.5,2.41886117 L33.0256584,3.84188612 L29.0256584,15.8418861 L29.9743416,16.1581139 L29.9743416,16.1581139 Z" id="Shape"></path>
            </g>
        </g>
    </g>
</svg>