<?xml version="1.0" encoding="UTF-8" standalone="no"?>
<svg width="36px" height="37px" viewBox="0 0 36 37" version="1.1" xmlns="http://www.w3.org/2000/svg" xmlns:xlink="http://www.w3.org/1999/xlink" xmlns:sketch="http://www.bohemiancoding.com/sketch/ns">
    <!-- Generator: Sketch 3.4.4 (17249) - http://www.bohemiancoding.com/sketch -->
    <title>calendar</title>
    <desc>Created with Sketch.</desc>
    <defs></defs>
    <g id="Page-1" stroke="none" stroke-width="1" fill="none" fill-rule="evenodd" sketch:type="MSPage">
        <g id="Bicons_v3-[Converted]" sketch:type="MSLayerGroup" transform="translate(-463.000000, -261.000000)">
            <g id="calendar" transform="translate(463.000000, 261.000000)" sketch:type="MSShapeGroup">
                <path d="M30.5,36 L4.5,36 C2.57614237,36 1,34.4238576 1,32.5 L1,8.5 C1,6.57614237 2.57614237,5 4.5,5 L30.5,5 C32.4238576,5 34,6.57614237 34,8.5 L34,32.5 C34,34.4238576 32.4238576,36 30.5,36 L30.5,36 Z M30.5,37 C32.9761424,37 35,34.9761424 35,32.5 L35,8.5 C35,6.02385763 32.9761424,4 30.5,4 L4.5,4 C2.02385763,4 0,6.02385763 0,8.5 L0,32.5 C0,34.9761424 2.02385763,37 4.5,37 L30.5,37 L30.5,37 Z" id="Shape" fill="#14171C"></path>
                <path d="M1.5,13 L35.5,13 L35.5,12 L1.5,12 L1.5,13 L1.5,13 Z" id="Shape" fill="#14171C"></path>
                <path d="M8,0.5 L8,7.5 L9,7.5 L9,0.5 L8,0.5 L8,0.5 Z" id="Shape" fill="#000000"></path>
                <path d="M26,0.5 L26,7.5 L27,7.5 L27,0.5 L26,0.5 L26,0.5 Z" id="Shape" fill="#000000"></path>
                <path d="M9.5,22 L5.5,22 C5.17614237,22 5,21.8238576 5,21.5 L5,17.5 C5,17.1761424 5.17614237,17 5.5,17 L9.5,17 C9.82385763,17 10,17.1761424 10,17.5 L10,21.5 C10,21.8238576 9.82385763,22 9.5,22 L9.5,22 Z M9.5,23 C10.3761424,23 11,22.3761424 11,21.5 L11,17.5 C11,16.6238576 10.3761424,16 9.5,16 L5.5,16 C4.62385763,16 4,16.6238576 4,17.5 L4,21.5 C4,22.3761424 4.62385763,23 5.5,23 L9.5,23 L9.5,23 Z" id="Shape" fill="#14171C"></path>
                <path d="M19.5,22 L15.5,22 C15.1761424,22 15,21.8238576 15,21.5 L15,17.5 C15,17.1761424 15.1761424,17 15.5,17 L19.5,17 C19.8238576,17 20,17.1761424 20,17.5 L20,21.5 C20,21.8238576 19.8238576,22 19.5,22 L19.5,22 Z M19.5,23 C20.3761424,23 21,22.3761424 21,21.5 L21,17.5 C21,16.6238576 20.3761424,16 19.5,16 L15.5,16 C14.6238576,16 14,16.6238576 14,17.5 L14,21.5 C14,22.3761424 14.6238576,23 15.5,23 L19.5,23 L19.5,23 Z" id="Shape" fill="#14171C"></path>
                <path d="M29.5,22 L25.5,22 C25.1761424,22 25,21.8238576 25,21.5 L25,17.5 C25,17.1761424 25.1761424,17 25.5,17 L29.5,17 C29.8238576,17 30,17.1761424 30,17.5 L30,21.5 C30,21.8238576 29.8238576,22 29.5,22 L29.5,22 Z M29.5,23 C30.3761424,23 31,22.3761424 31,21.5 L31,17.5 C31,16.6238576 30.3761424,16 29.5,16 L25.5,16 C24.6238576,16 24,16.6238576 24,17.5 L24,21.5 C24,22.3761424 24.6238576,23 25.5,23 L29.5,23 L29.5,23 Z" id="Shape" fill="#14171C"></path>
                <path d="M9.5,32 L5.5,32 C5.17614237,32 5,31.8238576 5,31.5 L5,27.5 C5,27.1761424 5.17614237,27 5.5,27 L9.5,27 C9.82385763,27 10,27.1761424 10,27.5 L10,31.5 C10,31.8238576 9.82385763,32 9.5,32 L9.5,32 Z M9.5,33 C10.3761424,33 11,32.3761424 11,31.5 L11,27.5 C11,26.6238576 10.3761424,26 9.5,26 L5.5,26 C4.62385763,26 4,26.6238576 4,27.5 L4,31.5 C4,32.3761424 4.62385763,33 5.5,33 L9.5,33 L9.5,33 Z" id="Shape" fill="#14171C"></path>
                <path d="M19.5,32 L15.5,32 C15.1761424,32 15,31.8238576 15,31.5 L15,27.5 C15,27.1761424 15.1761424,27 15.5,27 L19.5,27 C19.8238576,27 20,27.1761424 20,27.5 L20,31.5 C20,31.8238576 19.8238576,32 19.5,32 L19.5,32 Z M19.5,33 C20.3761424,33 21,32.3761424 21,31.5 L21,27.5 C21,26.6238576 20.3761424,26 19.5,26 L15.5,26 C14.6238576,26 14,26.6238576 14,27.5 L14,31.5 C14,32.3761424 14.6238576,33 15.5,33 L19.5,33 L19.5,33 Z" id="Shape" fill="#14171C"></path>
                <path d="M29.5,32 L25.5,32 C25.1761424,32 25,31.8238576 25,31.5 L25,27.5 C25,27.1761424 25.1761424,27 25.5,27 L29.5,27 C29.8238576,27 30,27.1761424 30,27.5 L30,31.5 C30,31.8238576 29.8238576,32 29.5,32 L29.5,32 Z M29.5,33 C30.3761424,33 31,32.3761424 31,31.5 L31,27.5 C31,26.6238576 30.3761424,26 29.5,26 L25.5,26 C24.6238576,26 24,26.6238576 24,27.5 L24,31.5 C24,32.3761424 24.6238576,33 25.5,33 L29.5,33 L29.5,33 Z" id="Shape" fill="#14171C"></path>
            </g>
        </g>
    </g>
</svg>