<?xml version="1.0" encoding="UTF-8" standalone="no"?>
<svg width="40px" height="36px" viewBox="0 0 40 36" version="1.1" xmlns="http://www.w3.org/2000/svg" xmlns:xlink="http://www.w3.org/1999/xlink" xmlns:sketch="http://www.bohemiancoding.com/sketch/ns">
    <!-- Generator: Sketch 3.4.4 (17249) - http://www.bohemiancoding.com/sketch -->
    <title>comments</title>
    <desc>Created with Sketch.</desc>
    <defs></defs>
    <g id="Page-1" stroke="none" stroke-width="1" fill="none" fill-rule="evenodd" sketch:type="MSPage">
        <g id="Bicons_v3-[Converted]" sketch:type="MSLayerGroup" transform="translate(-196.000000, -198.000000)" fill="#14171C">
            <g id="comments" transform="translate(196.000000, 198.000000)" sketch:type="MSShapeGroup">
                <path d="M31.33003,34.0363364 C32.4535325,35.2721892 33.9964914,36 35.6,36 C36.7221257,36 37.6980937,35.717483 38.7428215,35.1370786 L39.5246836,34.7027108 L38.7451306,34.2642122 C37.2613851,33.4296054 36.1669766,31.851621 35.8938815,30.1220187 L35.8126536,30.482342 C37.1793244,28.4849001 37.9,26.082648 37.9,23.5 C37.9,16.6238576 32.2761424,11 25.4,11 C18.5238576,11 12.9,16.6238576 12.9,23.5 C12.9,30.3761424 18.5238576,36 25.4,36 C27.8961303,36 30.092831,35.3723712 31.9773501,34.1160251 L31.33003,34.0363364 L31.33003,34.0363364 Z M32.06997,33.3636636 L31.7805914,33.0453472 L31.4226499,33.2839749 C29.707169,34.4276288 27.7038697,35 25.4,35 C19.0761424,35 13.9,29.8238576 13.9,23.5 C13.9,17.1761424 19.0761424,12 25.4,12 C31.7238576,12 36.9,17.1761424 36.9,23.5 C36.9,25.8840187 36.2384839,28.0890725 34.9873464,29.917658 L34.8751231,30.0816767 L34.9061185,30.2779813 C35.2268428,32.3092348 36.5042348,34.1510558 38.2548694,35.1357878 L38.2571785,34.2629214 C37.3535547,34.7649346 36.5415106,35 35.6,35 C34.2875086,35 33.0095306,34.3971802 32.06997,33.3636636 L32.06997,33.3636636 Z" id="Shape"></path>
                <path d="M10.6436739,21.6210869 C9.72048062,21.3441289 8.85645997,20.9704983 7.94282147,20.4629214 L7.59473354,20.2695392 L7.32835293,20.5655176 C6.51048144,21.4742637 5.33952339,22 4.1,22 C3.23052038,22 2.42643493,21.7472874 1.7906191,21.2931333 L1.75724788,22.1287465 C3.45093688,21.1125331 4.58028324,19.5596818 4.89319696,17.6821995 L4.92570254,17.487166 L4.81602515,17.3226499 C3.63702072,15.5541433 3,13.5450779 3,11.5 C3,5.67614237 7.67614237,1 13.5,1 C18.2852713,1 22.3534387,4.16107594 23.6180944,8.73329303 L24.5819056,8.46670697 C23.1984749,3.46507311 18.7390765,5.68434189e-14 13.5,5.68434189e-14 C7.12385763,5.68434189e-14 2,5.12385763 2,11.5 C2,13.7472298 2.697863,15.9481823 3.98397485,17.8773501 L3.90680304,17.5178005 C3.64404108,19.0943722 2.69422441,20.4003702 1.24275212,21.2712535 L0.588822939,21.663611 L1.2093809,22.1068667 C2.01642221,22.6833248 3.02402508,23 4.1,23 C5.62411297,23 7.06486103,22.3531335 8.07164707,21.2344824 L7.45717853,21.3370786 C8.43134491,21.8782822 9.36115203,22.2803609 10.3563261,22.5789131 L10.6436739,21.6210869 L10.6436739,21.6210869 Z" id="Shape"></path>
            </g>
        </g>
    </g>
</svg>