<?xml version="1.0" encoding="UTF-8" standalone="no"?>
<svg width="35px" height="35px" viewBox="0 0 35 35" version="1.1" xmlns="http://www.w3.org/2000/svg" xmlns:xlink="http://www.w3.org/1999/xlink" xmlns:sketch="http://www.bohemiancoding.com/sketch/ns">
    <!-- Generator: Sketch 3.4.4 (17249) - http://www.bohemiancoding.com/sketch -->
    <title>compass</title>
    <desc>Created with Sketch.</desc>
    <defs></defs>
    <g id="Page-1" stroke="none" stroke-width="1" fill="none" fill-rule="evenodd" sketch:type="MSPage">
        <g id="Bicons_v3-[Converted]" sketch:type="MSLayerGroup" transform="translate(-595.000000, 0.000000)" fill="#14171C">
            <g id="compass" transform="translate(595.000000, 0.000000)" sketch:type="MSShapeGroup">
                <path d="M17.5,35 C27.1649831,35 35,27.1649831 35,17.5 C35,7.83501688 27.1649831,0 17.5,0 C7.83501688,0 0,7.83501688 0,17.5 C0,27.1649831 7.83501688,35 17.5,35 L17.5,35 Z M17.5,34 C8.38730163,34 1,26.6126984 1,17.5 C1,8.38730163 8.38730163,1 17.5,1 C26.6126984,1 34,8.38730163 34,17.5 C34,26.6126984 26.6126984,34 17.5,34 L17.5,34 Z" id="Shape"></path>
                <path d="M13.5326907,13.8221743 L9.23269065,25.1221743 L8.83639342,26.1636066 L9.87782568,25.7673093 L21.1778257,21.4673093 L21.3875158,21.3875158 L21.4673093,21.1778257 L25.7673093,9.87782568 L26.1636066,8.83639342 L25.1221743,9.23269065 L13.8221743,13.5326907 L13.6124842,13.6124842 L13.5326907,13.8221743 L13.5326907,13.8221743 Z M14.4673093,14.1778257 L14.1778257,14.4673093 L25.4778257,10.1673093 L24.8326907,9.52217432 L20.5326907,20.8221743 L20.8221743,20.5326907 L9.52217432,24.8326907 L10.1673093,25.4778257 L14.4673093,14.1778257 L14.4673093,14.1778257 Z" id="Shape"></path>
            </g>
        </g>
    </g>
</svg>