<?xml version="1.0" encoding="UTF-8" standalone="no"?>
<svg width="37px" height="37px" viewBox="0 0 37 37" version="1.1" xmlns="http://www.w3.org/2000/svg" xmlns:xlink="http://www.w3.org/1999/xlink" xmlns:sketch="http://www.bohemiancoding.com/sketch/ns">
    <!-- Generator: Sketch 3.4.4 (17249) - http://www.bohemiancoding.com/sketch -->
    <title>crop</title>
    <desc>Created with Sketch.</desc>
    <defs></defs>
    <g id="Page-1" stroke="none" stroke-width="1" fill="none" fill-rule="evenodd" sketch:type="MSPage">
        <g id="Bicons_v3-[Converted]" sketch:type="MSLayerGroup" transform="translate(-594.000000, -131.000000)" fill="#14171C">
            <g id="crop" transform="translate(594.000000, 131.000000)" sketch:type="MSShapeGroup">
                <path d="M36.5,28 L10.5,28 C9.67614237,28 9,27.3238576 9,26.5 L9,0.5 L8,0.5 L8,26.5 C8,27.8761424 9.12385763,29 10.5,29 L36.5,29 L36.5,28 L36.5,28 Z" id="Shape"></path>
                <path d="M0.5,9 L26.5,9 C27.3238576,9 28,9.67614237 28,10.5 L28,36.5 L29,36.5 L29,10.5 C29,9.12385763 27.8761424,8 26.5,8 L0.5,8 L0.5,9 L0.5,9 Z" id="Shape"></path>
            </g>
        </g>
    </g>
</svg>