<?xml version="1.0" encoding="UTF-8" standalone="no"?>
<svg width="37px" height="34px" viewBox="0 0 37 34" version="1.1" xmlns="http://www.w3.org/2000/svg" xmlns:xlink="http://www.w3.org/1999/xlink" xmlns:sketch="http://www.bohemiancoding.com/sketch/ns">
    <!-- Generator: Sketch 3.4.4 (17249) - http://www.bohemiancoding.com/sketch -->
    <title>desktop</title>
    <desc>Created with Sketch.</desc>
    <defs></defs>
    <g id="Page-1" stroke="none" stroke-width="1" fill="none" fill-rule="evenodd" sketch:type="MSPage">
        <g id="Bicons_v3-[Converted]" sketch:type="MSLayerGroup" transform="translate(-594.000000, -67.000000)" fill="#14171C">
            <g id="desktop" transform="translate(594.000000, 67.000000)" sketch:type="MSShapeGroup">
                <path d="M32.5,26 L4.5,26 C2.57614237,26 1,24.4238576 1,22.5 L1,4.5 C1,2.57614237 2.57614237,1 4.5,1 L32.5,1 C34.4238576,1 36,2.57614237 36,4.5 L36,22.5 C36,24.4238576 34.4238576,26 32.5,26 L32.5,26 Z M32.5,27 C34.9761424,27 37,24.9761424 37,22.5 L37,4.5 C37,2.02385763 34.9761424,0 32.5,0 L4.5,0 C2.02385763,0 0,2.02385763 0,4.5 L0,22.5 C0,24.9761424 2.02385763,27 4.5,27 L32.5,27 L32.5,27 Z" id="Shape"></path>
                <path d="M22.5,33 L14.5,33 L14.9949747,33.5707107 L15.9949747,26.5707107 L15.5,27 L21.5,27 L21.0050253,26.5707107 L22.0050253,33.5707107 L22.5,33 L22.5,33 Z M22.5,34 L23.0765048,34 L22.9949747,33.4292893 L21.9949747,26.4292893 L21.9336477,26 L21.5,26 L15.5,26 L15.0663523,26 L15.0050253,26.4292893 L14.0050253,33.4292893 L13.9234952,34 L14.5,34 L22.5,34 L22.5,34 Z" id="Shape"></path>
                <path d="M11.5,34 L25.5,34 L25.5,33 L11.5,33 L11.5,34 L11.5,34 Z" id="Shape"></path>
                <path d="M0.5,21 L36.5,21 L36.5,20 L0.5,20 L0.5,21 L0.5,21 Z" id="Shape"></path>
            </g>
        </g>
    </g>
</svg>