<?xml version="1.0" encoding="UTF-8" standalone="no"?>
<svg width="38px" height="36px" viewBox="0 0 38 36" version="1.1" xmlns="http://www.w3.org/2000/svg" xmlns:xlink="http://www.w3.org/1999/xlink" xmlns:sketch="http://www.bohemiancoding.com/sketch/ns">
    <!-- Generator: Sketch 3.4.4 (17249) - http://www.bohemiancoding.com/sketch -->
    <title>exit</title>
    <desc>Created with Sketch.</desc>
    <defs></defs>
    <g id="Page-1" stroke="none" stroke-width="1" fill="none" fill-rule="evenodd" sketch:type="MSPage">
        <g id="Bicons_v3-[Converted]" sketch:type="MSLayerGroup" transform="translate(-267.000000, -398.000000)" fill="#14171C">
            <g id="exit" transform="translate(267.000000, 398.000000)" sketch:type="MSShapeGroup">
                <path d="M1.81533219,1.46464804 L17.4153322,7.66464804 C18.3482844,8.08935862 19,9.03072565 19,10 L19,31.8 C19,33.5539474 17.3416075,34.7148221 15.6651752,34.1280708 L2.66029809,29.726392 C1.69105975,29.403307 1,28.4160788 1,27.4 L1,3.5 C1,2.07614237 2.07614237,1 3.5,1 L23.5,1 C24.9238576,1 26,2.07614237 26,3.5 L26,26.5 C26,27.9238576 24.9238576,29 23.5,29 L19.5,29 L19.5,30 L23.5,30 C25.4761424,30 27,28.4761424 27,26.5 L27,3.5 C27,1.52385763 25.4761424,1.13686838e-13 23.5,1.13686838e-13 L3.5,1.13686838e-13 C1.52385763,1.13686838e-13 0,1.52385763 0,3.5 L0,27.4 C0,28.8410641 0.961114164,30.2140843 2.34188612,30.6743416 L15.3397019,35.073608 C17.6583925,35.8851779 20,34.2460526 20,31.8 L20,10 C20,8.62482991 19.1078381,7.33615158 17.8069015,6.74481676 L2.18466781,0.535351961 L1.81533219,1.46464804 L1.81533219,1.46464804 Z" id="Shape"></path>
                <circle id="Oval" cx="15" cy="20" r="1.8"></circle>
                <path d="M31.6464466,11.3535534 L36.1464466,15.8535534 L36.1464466,15.1464466 L31.6464466,19.6464466 L32.3535534,20.3535534 L36.8535534,15.8535534 L37.2071068,15.5 L36.8535534,15.1464466 L32.3535534,10.6464466 L31.6464466,11.3535534 L31.6464466,11.3535534 Z" id="Shape"></path>
                <path d="M36,15 L27,15 L27,16 L36,16 L36,15 L36,15 Z" id="Shape"></path>
            </g>
        </g>
    </g>
</svg>