<?xml version="1.0" encoding="UTF-8" standalone="no"?>
<svg width="35px" height="35px" viewBox="0 0 35 35" version="1.1" xmlns="http://www.w3.org/2000/svg" xmlns:xlink="http://www.w3.org/1999/xlink" xmlns:sketch="http://www.bohemiancoding.com/sketch/ns">
    <!-- Generator: Sketch 3.4.4 (17249) - http://www.bohemiancoding.com/sketch -->
    <title>expand</title>
    <desc>Created with Sketch.</desc>
    <defs></defs>
    <g id="Page-1" stroke="none" stroke-width="1" fill="none" fill-rule="evenodd" sketch:type="MSPage">
        <g id="Bicons_v3-[Converted]" sketch:type="MSLayerGroup" transform="translate(-332.000000, -197.000000)" fill="#14171C">
            <g id="expand" transform="translate(332.000000, 197.000000)" sketch:type="MSShapeGroup">
                <path d="M18.5,2 L4.5,2 C2.02385763,2 0,4.02385763 0,6.5 L0,30.5 C0,32.9761424 2.02385763,35 4.5,35 L28.5,35 C30.9761424,35 33,32.9761424 33,30.5 L33,16.5 L32,16.5 L32,30.5 C32,32.4238576 30.4238576,34 28.5,34 L4.5,34 C2.57614237,34 1,32.4238576 1,30.5 L1,6.5 C1,4.57614237 2.57614237,3 4.5,3 L18.5,3 L18.5,2 L18.5,2 Z" id="Shape"></path>
                <path d="M16.8535534,18.8535534 L33.8535534,1.85355339 L33.1464466,1.14644661 L16.1464466,18.1464466 L16.8535534,18.8535534 L16.8535534,18.8535534 Z" id="Shape"></path>
                <path d="M35,12.5 L35,1.5 C35,0.623857625 34.3761424,0 33.5,0 L22.5,0 L22.5,1 L33.5,1 C33.8238576,1 34,1.17614237 34,1.5 L34,12.5 L35,12.5 L35,12.5 Z" id="Shape"></path>
            </g>
        </g>
    </g>
</svg>