<?xml version="1.0" encoding="UTF-8" standalone="no"?>
<svg width="35px" height="23px" viewBox="0 0 35 23" version="1.1" xmlns="http://www.w3.org/2000/svg" xmlns:xlink="http://www.w3.org/1999/xlink" xmlns:sketch="http://www.bohemiancoding.com/sketch/ns">
    <!-- Generator: Sketch 3.4.4 (17249) - http://www.bohemiancoding.com/sketch -->
    <title>eye</title>
    <desc>Created with Sketch.</desc>
    <defs></defs>
    <g id="Page-1" stroke="none" stroke-width="1" fill="none" fill-rule="evenodd" sketch:type="MSPage">
        <g id="Bicons_v3-[Converted]" sketch:type="MSLayerGroup" transform="translate(-67.000000, -468.000000)" fill="#14171C">
            <g id="eye" transform="translate(67.000000, 468.000000)" sketch:type="MSShapeGroup">
                <path d="M17.5,0 C13.1765322,0 8.89812838,1.88946405 5.15676189,4.97685184 C2.28484137,7.34676999 0,10.3004467 0,11.5 C0,12.6995533 2.28484137,15.65323 5.15676189,18.0231482 C8.89812838,21.110536 13.1765322,23 17.5,23 C21.8234678,23 26.1018716,21.110536 29.8432381,18.0231482 C32.7151586,15.65323 35,12.6995533 35,11.5 C35,10.3004467 32.7151586,7.34676999 29.8432381,4.97685184 C26.1018716,1.88946405 21.8234678,0 17.5,0 L17.5,0 Z M17.5,1 C21.5619235,1 25.6299608,2.79656024 29.2067619,5.74814816 C31.8563856,7.93462624 34,10.7057351 34,11.5 C34,12.2942649 31.8563856,15.0653738 29.2067619,17.2518518 C25.6299608,20.2034398 21.5619235,22 17.5,22 C13.4380765,22 9.37003924,20.2034398 5.79323811,17.2518518 C3.14361443,15.0653738 1,12.2942649 1,11.5 C1,10.7057351 3.14361443,7.93462624 5.79323811,5.74814816 C9.37003924,2.79656024 13.4380765,1 17.5,1 L17.5,1 Z" id="Shape"></path>
                <path d="M17.5,18 C21.0898509,18 24,15.0898509 24,11.5 C24,7.91014913 21.0898509,5 17.5,5 C13.9101491,5 11,7.91014913 11,11.5 C11,15.0898509 13.9101491,18 17.5,18 L17.5,18 Z M17.5,17 C14.4624339,17 12,14.5375661 12,11.5 C12,8.46243388 14.4624339,6 17.5,6 C20.5375661,6 23,8.46243388 23,11.5 C23,14.5375661 20.5375661,17 17.5,17 L17.5,17 Z" id="Shape"></path>
            </g>
        </g>
    </g>
</svg>