<?xml version="1.0" encoding="UTF-8" standalone="no"?>
<svg width="31px" height="35px" viewBox="0 0 31 35" version="1.1" xmlns="http://www.w3.org/2000/svg" xmlns:xlink="http://www.w3.org/1999/xlink" xmlns:sketch="http://www.bohemiancoding.com/sketch/ns">
    <!-- Generator: Sketch 3.4.4 (17249) - http://www.bohemiancoding.com/sketch -->
    <title>file-r</title>
    <desc>Created with Sketch.</desc>
    <defs></defs>
    <g id="Page-1" stroke="none" stroke-width="1" fill="none" fill-rule="evenodd" sketch:type="MSPage">
        <g id="Bicons_v3-[Converted]" sketch:type="MSLayerGroup" transform="translate(-597.000000, -397.000000)" fill="#14171C">
            <g id="file-r" transform="translate(597.000000, 397.000000)" sketch:type="MSShapeGroup">
                <g id="Group">
                    <path d="M26.5,0 L4.5,0 C2.02385763,0 0,2.02385763 0,4.5 L0,30.5 C0,32.9761424 2.02385763,35 4.5,35 L17.7,35 C18.2927102,35 18.8966936,34.7774798 19.4,34.4 L30.2378623,24.4685771 C30.7489169,23.9581899 31,23.3304821 31,22.6 L31,4.5 C31,2.02385763 28.9761424,0 26.5,0 L26.5,0 Z M26.5,1 C28.4238576,1 30,2.57614237 30,4.5 L30,22.6 C30,23.0695179 29.8510831,23.4418101 29.5464466,23.7464466 L18.7621377,33.6314229 C18.4619271,33.8535547 18.0644327,34 17.7,34 L4.5,34 C2.57614237,34 1,32.4238576 1,30.5 L1,4.5 C1,2.57614237 2.57614237,1 4.5,1 L26.5,1 L26.5,1 Z" id="Shape"></path>
                    <path d="M19,34.5 L19,27.5 C19,25.5761424 20.5761424,24 22.5,24 L30,24 L30,23 L22.5,23 C20.0238576,23 18,25.0238576 18,27.5 L18,34.5 L19,34.5 L19,34.5 Z" id="Shape"></path>
                </g>
                <path d="M5.5,8 L21.5,8 L21.5,7 L5.5,7 L5.5,8 L5.5,8 Z" id="Shape"></path>
                <path d="M5.5,29 L13.5,29 L13.5,28 L5.5,28 L5.5,29 L5.5,29 Z" id="Shape"></path>
                <path d="M5.5,22 L17.5,22 L17.5,21 L5.5,21 L5.5,22 L5.5,22 Z" id="Shape"></path>
                <path d="M5.5,15 L25.5,15 L25.5,14 L5.5,14 L5.5,15 L5.5,15 Z" id="Shape"></path>
            </g>
        </g>
    </g>
</svg>