<?xml version="1.0" encoding="UTF-8" standalone="no"?>
<svg width="33px" height="31px" viewBox="0 0 33 31" version="1.1" xmlns="http://www.w3.org/2000/svg" xmlns:xlink="http://www.w3.org/1999/xlink" xmlns:sketch="http://www.bohemiancoding.com/sketch/ns">
    <!-- Generator: Sketch 3.4.4 (17249) - http://www.bohemiancoding.com/sketch -->
    <title>film</title>
    <desc>Created with Sketch.</desc>
    <defs></defs>
    <g id="Page-1" stroke="none" stroke-width="1" fill="none" fill-rule="evenodd" sketch:type="MSPage">
        <g id="Bicons_v3-[Converted]" sketch:type="MSLayerGroup" transform="translate(-2.000000, -465.000000)" fill="#14171C">
            <g id="film" transform="translate(2.000000, 465.000000)" sketch:type="MSShapeGroup">
                <path d="M29.5,30 L3.5,30 C2.07614237,30 1,28.9238576 1,27.5 L1,3.5 C1,2.07614237 2.07614237,1 3.5,1 L29.5,1 C30.9238576,1 32,2.07614237 32,3.5 L32,27.5 C32,28.9238576 30.9238576,30 29.5,30 L29.5,30 Z M29.5,31 C31.4761424,31 33,29.4761424 33,27.5 L33,3.5 C33,1.52385763 31.4761424,0 29.5,0 L3.5,0 C1.52385763,0 0,1.52385763 0,3.5 L0,27.5 C0,29.4761424 1.52385763,31 3.5,31 L29.5,31 L29.5,31 Z" id="Shape"></path>
                <path d="M8,16 L25,16 L25,15 L8,15 L8,16 L8,16 Z" id="Shape"></path>
                <path d="M8,30.5 L8,0.5 L7,0.5 L7,30.5 L8,30.5 L8,30.5 Z" id="Shape"></path>
                <path d="M26,31 L26,1 L25,1 L25,31 L26,31 L26,31 Z" id="Shape"></path>
                <path d="M0.5,13 L7.5,13 L7,12.5 L7,18.5 L7.5,18 L0.5,18 L1,18.5 L1,12.5 L0.5,13 L0.5,13 Z M0.5,12 L0,12 L0,12.5 L0,18.5 L0,19 L0.5,19 L7.5,19 L8,19 L8,18.5 L8,12.5 L8,12 L7.5,12 L0.5,12 L0.5,12 Z" id="Shape"></path>
                <path d="M0.5,19 L7.5,19 L7,18.5 L7,24.5 L7.5,24 L0.5,24 L1,24.5 L1,18.5 L0.5,19 L0.5,19 Z M0.5,18 L0,18 L0,18.5 L0,24.5 L0,25 L0.5,25 L7.5,25 L8,25 L8,24.5 L8,18.5 L8,18 L7.5,18 L0.5,18 L0.5,18 Z" id="Shape"></path>
                <path d="M0.5,7 L7.5,7 L7,6.5 L7,12.5 L7.5,12 L0.5,12 L1,12.5 L1,6.5 L0.5,7 L0.5,7 Z M0.5,6 L0,6 L0,6.5 L0,12.5 L0,13 L0.5,13 L7.5,13 L8,13 L8,12.5 L8,6.5 L8,6 L7.5,6 L0.5,6 L0.5,6 Z" id="Shape"></path>
                <path d="M25.5,13 L32.5,13 L32,12.5 L32,18.5 L32.5,18 L25.5,18 L26,18.5 L26,12.5 L25.5,13 L25.5,13 Z M25.5,12 L25,12 L25,12.5 L25,18.5 L25,19 L25.5,19 L32.5,19 L33,19 L33,18.5 L33,12.5 L33,12 L32.5,12 L25.5,12 L25.5,12 Z" id="Shape"></path>
                <path d="M25.5,19 L32.5,19 L32,18.5 L32,24.5 L32.5,24 L25.5,24 L26,24.5 L26,18.5 L25.5,19 L25.5,19 Z M25.5,18 L25,18 L25,18.5 L25,24.5 L25,25 L25.5,25 L32.5,25 L33,25 L33,24.5 L33,18.5 L33,18 L32.5,18 L25.5,18 L25.5,18 Z" id="Shape"></path>
                <path d="M25.5,7 L32.5,7 L32,6.5 L32,12.5 L32.5,12 L25.5,12 L26,12.5 L26,6.5 L25.5,7 L25.5,7 Z M25.5,6 L25,6 L25,6.5 L25,12.5 L25,13 L25.5,13 L32.5,13 L33,13 L33,12.5 L33,6.5 L33,6 L32.5,6 L25.5,6 L25.5,6 Z" id="Shape"></path>
            </g>
        </g>
    </g>
</svg>