<?xml version="1.0" encoding="UTF-8" standalone="no"?>
<svg width="29px" height="36px" viewBox="0 0 29 36" version="1.1" xmlns="http://www.w3.org/2000/svg" xmlns:xlink="http://www.w3.org/1999/xlink" xmlns:sketch="http://www.bohemiancoding.com/sketch/ns">
    <!-- Generator: Sketch 3.4.4 (17249) - http://www.bohemiancoding.com/sketch -->
    <title>filter</title>
    <desc>Created with Sketch.</desc>
    <defs></defs>
    <g id="Page-1" stroke="none" stroke-width="1" fill="none" fill-rule="evenodd" sketch:type="MSPage">
        <g id="Bicons_v3-[Converted]" sketch:type="MSLayerGroup" transform="translate(-400.000000, -397.000000)" fill="#14171C">
            <g id="filter" transform="translate(400.000000, 397.000000)" sketch:type="MSShapeGroup">
                <path d="M14.5,7 C22.0334049,7 28,5.62309343 28,3.5 C28,1.37690657 22.0334049,0 14.5,0 C6.96659513,0 1,1.37690657 1,3.5 C1,5.62309343 6.96659513,7 14.5,7 L14.5,7 Z M14.5,6 C7.67400138,6 2,4.69061507 2,3.5 C2,2.30938493 7.67400138,1 14.5,1 C21.3259986,1 27,2.30938493 27,3.5 C27,4.69061507 21.3259986,6 14.5,6 L14.5,6 Z" id="Shape"></path>
                <path d="M1.00184762,3.45705583 C0.997382736,3.50884843 0.991081475,3.60294727 0.984909977,3.73625162 C0.940156899,4.7029181 0.976187222,5.92634775 1.15359849,7.31224283 C1.41407825,9.34704939 1.93851669,11.3523598 2.78972041,13.2331147 C3.02516932,13.7533446 3.28393847,14.2593821 3.56690721,14.7498612 C4.28966136,16.0026351 5.13301422,17.1271056 6.0727314,18.1294706 C7.2114984,19.3441554 8.43188448,20.3204642 9.65381781,21.0807783 C10.0831571,21.3479227 10.4828615,21.5692975 10.8430431,21.7476732 C11.062838,21.8565239 11.2232119,21.9278013 11.3143047,21.9642383 L11,21.5 L11,34.5 L11,35.4342585 L11.7773501,34.9160251 L17.7773501,30.9160251 L18,30.7675919 L18,30.5 L18,21.5 L17.6856953,21.9642383 C17.7767881,21.9278013 17.937162,21.8565239 18.1569569,21.7476732 C18.5171385,21.5692975 18.9168429,21.3479227 19.3461822,21.0807783 C20.5681155,20.3204642 21.7885016,19.3441554 22.9272686,18.1294706 C23.8669858,17.1271056 24.7103386,16.0026351 25.4330928,14.7498612 C25.7160615,14.2593821 25.9748307,13.7533446 26.2102796,13.2331147 C27.0614833,11.3523598 27.5859218,9.34704939 27.8464015,7.31224283 C28.0238128,5.92634775 28.0598431,4.7029181 28.01509,3.73625162 C28.0089185,3.60294727 28.0026173,3.50884843 27.9981524,3.45705583 L27.0018476,3.54294417 C27.0051952,3.58177657 27.0106127,3.66267773 27.01616,3.78249838 C27.058382,4.69449401 27.0240312,5.8608959 26.8544957,7.18526694 C26.6059041,9.12720598 26.1062871,11.0376061 25.2992419,12.8207916 C25.0771102,13.3115968 24.8332549,13.7884695 24.5669072,14.2501388 C23.8834114,15.4348649 23.0861392,16.4978944 22.1977314,17.4455294 C21.1216547,18.5933446 19.9689939,19.5154733 18.8178803,20.2317217 C18.4166532,20.4813741 18.0451174,20.6871478 17.7131603,20.8515456 C17.5176719,20.9483589 17.3814151,21.0089175 17.3143047,21.0357617 L17,21.1614835 L17,21.5 L17,30.5 L17.2226499,30.0839749 L11.2226499,34.0839749 L12,34.5 L12,21.5 L12,21.1614835 L11.6856953,21.0357617 C11.6185849,21.0089175 11.4823281,20.9483589 11.2868397,20.8515456 C10.9548826,20.6871478 10.5833468,20.4813741 10.1821197,20.2317217 C9.03100614,19.5154733 7.87834535,18.5933446 6.8022686,17.4455294 C5.91386078,16.4978944 5.11658864,15.4348649 4.43309279,14.2501388 C4.16674512,13.7884695 3.92288976,13.3115968 3.7007581,12.8207916 C2.89371293,11.0376061 2.39409589,9.12720598 2.14550429,7.18526694 C1.97596884,5.8608959 1.941618,4.69449401 1.98384002,3.78249838 C1.98938728,3.66267773 1.99480476,3.58177657 1.99815238,3.54294417 L1.00184762,3.45705583 L1.00184762,3.45705583 Z" id="Shape"></path>
            </g>
        </g>
    </g>
</svg>