<?xml version="1.0" encoding="UTF-8" standalone="no"?>
<svg width="33px" height="33px" viewBox="0 0 33 33" version="1.1" xmlns="http://www.w3.org/2000/svg" xmlns:xlink="http://www.w3.org/1999/xlink" xmlns:sketch="http://www.bohemiancoding.com/sketch/ns">
    <!-- Generator: Sketch 3.4.4 (17249) - http://www.bohemiancoding.com/sketch -->
    <title>image</title>
    <desc>Created with Sketch.</desc>
    <defs></defs>
    <g id="Page-1" stroke="none" stroke-width="1" fill="none" fill-rule="evenodd" sketch:type="MSPage">
        <g id="Bicons_v3-[Converted]" sketch:type="MSLayerGroup" transform="translate(-68.000000, -1.000000)" fill="#14171C">
            <g id="image" transform="translate(68.000000, 1.000000)" sketch:type="MSShapeGroup">
                <path d="M28.5,1 C30.4238576,1 32,2.57614237 32,4.5 L32,28.5 C32,30.4238576 30.4238576,32 28.5,32 L4.5,32 C2.57614237,32 1,30.4238576 1,28.5 L1,4.5 C1,2.57614237 2.57614237,1 4.5,1 L28.5,1 L28.5,1 Z M28.5,0 L4.5,0 C2.02385763,0 0,2.02385763 0,4.5 L0,28.5 C0,30.9761424 2.02385763,33 4.5,33 L28.5,33 C30.9761424,33 33,30.9761424 33,28.5 L33,4.5 C33,2.02385763 30.9761424,0 28.5,0 L28.5,0 Z" id="Shape"></path>
                <path d="M0.871647073,24.8344824 L9.87164707,14.8344824 L9.1636636,14.86997 L20.1636636,24.86997 L20.4857232,25.1627515 L20.8200922,24.8841106 L26.8200922,19.8841106 L26.1799078,19.8841106 L32.1799078,24.8841106 L32.8200922,24.1158894 L26.8200922,19.1158894 L26.5,18.8491459 L26.1799078,19.1158894 L20.1799078,24.1158894 L20.8363364,24.13003 L9.8363364,14.13003 L9.46451189,13.7920077 L9.12835293,14.1655176 L0.128352927,24.1655176 L0.871647073,24.8344824 L0.871647073,24.8344824 Z" id="Shape"></path>
                <path d="M23.5,14 C25.9852814,14 28,11.9852814 28,9.5 C28,7.01471863 25.9852814,5 23.5,5 C21.0147186,5 19,7.01471863 19,9.5 C19,11.9852814 21.0147186,14 23.5,14 L23.5,14 Z M23.5,13 C21.5670034,13 20,11.4329966 20,9.5 C20,7.56700338 21.5670034,6 23.5,6 C25.4329966,6 27,7.56700338 27,9.5 C27,11.4329966 25.4329966,13 23.5,13 L23.5,13 Z" id="Shape"></path>
            </g>
        </g>
    </g>
</svg>