<?xml version="1.0" encoding="UTF-8" standalone="no"?>
<svg width="35px" height="35px" viewBox="0 0 35 35" version="1.1" xmlns="http://www.w3.org/2000/svg" xmlns:xlink="http://www.w3.org/1999/xlink" xmlns:sketch="http://www.bohemiancoding.com/sketch/ns">
    <!-- Generator: Sketch 3.4.4 (17249) - http://www.bohemiancoding.com/sketch -->
    <title>leaf</title>
    <desc>Created with Sketch.</desc>
    <defs></defs>
    <g id="Page-1" stroke="none" stroke-width="1" fill="none" fill-rule="evenodd" sketch:type="MSPage">
        <g id="Bicons_v3-[Converted]" sketch:type="MSLayerGroup" transform="translate(-1.000000, -529.000000)" fill="#14171C">
            <g id="leaf" transform="translate(1.000000, 529.000000)" sketch:type="MSShapeGroup">
                <path d="M33.3915348,0.98809353 C33.7609993,1.07019675 34,2.98220261 34,6.5 C34,20.3448239 26.61663,30 16,30 C9.19848638,30 3.5,24.4506887 3.5,17.5 C3.5,9.06826364 10.7636078,4 21.5,4 C25.660231,4 28.5960839,3.43741584 30.7779653,2.45111228 C31.5167699,2.11714107 31.8764285,1.9038125 32.7595442,1.32828531 C33.1914411,1.04681775 33.3419257,0.979456478 33.4105573,0.991934955 L33.3915348,0.98809353 Z M33.5894427,0.00806504495 C33.0405549,-0.0917327488 30.9237735,1.2877753 30.3660534,1.53988864 C28.3214272,2.46414695 25.525071,3 21.5,3 C10.2722211,3 2.5,8.42315427 2.5,17.5 C2.5,25.0089972 8.65205125,31 16,31 C27.2363112,31 35,20.8474838 35,6.5 C35,2.01779739 34.7818579,0.272660391 33.6084652,0.0119064699 L33.5894427,0.00806504495 Z" id="Shape"></path>
                <path d="M15.7241322,17.0829905 C9.37276518,21.284664 2.79253753,28.5860125 0.0494991651,34.2830922 L0.950500835,34.7169078 C3.61280017,29.1875169 10.0705556,22.0220622 16.2758678,17.9170095 L15.7241322,17.0829905 L15.7241322,17.0829905 Z" id="Shape"></path>
            </g>
        </g>
    </g>
</svg>