<?xml version="1.0" encoding="UTF-8" standalone="no"?>
<svg width="31px" height="31px" viewBox="0 0 31 31" version="1.1" xmlns="http://www.w3.org/2000/svg" xmlns:xlink="http://www.w3.org/1999/xlink" xmlns:sketch="http://www.bohemiancoding.com/sketch/ns">
    <!-- Generator: Sketch 3.4.4 (17249) - http://www.bohemiancoding.com/sketch -->
    <title>link</title>
    <desc>Created with Sketch.</desc>
    <defs></defs>
    <g id="Page-1" stroke="none" stroke-width="1" fill="none" fill-rule="evenodd" sketch:type="MSPage">
        <g id="Bicons_v3-[Converted]" sketch:type="MSLayerGroup" transform="translate(-531.000000, -266.000000)" fill="#14171C">
            <g id="link" transform="translate(531.000000, 266.000000)" sketch:type="MSShapeGroup">
                <path d="M15.8535534,7.35355339 L20.7535534,2.45355339 C22.5582912,0.648815536 25.3417088,0.648815536 27.1464466,2.45355339 L28.5464466,3.85355339 C30.3511845,5.65829124 30.3511845,8.44170876 28.5464466,10.2464466 L20.7464466,18.0464466 C18.9417088,19.8511845 16.1582912,19.8511845 14.3535534,18.0464466 L12.9535534,16.6464466 L12.2464466,17.3535534 L13.6464466,18.7535534 C15.8417088,20.9488155 19.2582912,20.9488155 21.4535534,18.7535534 L29.2535534,10.9535534 C31.4488155,8.75829124 31.4488155,5.34170876 29.2535534,3.14644661 L27.8535534,1.74644661 C25.6582912,-0.448815536 22.2417088,-0.448815536 20.0464466,1.74644661 L15.1464466,6.64644661 L15.8535534,7.35355339 L15.8535534,7.35355339 Z" id="Shape"></path>
                <path d="M15.1464466,23.6464466 L10.2464466,28.5464466 C8.44170876,30.3511845 5.65829124,30.3511845 3.85355339,28.5464466 L2.45355339,27.1464466 C0.648815536,25.3417088 0.648815536,22.5582912 2.45355339,20.7535534 L10.2535534,12.9535534 C12.0582912,11.1488155 14.8417088,11.1488155 16.6464466,12.9535534 L18.0464466,14.3535534 L18.7535534,13.6464466 L17.3535534,12.2464466 C15.1582912,10.0511845 11.7417088,10.0511845 9.54644661,12.2464466 L1.74644661,20.0464466 C-0.448815536,22.2417088 -0.448815536,25.6582912 1.74644661,27.8535534 L3.14644661,29.2535534 C5.34170876,31.4488155 8.75829124,31.4488155 10.9535534,29.2535534 L15.8535534,24.3535534 L15.1464466,23.6464466 L15.1464466,23.6464466 Z" id="Shape"></path>
            </g>
        </g>
    </g>
</svg>