<?xml version="1.0" encoding="UTF-8" standalone="no"?>
<svg width="29px" height="38px" viewBox="0 0 29 38" version="1.1" xmlns="http://www.w3.org/2000/svg" xmlns:xlink="http://www.w3.org/1999/xlink" xmlns:sketch="http://www.bohemiancoding.com/sketch/ns">
    <!-- Generator: Sketch 3.4.4 (17249) - http://www.bohemiancoding.com/sketch -->
    <title>lock</title>
    <desc>Created with Sketch.</desc>
    <defs></defs>
    <g id="Page-1" stroke="none" stroke-width="1" fill="none" fill-rule="evenodd" sketch:type="MSPage">
        <g id="Bicons_v3-[Converted]" sketch:type="MSLayerGroup" transform="translate(-268.000000, -460.000000)" fill="#14171C">
            <g id="lock" transform="translate(268.000000, 460.000000)" sketch:type="MSShapeGroup">
                <path d="M24.5,37 L4.5,37 C2.57614237,37 1,35.4238576 1,33.5 L1,20.5 C1,18.5761424 2.57614237,17 4.5,17 L24.5,17 C26.4238576,17 28,18.5761424 28,20.5 L28,33.5 C28,35.4238576 26.4238576,37 24.5,37 L24.5,37 Z M24.5,38 C26.9761424,38 29,35.9761424 29,33.5 L29,20.5 C29,18.0238576 26.9761424,16 24.5,16 L4.5,16 C2.02385763,16 0,18.0238576 0,20.5 L0,33.5 C0,35.9761424 2.02385763,38 4.5,38 L24.5,38 L24.5,38 Z" id="Shape"></path>
                <path d="M23.5,16 L5.5,16 L6,16.5 L6,9.5 C6,4.77614237 9.77614237,1 14.5,1 C19.2238576,1 23,4.77614237 23,9.5 L23,16.5 L23.5,16 L23.5,16 Z M23.5,17 L24,17 L24,16.5 L24,9.5 C24,4.22385763 19.7761424,0 14.5,0 C9.22385763,0 5,4.22385763 5,9.5 L5,16.5 L5,17 L5.5,17 L23.5,17 L23.5,17 Z" id="Shape"></path>
            </g>
        </g>
    </g>
</svg>