<?xml version="1.0" encoding="UTF-8" standalone="no"?>
<svg width="37px" height="36px" viewBox="0 0 37 36" version="1.1" xmlns="http://www.w3.org/2000/svg" xmlns:xlink="http://www.w3.org/1999/xlink" xmlns:sketch="http://www.bohemiancoding.com/sketch/ns">
    <!-- Generator: Sketch 3.4.4 (17249) - http://www.bohemiancoding.com/sketch -->
    <title>map-marker</title>
    <desc>Created with Sketch.</desc>
    <defs></defs>
    <g id="Page-1" stroke="none" stroke-width="1" fill="none" fill-rule="evenodd" sketch:type="MSPage">
        <g id="Bicons_v3-[Converted]" sketch:type="MSLayerGroup" transform="translate(-264.000000, -264.000000)" fill="#14171C">
            <g id="map-marker" transform="translate(264.000000, 264.000000)" sketch:type="MSShapeGroup">
                <path d="M18.5,1 C25.4238576,1 31,6.57614237 31,13.5 C31,15.2840098 30.6334743,17.018898 29.9419213,18.5995906 C29.310009,19.9684954 28.529983,21.1629102 27.6464466,22.0464466 L18.1464466,31.5464466 L18.8535534,31.5464466 L9.35355339,22.0464466 C8.47001702,21.1629102 7.68999098,19.9684954 7.05397969,18.5904709 C6.36652567,17.018898 6,15.2840098 6,13.5 C6,6.57614237 11.5761424,1 18.5,1 L18.5,1 Z M18.5,0 C11.0238576,0 5,6.02385763 5,13.5 C5,15.4226568 5.39534203,17.2939424 6.14192133,19.0004094 C6.82804181,20.4872423 7.67115945,21.7782662 8.64644661,22.7535534 L18.1464466,32.2535534 L18.5,32.6071068 L18.8535534,32.2535534 L28.3535534,22.7535534 C29.3288405,21.7782662 30.1719582,20.4872423 30.8539797,19.0095291 C31.604658,17.2939424 32,15.4226568 32,13.5 C32,6.02385763 25.9761424,0 18.5,0 L18.5,0 Z" id="Shape"></path>
                <path d="M4.02108686,25.3563261 L1.02108686,35.3563261 L0.827984675,36 L1.5,36 L35.5,36 L36.1720153,36 L35.9789131,35.3563261 L32.9789131,25.3563261 L32.0210869,25.6436739 L35.0210869,35.6436739 L35.5,35 L1.5,35 L1.97891314,35.6436739 L4.97891314,25.6436739 L4.02108686,25.3563261 L4.02108686,25.3563261 Z" id="Shape"></path>
                <path d="M18.5,19 C21.5375661,19 24,16.5375661 24,13.5 C24,10.4624339 21.5375661,8 18.5,8 C15.4624339,8 13,10.4624339 13,13.5 C13,16.5375661 15.4624339,19 18.5,19 L18.5,19 Z M18.5,18 C16.0147186,18 14,15.9852814 14,13.5 C14,11.0147186 16.0147186,9 18.5,9 C20.9852814,9 23,11.0147186 23,13.5 C23,15.9852814 20.9852814,18 18.5,18 L18.5,18 Z" id="Shape"></path>
            </g>
        </g>
    </g>
</svg>