<?xml version="1.0" encoding="UTF-8" standalone="no"?>
<svg width="29px" height="36px" viewBox="0 0 29 36" version="1.1" xmlns="http://www.w3.org/2000/svg" xmlns:xlink="http://www.w3.org/1999/xlink" xmlns:sketch="http://www.bohemiancoding.com/sketch/ns">
    <!-- Generator: Sketch 3.4.4 (17249) - http://www.bohemiancoding.com/sketch -->
    <title>marker</title>
    <desc>Created with Sketch.</desc>
    <defs></defs>
    <g id="Page-1" stroke="none" stroke-width="1" fill="none" fill-rule="evenodd" sketch:type="MSPage">
        <g id="Bicons_v3-[Converted]" sketch:type="MSLayerGroup" transform="translate(-532.000000, 0.000000)" fill="#14171C">
            <g id="marker" transform="translate(532.000000, 0.000000)" sketch:type="MSShapeGroup">
                <path d="M14.5,20.1 C17.5375661,20.1 20,17.6375661 20,14.6 C20,11.5624339 17.5375661,9.1 14.5,9.1 C11.4624339,9.1 9,11.5624339 9,14.6 C9,17.6375661 11.4624339,20.1 14.5,20.1 L14.5,20.1 Z M14.5,19.1 C12.0147186,19.1 10,17.0852814 10,14.6 C10,12.1147186 12.0147186,10.1 14.5,10.1 C16.9852814,10.1 19,12.1147186 19,14.6 C19,17.0852814 16.9852814,19.1 14.5,19.1 L14.5,19.1 Z" id="Shape"></path>
                <path d="M14.5,1.1 C21.9238576,1.1 28,7.17614237 28,14.6 C28,16.530314 27.6145685,18.3611137 26.8430942,20.0969308 C26.2420897,21.4991619 25.3638976,22.8289956 24.3464466,23.8464466 L14.1464466,34.0464466 L14.8535534,34.0464466 L4.65355339,23.8464466 C3.67139263,22.8642858 2.89255607,21.6731241 2.15309157,20.0885573 C1.39886598,18.4858218 1,16.5662793 1,14.6 C1,7.17614237 7.07614237,1.1 14.5,1.1 L14.5,1.1 Z M14.5,0.1 C6.52385763,0.1 8.15422165e-15,6.62385763 -2.27373675e-13,14.6 C-2.27373675e-13,16.7087207 0.429040999,18.7734805 1.24759065,20.5128985 C2.03210146,22.1939992 2.87305182,23.4801586 3.94644661,24.5535534 L14.1464466,34.7535534 L14.5,35.1071068 L14.8535534,34.7535534 L25.0535534,24.5535534 C26.1638802,23.4432266 27.1125615,22.006652 27.7595725,20.4969596 C28.5854315,18.6388863 29,16.669686 29,14.6 C29,6.62385763 22.4761424,0.1 14.5,0.1 L14.5,0.1 Z" id="Shape"></path>
            </g>
        </g>
    </g>
</svg>