<?xml version="1.0" encoding="UTF-8" standalone="no"?>
<svg width="24px" height="32px" viewBox="0 0 24 32" version="1.1" xmlns="http://www.w3.org/2000/svg" xmlns:xlink="http://www.w3.org/1999/xlink" xmlns:sketch="http://www.bohemiancoding.com/sketch/ns">
    <!-- Generator: Sketch 3.4.4 (17249) - http://www.bohemiancoding.com/sketch -->
    <title>music</title>
    <desc>Created with Sketch.</desc>
    <defs></defs>
    <g id="Page-1" stroke="none" stroke-width="1" fill="none" fill-rule="evenodd" sketch:type="MSPage">
        <g id="Bicons_v3-[Converted]" sketch:type="MSLayerGroup" transform="translate(-205.000000, -1.000000)" fill="#14171C">
            <g id="music" transform="translate(205.000000, 1.000000)" sketch:type="MSShapeGroup">
                <path d="M5.5,32 C8.53756612,32 11,29.5375661 11,26.5 C11,23.4624339 8.53756612,21 5.5,21 C2.46243388,21 0,23.4624339 0,26.5 C0,29.5375661 2.46243388,32 5.5,32 L5.5,32 Z M5.5,31 C3.01471863,31 1,28.9852814 1,26.5 C1,24.0147186 3.01471863,22 5.5,22 C7.98528137,22 10,24.0147186 10,26.5 C10,28.9852814 7.98528137,31 5.5,31 L5.5,31 Z" id="Shape"></path>
                <path d="M10.424601,7.9942823 L22.224601,9.7942823 C23.1206813,9.94367709 24,9.21091151 24,8.3 L24,3.3 C24,2.59392012 23.4716636,1.97752771 22.8212678,1.81492875 L11.7763661,0.105866199 C10.8793187,-0.0436770942 10,0.689088489 10,1.6 L10,26.4 L11,26.4 L11,1.6 C11,1.31091151 11.3206813,1.04367709 11.6178005,1.09319696 L22.6236339,2.7941338 C22.8010636,2.84065411 23,3.07274655 23,3.3 L23,8.3 C23,8.58908849 22.6793187,8.85632291 22.3821995,8.80680304 L10.575399,7.0057177 L10.424601,7.9942823 L10.424601,7.9942823 Z" id="Shape"></path>
            </g>
        </g>
    </g>
</svg>