<?xml version="1.0" encoding="UTF-8" standalone="no"?>
<svg width="33px" height="35px" viewBox="0 0 33 35" version="1.1" xmlns="http://www.w3.org/2000/svg" xmlns:xlink="http://www.w3.org/1999/xlink" xmlns:sketch="http://www.bohemiancoding.com/sketch/ns">
    <!-- Generator: Sketch 3.4.4 (17249) - http://www.bohemiancoding.com/sketch -->
    <title>music-double</title>
    <desc>Created with Sketch.</desc>
    <defs></defs>
    <g id="Page-1" stroke="none" stroke-width="1" fill="none" fill-rule="evenodd" sketch:type="MSPage">
        <g id="Bicons_v3-[Converted]" sketch:type="MSLayerGroup" transform="translate(-133.000000, 0.000000)" fill="#14171C">
            <g id="music-double" transform="translate(133.000000, 0.000000)" sketch:type="MSShapeGroup">
                <path d="M5.5,35 C8.53756612,35 11,32.5375661 11,29.5 C11,26.4624339 8.53756612,24 5.5,24 C2.46243388,24 0,26.4624339 0,29.5 C0,32.5375661 2.46243388,35 5.5,35 L5.5,35 Z M5.5,34 C3.01471863,34 1,31.9852814 1,29.5 C1,27.0147186 3.01471863,25 5.5,25 C7.98528137,25 10,27.0147186 10,29.5 C10,31.9852814 7.98528137,34 5.5,34 L5.5,34 Z" id="Shape"></path>
                <path d="M11,29.5 L11,5.2 C11,4.4513897 11.5187804,3.84614586 12.2980581,3.69029034 L30.2687842,1.19524614 C31.1585847,1.04713276 32,1.789558 32,2.7 L32,26.4 L33,26.4 L33,2.7 C33,1.18103023 31.6133779,-0.0424598603 30.1178005,0.206803038 L12.1312158,2.70475386 C10.8639782,2.95730241 10,3.96527696 10,5.2 L10,29.5 L11,29.5 L11,29.5 Z" id="Shape"></path>
                <path d="M10.5675566,10.9954151 L32.5675566,7.99541508 L32.4324434,7.00458492 L10.4324434,10.0045849 L10.5675566,10.9954151 L10.5675566,10.9954151 Z" id="Shape"></path>
                <path d="M27.5,32 C30.5375661,32 33,29.5375661 33,26.5 C33,23.4624339 30.5375661,21 27.5,21 C24.4624339,21 22,23.4624339 22,26.5 C22,29.5375661 24.4624339,32 27.5,32 L27.5,32 Z M27.5,31 C25.0147186,31 23,28.9852814 23,26.5 C23,24.0147186 25.0147186,22 27.5,22 C29.9852814,22 32,24.0147186 32,26.5 C32,28.9852814 29.9852814,31 27.5,31 L27.5,31 Z" id="Shape"></path>
            </g>
        </g>
    </g>
</svg>