<?xml version="1.0" encoding="UTF-8" standalone="no"?>
<svg width="33px" height="37px" viewBox="0 0 33 37" version="1.1" xmlns="http://www.w3.org/2000/svg" xmlns:xlink="http://www.w3.org/1999/xlink" xmlns:sketch="http://www.bohemiancoding.com/sketch/ns">
    <!-- Generator: Sketch 3.4.4 (17249) - http://www.bohemiancoding.com/sketch -->
    <title>nut</title>
    <desc>Created with Sketch.</desc>
    <defs></defs>
    <g id="Page-1" stroke="none" stroke-width="1" fill="none" fill-rule="evenodd" sketch:type="MSPage">
        <g id="Bicons_v3-[Converted]" sketch:type="MSLayerGroup" transform="translate(-530.000000, -396.000000)" fill="#14171C">
            <g id="nut" transform="translate(530.000000, 396.000000)" sketch:type="MSShapeGroup">
                <path d="M16.5,26 C20.6421356,26 24,22.6421356 24,18.5 C24,14.3578644 20.6421356,11 16.5,11 C12.3578644,11 9,14.3578644 9,18.5 C9,22.6421356 12.3578644,26 16.5,26 L16.5,26 Z M16.5,25 C12.9101491,25 10,22.0898509 10,18.5 C10,14.9101491 12.9101491,12 16.5,12 C20.0898509,12 23,14.9101491 23,18.5 C23,22.0898509 20.0898509,25 16.5,25 L16.5,25 Z" id="Shape"></path>
                <path d="M2.74923556,8.53345315 L14.7492356,1.63345315 C15.7962543,1.02270352 17.2037457,1.02270352 18.2480645,1.63188945 L30.2507644,8.53345315 C31.3271253,9.16134161 32,10.314841 32,11.6 L32,25.5 C32,26.6897762 31.3229423,27.8504466 30.2226499,28.5839749 L18.2507644,35.4665468 C17.2037457,36.0772965 15.7962543,36.0772965 14.7519355,35.4681105 L2.74923556,28.5665468 C1.67287467,27.9386584 1,26.785159 1,25.5 L1,11.6 C1,10.314841 1.67287467,9.16134161 2.75193551,8.53188945 L2.74923556,8.53345315 Z M2.24806449,7.66811055 C0.863967439,8.47550049 0,9.95658753 0,11.6 L0,25.5 C0,27.1434125 0.863967439,28.6244995 2.24806449,29.4318895 L14.2507644,36.3334532 C15.6037457,37.1227035 17.3962543,37.1227035 18.7519355,36.3318895 L30.7492356,29.4334532 C32.1452395,28.5040989 33,27.0387952 33,25.5 L33,11.6 C33,9.95658753 32.1360326,8.47550049 30.7519355,7.66811055 L18.7492356,0.766546848 C17.3962543,-0.0227035165 15.6037457,-0.0227035165 14.2480645,0.76811055 L2.25076444,7.66654685 L2.24806449,7.66811055 Z" id="Shape"></path>
            </g>
        </g>
    </g>
</svg>