<?xml version="1.0" encoding="UTF-8" standalone="no"?>
<svg width="34px" height="38px" viewBox="0 0 34 38" version="1.1" xmlns="http://www.w3.org/2000/svg" xmlns:xlink="http://www.w3.org/1999/xlink" xmlns:sketch="http://www.bohemiancoding.com/sketch/ns">
    <!-- Generator: Sketch 3.4.4 (17249) - http://www.bohemiancoding.com/sketch -->
    <title>pencil-adv</title>
    <desc>Created with Sketch.</desc>
    <defs></defs>
    <g id="Page-1" stroke="none" stroke-width="1" fill="none" fill-rule="evenodd" sketch:type="MSPage">
        <g id="Bicons_v3-[Converted]" sketch:type="MSLayerGroup" transform="translate(-398.000000, -131.000000)" fill="#14171C">
            <g id="pencil-adv" transform="translate(398.000000, 131.000000)" sketch:type="MSShapeGroup">
                <path d="M0.5,38 L32.5,38 L32.5,37 L0.5,37 L0.5,38 L0.5,38 Z" id="Shape"></path>
                <g id="Group" transform="translate(2.000000, 0.000000)">
                    <path d="M11.2639237,28.218873 L1.36392366,31.018873 L1.98112704,31.6360763 L4.78112704,21.7360763 L4.65355339,21.9535534 L23.7535534,2.85355339 C24.9560699,1.65103684 26.8293566,1.65103684 27.9336033,2.84022555 L30.0464466,4.95355339 C31.2489632,6.15606994 31.2489632,8.0293566 30.0597745,9.13360325 L11.0446004,28.3483025 L11.2639237,28.218873 L11.2639237,28.218873 Z M11.5360763,29.181127 L11.6627805,29.1452915 L11.7553996,29.0516975 L30.7553996,9.85169751 C32.3510368,8.3706434 32.3510368,5.84393006 30.7535534,4.24644661 L28.6535534,2.14644661 C27.1706434,0.548963157 24.6439301,0.548963157 23.0464466,2.14644661 L3.94644661,21.2464466 L3.85432782,21.3385654 L3.81887296,21.4639237 L1.01887296,31.3639237 L0.775468809,32.2245312 L1.63607634,31.981127 L11.5360763,29.181127 L11.5360763,29.181127 Z" id="Shape"></path>
                    <path d="M27.9535534,12.0464466 L20.9535534,5.04644661 L20.2464466,5.75355339 L27.2464466,12.7535534 L27.9535534,12.0464466 L27.9535534,12.0464466 Z" id="Shape"></path>
                </g>
            </g>
        </g>
    </g>
</svg>