<?xml version="1.0" encoding="UTF-8" standalone="no"?>
<svg width="37px" height="33px" viewBox="0 0 37 33" version="1.1" xmlns="http://www.w3.org/2000/svg" xmlns:xlink="http://www.w3.org/1999/xlink" xmlns:sketch="http://www.bohemiancoding.com/sketch/ns">
    <!-- Generator: Sketch 3.4.4 (17249) - http://www.bohemiancoding.com/sketch -->
    <title>photo</title>
    <desc>Created with Sketch.</desc>
    <defs></defs>
    <g id="Page-1" stroke="none" stroke-width="1" fill="none" fill-rule="evenodd" sketch:type="MSPage">
        <g id="Bicons_v3-[Converted]" sketch:type="MSLayerGroup" fill="#14171C">
            <g id="photo" sketch:type="MSShapeGroup">
                <path d="M32.5,32 L4.5,32 C2.57614237,32 1,30.4238576 1,28.5 L1,10.5 C1,8.57614237 2.57614237,7 4.5,7 L9.5,7 L9.86286828,7 L9.97536492,6.6550103 L11.4753649,2.0550103 C11.7143995,1.41893542 12.2590155,1 12.9,1 L24,1 C24.6409845,1 25.1856005,1.41893542 25.4318354,2.07556172 L26.9246351,6.6550103 L27.0371317,7 L27.4,7 L32.4,7 C34.3238576,7 35.9,8.57614237 35.9,10.5 L35.9,28.5 C35.9867391,30.419618 34.433605,32 32.5,32 L32.5,32 Z M32.5,33 C34.9974294,33 37.0118889,30.9501991 36.8994843,28.4772962 L36.9,10.5 C36.9,8.02385763 34.8761424,6 32.4,6 L27.4,6 L27.8753649,6.3449897 L26.3753649,1.7449897 C25.981967,0.694578098 25.0790155,0 24,0 L12.9,0 C11.8209845,0 10.918033,0.694578098 10.5318354,1.72443828 L9.02463508,6.3449897 L9.5,6 L4.5,6 C2.02385763,6 0,8.02385763 0,10.5 L0,28.5 C0,30.9761424 2.02385763,33 4.5,33 L32.5,33 L32.5,33 Z" id="Shape"></path>
                <path d="M18.5,28 C23.7467051,28 28,23.7467051 28,18.5 C28,13.2532949 23.7467051,9 18.5,9 C13.2532949,9 9,13.2532949 9,18.5 C9,23.7467051 13.2532949,28 18.5,28 L18.5,28 Z M18.5,27 C13.8055796,27 10,23.1944204 10,18.5 C10,13.8055796 13.8055796,10 18.5,10 C23.1944204,10 27,13.8055796 27,18.5 C27,23.1944204 23.1944204,27 18.5,27 L18.5,27 Z" id="Shape"></path>
            </g>
        </g>
    </g>
</svg>