<?xml version="1.0" encoding="UTF-8" standalone="no"?>
<svg width="35px" height="13px" viewBox="0 0 35 13" version="1.1" xmlns="http://www.w3.org/2000/svg" xmlns:xlink="http://www.w3.org/1999/xlink" xmlns:sketch="http://www.bohemiancoding.com/sketch/ns">
    <!-- Generator: Sketch 3.4.4 (17249) - http://www.bohemiancoding.com/sketch -->
    <title>rule</title>
    <desc>Created with Sketch.</desc>
    <defs></defs>
    <g id="Page-1" stroke="none" stroke-width="1" fill="none" fill-rule="evenodd" sketch:type="MSPage">
        <g id="Bicons_v3-[Converted]" sketch:type="MSLayerGroup" transform="translate(-331.000000, -276.000000)" fill="#14171C">
            <g id="rule" transform="translate(331.000000, 276.000000)" sketch:type="MSShapeGroup">
                <path d="M33.5,12 L1.5,12 C1.17614237,12 1,11.8238576 1,11.5 L1,1.5 C1,1.17614237 1.17614237,1 1.5,1 L33.5,1 C33.8238576,1 34,1.17614237 34,1.5 L34,11.5 C34,11.8238576 33.8238576,12 33.5,12 L33.5,12 Z M33.5,13 C34.3761424,13 35,12.3761424 35,11.5 L35,1.5 C35,0.623857625 34.3761424,0 33.5,0 L1.5,0 C0.623857625,0 0,0.623857625 0,1.5 L0,11.5 C0,12.3761424 0.623857625,13 1.5,13 L33.5,13 L33.5,13 Z" id="Shape"></path>
                <path d="M4,0.5 L4,6.5 L5,6.5 L5,0.5 L4,0.5 L4,0.5 Z" id="Shape"></path>
                <path d="M17,0.5 L17,6.5 L18,6.5 L18,0.5 L17,0.5 L17,0.5 Z" id="Shape"></path>
                <path d="M30,0.5 L30,6.5 L31,6.5 L31,0.5 L30,0.5 L30,0.5 Z" id="Shape"></path>
                <path d="M10,1.5 L10,4.5 L11,4.5 L11,1.5 L10,1.5 L10,1.5 Z" id="Shape"></path>
                <path d="M23,1.5 L23,4.5 L24,4.5 L24,1.5 L23,1.5 L23,1.5 Z" id="Shape"></path>
            </g>
        </g>
    </g>
</svg>