<?xml version="1.0" encoding="UTF-8" standalone="no"?>
<svg width="35px" height="35px" viewBox="0 0 35 35" version="1.1" xmlns="http://www.w3.org/2000/svg" xmlns:xlink="http://www.w3.org/1999/xlink" xmlns:sketch="http://www.bohemiancoding.com/sketch/ns">
    <!-- Generator: Sketch 3.4.4 (17249) - http://www.bohemiancoding.com/sketch -->
    <title>share</title>
    <desc>Created with Sketch.</desc>
    <defs></defs>
    <g id="Page-1" stroke="none" stroke-width="1" fill="none" fill-rule="evenodd" sketch:type="MSPage">
        <g id="Bicons_v3-[Converted]" sketch:type="MSLayerGroup" transform="translate(-1.000000, -132.000000)" fill="#14171C">
            <g id="share" transform="translate(1.000000, 132.000000)" sketch:type="MSShapeGroup">
                <path d="M6.5,24 C10.0898509,24 13,21.0898509 13,17.5 C13,13.9101491 10.0898509,11 6.5,11 C2.91014913,11 0,13.9101491 0,17.5 C0,21.0898509 2.91014913,24 6.5,24 L6.5,24 Z M6.5,23 C3.46243388,23 1,20.5375661 1,17.5 C1,14.4624339 3.46243388,12 6.5,12 C9.53756612,12 12,14.4624339 12,17.5 C12,20.5375661 9.53756612,23 6.5,23 L6.5,23 Z" id="Shape"></path>
                <path d="M28.5,13 C32.0898509,13 35,10.0898509 35,6.5 C35,2.91014913 32.0898509,0 28.5,0 C24.9101491,0 22,2.91014913 22,6.5 C22,10.0898509 24.9101491,13 28.5,13 L28.5,13 Z M28.5,12 C25.4624339,12 23,9.53756612 23,6.5 C23,3.46243388 25.4624339,1 28.5,1 C31.5375661,1 34,3.46243388 34,6.5 C34,9.53756612 31.5375661,12 28.5,12 L28.5,12 Z" id="Shape"></path>
                <path d="M28.5,35 C32.0898509,35 35,32.0898509 35,28.5 C35,24.9101491 32.0898509,22 28.5,22 C24.9101491,22 22,24.9101491 22,28.5 C22,32.0898509 24.9101491,35 28.5,35 L28.5,35 Z M28.5,34 C25.4624339,34 23,31.5375661 23,28.5 C23,25.4624339 25.4624339,23 28.5,23 C31.5375661,23 34,25.4624339 34,28.5 C34,31.5375661 31.5375661,34 28.5,34 L28.5,34 Z" id="Shape"></path>
                <path d="M12.2763932,20.9472136 L22.2763932,25.9472136 L22.7236068,25.0527864 L12.7236068,20.0527864 L12.2763932,20.9472136 L12.2763932,20.9472136 Z" id="Shape"></path>
                <path d="M22.2763932,9.0527864 L12.2763932,14.0527864 L12.7236068,14.9472136 L22.7236068,9.9472136 L22.2763932,9.0527864 L22.2763932,9.0527864 Z" id="Shape"></path>
            </g>
        </g>
    </g>
</svg>