<?xml version="1.0" encoding="UTF-8" standalone="no"?>
<svg width="35px" height="27px" viewBox="0 0 35 27" version="1.1" xmlns="http://www.w3.org/2000/svg" xmlns:xlink="http://www.w3.org/1999/xlink" xmlns:sketch="http://www.bohemiancoding.com/sketch/ns">
    <!-- Generator: Sketch 3.4.4 (17249) - http://www.bohemiancoding.com/sketch -->
    <title>speed</title>
    <desc>Created with Sketch.</desc>
    <defs></defs>
    <g id="Page-1" stroke="none" stroke-width="1" fill="none" fill-rule="evenodd" sketch:type="MSPage">
        <g id="Bicons_v3-[Converted]" sketch:type="MSLayerGroup" transform="translate(-265.000000, -533.000000)" fill="#14171C">
            <g id="speed" transform="translate(265.000000, 533.000000)" sketch:type="MSShapeGroup">
                <path d="M16.441894,19.7660561 L11.941894,11.2660561 L11.058106,11.7339439 L15.558106,20.2339439 L16.441894,19.7660561 L16.441894,19.7660561 Z" id="Shape"></path>
                <path d="M17.5,26 C19.4329966,26 21,24.4329966 21,22.5 C21,20.5670034 19.4329966,19 17.5,19 C15.5670034,19 14,20.5670034 14,22.5 C14,24.4329966 15.5670034,26 17.5,26 L17.5,26 Z M17.5,25 C16.1192881,25 15,23.8807119 15,22.5 C15,21.1192881 16.1192881,20 17.5,20 C18.8807119,20 20,21.1192881 20,22.5 C20,23.8807119 18.8807119,25 17.5,25 L17.5,25 Z" id="Shape"></path>
                <path d="M0.5,18 L4.5,18 L4.5,17 L0.5,17 L0.5,18 L0.5,18 Z" id="Shape"></path>
                <path d="M34.5,17 L30.5,17 L30.5,18 L34.5,18 L34.5,17 L34.5,17 Z" id="Shape"></path>
                <path d="M31.9464899,8.56903289 L28.5464899,10.5690329 L29.0535101,11.4309671 L32.4535101,9.43096711 L31.9464899,8.56903289 L31.9464899,8.56903289 Z" id="Shape"></path>
                <path d="M25.5690329,2.54648994 L23.5690329,5.94648994 L24.4309671,6.45351006 L26.4309671,3.05351006 L25.5690329,2.54648994 L25.5690329,2.54648994 Z" id="Shape"></path>
                <path d="M17,0.5 L17,4.5 L18,4.5 L18,0.5 L17,0.5 L17,0.5 Z" id="Shape"></path>
                <path d="M8.56903289,3.05351006 L10.5690329,6.45351006 L11.4309671,5.94648994 L9.43096711,2.54648994 L8.56903289,3.05351006 L8.56903289,3.05351006 Z" id="Shape"></path>
                <path d="M2.54648994,9.43096711 L5.94648994,11.4309671 L6.45351006,10.5690329 L3.05351006,8.56903289 L2.54648994,9.43096711 L2.54648994,9.43096711 Z" id="Shape"></path>
                <path d="M27.6486898,23.9322536 L31.9486898,26.4322536 L32.3750224,26.6801214 L32.6287465,26.2572479 C34.1862238,23.6614523 35,20.668856 35,17.5 C35,7.82385763 27.1761424,0 17.5,0 C7.82385763,0 0,7.82385763 0,17.5 C0,20.668856 0.8137762,23.6614523 2.37125354,26.2572479 L2.62497764,26.6801214 L3.05131023,26.4322536 L7.35131023,23.9322536 L6.84868977,23.0677464 L2.54868977,25.5677464 L3.22874646,25.7427521 C1.76536819,23.3037883 1,20.4892085 1,17.5 C1,8.37614237 8.37614237,1 17.5,1 C26.6238576,1 34,8.37614237 34,17.5 C34,20.4892085 33.2346318,23.3037883 31.7712535,25.7427521 L32.4513102,25.5677464 L28.1513102,23.0677464 L27.6486898,23.9322536 L27.6486898,23.9322536 Z" id="Shape"></path>
            </g>
        </g>
    </g>
</svg>