<?xml version="1.0" encoding="UTF-8" standalone="no"?>
<svg width="27px" height="35px" viewBox="0 0 27 35" version="1.1" xmlns="http://www.w3.org/2000/svg" xmlns:xlink="http://www.w3.org/1999/xlink" xmlns:sketch="http://www.bohemiancoding.com/sketch/ns">
    <!-- Generator: Sketch 3.4.4 (17249) - http://www.bohemiancoding.com/sketch -->
    <title>tablet</title>
    <desc>Created with Sketch.</desc>
    <defs></defs>
    <g id="Page-1" stroke="none" stroke-width="1" fill="none" fill-rule="evenodd" sketch:type="MSPage">
        <g id="Bicons_v3-[Converted]" sketch:type="MSLayerGroup" transform="translate(-533.000000, -66.000000)" fill="#14171C">
            <g id="tablet" transform="translate(533.000000, 66.000000)" sketch:type="MSShapeGroup">
                <path d="M22.5,34 L4.5,34 C2.57614237,34 1,32.4238576 1,30.5 L1,4.5 C1,2.57614237 2.57614237,1 4.5,1 L22.5,1 C24.4238576,1 26,2.57614237 26,4.5 L26,30.5 C26,32.4238576 24.4238576,34 22.5,34 L22.5,34 Z M22.5,35 C24.9761424,35 27,32.9761424 27,30.5 L27,4.5 C27,2.02385763 24.9761424,0 22.5,0 L4.5,0 C2.02385763,0 0,2.02385763 0,4.5 L0,30.5 C0,32.9761424 2.02385763,35 4.5,35 L22.5,35 L22.5,35 Z" id="Shape"></path>
                <path d="M13.5,32 C14.3284271,32 15,31.3284271 15,30.5 C15,29.6715729 14.3284271,29 13.5,29 C12.6715729,29 12,29.6715729 12,30.5 C12,31.3284271 12.6715729,32 13.5,32 L13.5,32 Z M13.5,31 C13.2238576,31 13,30.7761424 13,30.5 C13,30.2238576 13.2238576,30 13.5,30 C13.7761424,30 14,30.2238576 14,30.5 C14,30.7761424 13.7761424,31 13.5,31 L13.5,31 Z" id="Shape"></path>
                <path d="M11.5,4 L15.5,4 L15.5,3 L11.5,3 L11.5,4 L11.5,4 Z" id="Shape"></path>
            </g>
        </g>
    </g>
</svg>