<?xml version="1.0" encoding="UTF-8" standalone="no"?>
<svg width="43px" height="43px" viewBox="0 0 43 43" version="1.1" xmlns="http://www.w3.org/2000/svg" xmlns:xlink="http://www.w3.org/1999/xlink" xmlns:sketch="http://www.bohemiancoding.com/sketch/ns">
    <!-- Generator: Sketch 3.4.4 (17249) - http://www.bohemiancoding.com/sketch -->
    <title>target</title>
    <desc>Created with Sketch.</desc>
    <defs></defs>
    <g id="Page-1" stroke="none" stroke-width="1" fill="none" fill-rule="evenodd" sketch:type="MSPage">
        <g id="Bicons_v3-[Converted]" sketch:type="MSLayerGroup" transform="translate(-129.000000, -62.000000)" fill="#14171C">
            <g id="target" transform="translate(129.000000, 62.000000)" sketch:type="MSShapeGroup">
                <path d="M21.5,29 C25.6421356,29 29,25.6421356 29,21.5 C29,17.3578644 25.6421356,14 21.5,14 C17.3578644,14 14,17.3578644 14,21.5 C14,25.6421356 17.3578644,29 21.5,29 L21.5,29 Z M21.5,28 C17.9101491,28 15,25.0898509 15,21.5 C15,17.9101491 17.9101491,15 21.5,15 C25.0898509,15 28,17.9101491 28,21.5 C28,25.0898509 25.0898509,28 21.5,28 L21.5,28 Z" id="Shape"></path>
                <path d="M21.5,36 C29.5081289,36 36,29.5081289 36,21.5 C36,13.4918711 29.5081289,7 21.5,7 C13.4918711,7 7,13.4918711 7,21.5 C7,29.5081289 13.4918711,36 21.5,36 L21.5,36 Z M21.5,35 C14.0441559,35 8,28.9558441 8,21.5 C8,14.0441559 14.0441559,8 21.5,8 C28.9558441,8 35,14.0441559 35,21.5 C35,28.9558441 28.9558441,35 21.5,35 L21.5,35 Z" id="Shape"></path>
                <path d="M21,0.5 L21,7.5 L22,7.5 L22,0.5 L21,0.5 L21,0.5 Z" id="Shape"></path>
                <path d="M35.5,22 L42.5,22 L42.5,21 L35.5,21 L35.5,22 L35.5,22 Z" id="Shape"></path>
                <path d="M22,42.5 L22,35.5 L21,35.5 L21,42.5 L22,42.5 L22,42.5 Z" id="Shape"></path>
                <path d="M7.5,21 L0.5,21 L0.5,22 L7.5,22 L7.5,21 L7.5,21 Z" id="Shape"></path>
            </g>
        </g>
    </g>
</svg>