<?xml version="1.0" encoding="UTF-8" standalone="no"?>
<svg width="36px" height="35px" viewBox="0 0 36 35" version="1.1" xmlns="http://www.w3.org/2000/svg" xmlns:xlink="http://www.w3.org/1999/xlink" xmlns:sketch="http://www.bohemiancoding.com/sketch/ns">
    <!-- Generator: Sketch 3.4.4 (17249) - http://www.bohemiancoding.com/sketch -->
    <title>volume-min</title>
    <desc>Created with Sketch.</desc>
    <defs></defs>
    <g id="Page-1" stroke="none" stroke-width="1" fill="none" fill-rule="evenodd" sketch:type="MSPage">
        <g id="Bicons_v3-[Converted]" sketch:type="MSLayerGroup" transform="translate(-396.000000, 0.000000)" fill="#14171C">
            <g id="volume-min" transform="translate(396.000000, 0.000000)" sketch:type="MSShapeGroup">
                <path d="M20,1.8 L20,33.3 C20,33.7552566 19.5138383,33.9533225 19.1253957,33.6203717 L9.33614836,24.7298591 C8.79669363,24.3225202 8.19271016,24.1 7.6,24.1 L4.4,24.1 C2.97614237,24.1 1.9,23.0238576 1.9,21.6 L1.9,13.6 C1.9,12.1761424 2.97614237,11.1 4.4,11.1 L7.6,11.1 C8.19271016,11.1 8.79669363,10.8774798 9.3,10.5 L19.1361484,1.57014089 C19.536384,1.11771444 20,1.30659505 20,1.8 L20,1.8 Z M21,1.8 C21,0.400812361 19.4038891,-0.249455058 18.4237117,0.870747696 L8.66385164,9.72985911 C8.36192706,9.95355471 7.96443269,10.1 7.6,10.1 L4.4,10.1 C2.42385763,10.1 0.9,11.6238576 0.9,13.6 L0.9,21.6 C0.9,23.5761424 2.42385763,25.1 4.4,25.1 L7.6,25.1 C7.96443269,25.1 8.36192706,25.2464453 8.7,25.5 L18.4638516,34.3701409 C19.4920194,35.2516984 21,34.637336 21,33.3 L21,1.8 L21,1.8 Z" id="Shape"></path>
                <path d="M25.1464466,12.8535534 L35.1464466,22.8535534 L35.8535534,22.1464466 L25.8535534,12.1464466 L25.1464466,12.8535534 L25.1464466,12.8535534 Z" id="Shape"></path>
                <path d="M35.1464466,12.1464466 L25.1464466,22.1464466 L25.8535534,22.8535534 L35.8535534,12.8535534 L35.1464466,12.1464466 L35.1464466,12.1464466 Z" id="Shape"></path>
            </g>
        </g>
    </g>
</svg>