<?xml version="1.0" encoding="UTF-8" standalone="no"?>
<svg width="33px" height="35px" viewBox="0 0 33 35" version="1.1" xmlns="http://www.w3.org/2000/svg" xmlns:xlink="http://www.w3.org/1999/xlink" xmlns:sketch="http://www.bohemiancoding.com/sketch/ns">
    <!-- Generator: Sketch 3.4.4 (17249) - http://www.bohemiancoding.com/sketch -->
    <title>volume-max</title>
    <desc>Created with Sketch.</desc>
    <defs></defs>
    <g id="Page-1" stroke="none" stroke-width="1" fill="none" fill-rule="evenodd" sketch:type="MSPage">
        <g id="Bicons_v3-[Converted]" sketch:type="MSLayerGroup" transform="translate(-332.000000, 0.000000)" fill="#14171C">
            <g id="volume-max" transform="translate(332.000000, 0.000000)" sketch:type="MSShapeGroup">
                <path d="M19,1.8 L19,33.2 C19,33.6552566 18.5138383,33.8533225 18.1253957,33.5203717 L8.43803427,24.6315806 C7.89669363,24.2225202 7.29271016,24 6.7,24 L3.5,24 C2.07614237,24 1,22.9238576 1,21.5 L1,13.5 C1,12.0761424 2.07614237,11 3.5,11 L6.7,11 C7.29271016,11 7.89669363,10.7774798 8.4,10.4 L18.1380343,1.46841937 C18.4541516,1.15295518 19,1.36739562 19,1.8 L19,1.8 Z M20,1.8 C20,0.464747238 18.3689253,-0.176032101 17.4464466,0.746446609 L7.76196573,9.63158063 C7.46192706,9.85355471 7.06443269,10 6.7,10 L3.5,10 C1.52385763,10 0,11.5238576 0,13.5 L0,21.5 C0,23.4761424 1.52385763,25 3.5,25 L6.7,25 C7.06443269,25 7.46192706,25.1464453 7.8,25.4 L17.4619657,34.2684194 C18.4920194,35.1516984 20,34.537336 20,33.2 L20,1.8 L20,1.8 Z" id="Shape"></path>
                <path d="M23.0226972,9.82808936 C26.8591009,14.2399536 26.8591009,20.7600464 23.0226972,25.1719106 L23.7773028,25.8280894 C27.9408991,21.0399536 27.9408991,13.9600464 23.7773028,9.17191064 L23.0226972,9.82808936 L23.0226972,9.82808936 Z" id="Shape"></path>
                <path d="M27.0341392,4.84080183 C33.6552869,11.9487986 33.6552869,22.9512014 27.0341392,30.0591982 L27.7658608,30.7408018 C34.7447131,23.2487986 34.7447131,11.6512014 27.7658608,4.15919817 L27.0341392,4.84080183 L27.0341392,4.84080183 Z" id="Shape"></path>
            </g>
        </g>
    </g>
</svg>