<?xml version="1.0" encoding="UTF-8" standalone="no"?>
<svg width="36px" height="31px" viewBox="0 0 36 31" version="1.1" xmlns="http://www.w3.org/2000/svg" xmlns:xlink="http://www.w3.org/1999/xlink" xmlns:sketch="http://www.bohemiancoding.com/sketch/ns">
    <!-- Generator: Sketch 3.4.4 (17249) - http://www.bohemiancoding.com/sketch -->
    <title>warning</title>
    <desc>Created with Sketch.</desc>
    <defs></defs>
    <g id="Page-1" stroke="none" stroke-width="1" fill="none" fill-rule="evenodd" sketch:type="MSPage">
        <g id="Bicons_v3-[Converted]" sketch:type="MSLayerGroup" transform="translate(-198.000000, -464.000000)" fill="#14171C">
            <g id="warning" transform="translate(198.000000, 464.000000)" sketch:type="MSShapeGroup">
                <path d="M2.13309279,27.7498612 L17.1330928,1.74986123 C17.7305871,0.779317096 19.1694129,0.779317096 19.7741708,1.76204871 L34.7669072,27.7498612 C35.3613461,28.7162085 34.6238488,30 33.5,30 L3.5,30 C2.3213566,30 1.59889916,28.7423889 2.14023555,27.7370499 L2.13309279,27.7498612 Z M1.25976445,27.2629501 C0.364042012,28.9264346 1.55523915,31 3.5,31 L33.5,31 C35.3995554,31 36.6265494,28.8641216 35.6258292,27.2379513 L20.6330928,1.25013877 C19.6305871,-0.379317096 17.2694129,-0.379317096 16.2741708,1.23795129 L1.26690721,27.2501388 L1.25976445,27.2629501 Z" id="Shape"></path>
                <path d="M18,9.5 L18,22.5 L19,22.5 L19,9.5 L18,9.5 L18,9.5 Z" id="Shape"></path>
                <circle id="Oval" cx="18.5" cy="25.5" r="1.5"></circle>
            </g>
        </g>
    </g>
</svg>